<svg width="415" height="276" viewBox="0 0 415 276" fill="none" xmlns="http://www.w3.org/2000/svg">
<g clip-path="url(#clip0)">
<path opacity="0.4" d="M415 249.208H0.102539V276H415V249.208Z" fill="#AD92B8"/>
<path d="M414.425 249.23H0V248.335H414.61L414.425 249.23Z" fill="#3F3D56"/>
<path d="M325.503 103.128V182.441H89.6001V103.128C89.5998 76.8071 101.11 51.4823 121.773 32.3408C142.436 13.1993 170.688 1.68989 200.742 0.17012C202.994 0.0553165 205.264 -0.0013813 207.552 2.55473e-05C208.855 2.55473e-05 210.154 0.0170254 211.443 0.0595553C241.371 0.887599 269.81 11.6703 290.954 30.2069C291.592 30.764 292.219 31.3254 292.846 31.8952C313.814 51.0787 325.511 76.5935 325.503 103.128Z" fill="#E4D2E4"/>
<path d="M211.442 0.0595741V182.441H200.742V0.17012C202.994 0.0553165 205.264 -0.0013813 207.551 2.55473e-05C208.855 2.55473e-05 210.153 0.0170278 211.442 0.0595741Z" fill="white"/>
<path d="M301.917 41.2511H113.185C115.995 37.9784 119.024 34.8542 122.256 31.8952H292.846C296.079 34.8542 299.108 37.9784 301.917 41.2511Z" fill="white"/>
<path d="M307.55 68.0432H223.943V191.797H307.55V68.0432Z" fill="white"/>
<path d="M253.099 88.9501H240.452V100.007H253.099V88.9501Z" fill="#E6E6E6"/>
<path d="M273.474 88.9501H260.827V100.007H273.474V88.9501Z" fill="#E6E6E6"/>
<path d="M293.849 88.9501H281.203V100.007H293.849V88.9501Z" fill="#E6E6E6"/>
<path d="M253.45 114.136H240.804V125.193H253.45V114.136Z" fill="#E6E6E6"/>
<path d="M273.825 114.136H261.179V125.193H273.825V114.136Z" fill="#E6E6E6"/>
<path d="M294.2 114.136H281.554V125.193H294.2V114.136Z" fill="#E6E6E6"/>
<path d="M253.801 139.322H241.155V150.379H253.801V139.322Z" fill="#E6E6E6"/>
<path d="M274.176 139.322H261.53V150.379H274.176V139.322Z" fill="#E6E6E6"/>
<path d="M294.551 139.322H281.905V150.379H294.551V139.322Z" fill="#E6E6E6"/>
<path d="M254.152 164.508H241.506V175.565H254.152V164.508Z" fill="#E6E6E6"/>
<path d="M274.528 164.508H261.881V175.565H274.528V164.508Z" fill="#E6E6E6"/>
<path d="M294.903 164.508H282.256V175.565H294.903V164.508Z" fill="#E6E6E6"/>
<path d="M254.152 164.508H241.506V175.565H254.152V164.508Z" fill="#E6E6E6"/>
<path d="M274.528 164.508H261.881V175.565H274.528V164.508Z" fill="#E6E6E6"/>
<path d="M294.903 164.508H282.256V175.565H294.903V164.508Z" fill="#E6E6E6"/>
<path d="M117.641 157.277C127.268 157.277 135.071 150.454 135.071 142.038C135.071 133.621 127.268 126.798 117.641 126.798C108.015 126.798 100.211 133.621 100.211 142.038C100.211 150.454 108.015 157.277 117.641 157.277Z" fill="white"/>
<path d="M117.689 142.038H117.737L118.599 185.245H116.78L117.689 142.038Z" fill="white"/>
<path d="M120.863 165.572L120.461 164.906L117.58 166.232L117.982 166.899L120.863 165.572Z" fill="white"/>
<path d="M168.886 142.716C183.524 142.716 195.391 132.34 195.391 119.541C195.391 106.742 183.524 96.3664 168.886 96.3664C154.247 96.3664 142.38 106.742 142.38 119.541C142.38 132.34 154.247 142.716 168.886 142.716Z" fill="white"/>
<path d="M168.959 119.541H169.031L170.342 185.245H167.575L168.959 119.541Z" fill="white"/>
<path d="M173.784 155.329L173.174 154.315L168.792 156.332L169.403 157.346L173.784 155.329Z" fill="white"/>
<path d="M114.217 97.4121L118.694 94.2809C115.216 93.9454 113.787 95.604 113.202 96.9169C110.484 95.9303 107.526 97.2233 107.526 97.2233L116.485 100.067C116.033 99.0115 115.246 98.0905 114.217 97.4121Z" fill="white"/>
<path d="M161.397 71.8959L165.875 68.7647C162.397 68.4292 160.967 70.0879 160.382 71.4007C157.665 70.4141 154.707 71.7071 154.707 71.7071L163.665 74.5508C163.213 73.4953 162.427 72.5743 161.397 71.8959Z" fill="white"/>
<path d="M143.4 96.1363L147.878 93.0051C144.399 92.6696 142.97 94.3282 142.385 95.6411C139.668 94.6545 136.709 95.9475 136.709 95.9475L145.668 98.7911C145.216 97.7356 144.43 96.8147 143.4 96.1363Z" fill="white"/>
<path d="M337.906 173.085H77.1968V191.797H337.906V173.085Z" fill="#E4D2E4"/>
<path d="M38.2574 221.793C38.2574 221.793 -14.4784 200.567 4.04764 185.847C22.5737 171.128 38.2574 221.793 38.2574 221.793Z" fill="#63DB41"/>
<path d="M37.3399 226.746C37.3399 226.746 13.1005 157.112 48.7939 160.442C84.4873 163.773 37.3399 226.746 37.3399 226.746Z" fill="#63DB41"/>
<path d="M19.6665 220.57L20.6839 232.218L20.7 232.419C20.6991 234.238 20.8042 236.056 21.0149 237.866C22.3956 249.747 28.3302 255.162 35.266 255.162C42.2018 255.162 47.878 249.747 49.2587 237.866C49.4694 236.056 49.5745 234.238 49.5736 232.419L49.5817 232.257L49.5857 232.218L50.6071 220.57H19.6665Z" fill="#DC6C41"/>
<path d="M49.5854 232.218L49.5814 232.257L49.5733 232.42C49.5743 234.238 49.4692 236.056 49.2584 237.866H21.0146C20.8039 236.056 20.6988 234.238 20.6997 232.42L20.6836 232.218H49.5854Z" fill="white"/>
<path d="M391.106 221.793C391.106 221.793 338.37 200.567 356.896 185.847C375.422 171.128 391.106 221.793 391.106 221.793Z" fill="#63DB41"/>
<path d="M390.188 226.746C390.188 226.746 365.948 157.112 401.642 160.442C437.335 163.773 390.188 226.746 390.188 226.746Z" fill="#63DB41"/>
<path d="M372.515 220.57L373.532 232.218L373.548 232.419C373.547 234.238 373.652 236.056 373.863 237.866C375.244 249.747 381.178 255.162 388.114 255.162C395.05 255.162 400.726 249.747 402.107 237.866C402.318 236.056 402.423 234.238 402.422 232.419L402.43 232.257L402.434 232.218L403.455 220.57H372.515Z" fill="#DC6C41"/>
<path d="M402.434 232.218L402.429 232.257L402.421 232.42C402.422 234.238 402.317 236.056 402.106 237.866H373.863C373.652 236.056 373.547 234.238 373.548 232.42L373.532 232.218H402.434Z" fill="white"/>
<path d="M321.086 263.962L317.628 264.317C314.897 265.756 311.692 266.298 308.142 266.188C307.646 266.175 307.163 266.049 306.741 265.822C306.318 265.596 305.97 265.277 305.732 264.897C305.525 264.563 305.41 264.192 305.394 263.813C305.378 263.434 305.462 263.057 305.64 262.711C305.818 262.365 306.085 262.06 306.42 261.819C306.755 261.578 307.149 261.408 307.571 261.322L310.198 260.787L316.538 255.366L320.362 249.314L325.917 249.871L327.073 257.558C327.22 259.096 326.678 260.623 325.56 261.818C324.443 263.013 322.839 263.782 321.086 263.962Z" fill="#FFB8B8"/>
<path d="M267.238 260.073L263.849 260.77C261.323 262.472 258.21 263.33 254.668 263.574C254.174 263.611 253.678 263.534 253.228 263.351C252.779 263.168 252.392 262.885 252.106 262.531C251.857 262.221 251.694 261.864 251.628 261.489C251.563 261.114 251.598 260.731 251.729 260.369C251.861 260.008 252.086 259.678 252.388 259.405C252.689 259.132 253.059 258.924 253.467 258.796L256.008 258.003L261.599 251.986L264.61 245.593H270.201L272.352 253.114C272.698 254.628 272.358 256.199 271.404 257.498C270.45 258.796 268.956 259.719 267.238 260.073Z" fill="#FFB8B8"/>
<path d="M264.46 246.018L270.783 246.869L280.754 202.854L298.021 177.125L318.936 251.972L326.719 253.248C325.846 211.099 330.105 158.034 320.395 151.609L278.079 155.861L259.596 199.239L264.46 246.018Z" fill="#2F2E41"/>
<path d="M295.103 86.1171C303.162 86.1171 309.695 80.4051 309.695 73.359C309.695 66.3129 303.162 60.601 295.103 60.601C287.044 60.601 280.511 66.3129 280.511 73.359C280.511 80.4051 287.044 86.1171 295.103 86.1171Z" fill="#FFB8B8"/>
<path d="M315.532 92.9215L298.021 95.4731L293.644 81.8643L306.29 78.4624L315.532 92.9215Z" fill="#FFB8B8"/>
<path d="M322.827 153.31L276.133 157.137C279.877 145.756 283.306 134.415 280.511 123.116C276.961 113.027 280.387 107.028 289.752 102.277L296.076 89.9445L313.1 88.2435C317.608 94.581 319.452 102.093 318.315 109.49C315.89 125.575 316.545 140.501 322.827 153.31Z" fill="#DC6C41"/>
<path d="M294.774 58.291C289.905 59.2638 284.362 60.6422 284.051 61.9233C279.041 63.027 275.26 65.6707 274.488 69.7012C274.424 70.0495 274.447 70.406 274.557 70.7455C274.668 71.085 274.861 71.3993 275.125 71.6662C275.39 71.933 275.717 72.1461 276.086 72.2902C276.454 72.4343 276.854 72.5061 277.258 72.5004C279.982 72.4698 284.072 72.2416 286.772 71.2554C294.618 75.675 295.934 87.1699 292.508 94.9943L297.9 94.5622L303.477 80.2864L304.902 94.0011L317.205 92.5788L315.62 75.0901C315.133 70.9682 313.529 67.0073 310.94 63.5361C310.671 63.1875 310.377 62.8543 310.059 62.5387C308.188 60.6899 305.778 59.3188 303.087 58.5709C300.396 57.8231 297.523 57.7263 294.774 58.291Z" fill="#2F2E41"/>
<path d="M263.875 268.348C263.848 268.556 263.872 268.767 263.944 268.967C264.017 269.166 264.136 269.35 264.295 269.507C264.454 269.664 264.649 269.79 264.867 269.877C265.085 269.964 265.321 270.01 265.56 270.012L271.032 270.061C271.327 270.043 271.603 269.928 271.804 269.739C272.006 269.55 272.118 269.302 272.118 269.043C272.118 268.839 272.048 268.64 271.917 268.471C271.787 268.302 271.601 268.172 271.384 268.096L269.77 267.531L267.422 264.658H265.544C264.622 265.733 264.046 267.004 263.876 268.34L263.875 268.348H263.875Z" fill="#FFB8B8"/>
<path d="M250.778 268.348C250.804 268.556 250.78 268.767 250.708 268.967C250.636 269.166 250.516 269.35 250.357 269.507C250.198 269.664 250.004 269.79 249.786 269.877C249.568 269.964 249.332 270.01 249.092 270.012L243.62 270.061C243.326 270.043 243.05 269.928 242.848 269.739C242.647 269.55 242.535 269.302 242.535 269.043C242.535 268.839 242.605 268.64 242.735 268.471C242.866 268.302 243.052 268.172 243.268 268.096L244.883 267.531L247.23 264.658H249.109C250.031 265.733 250.607 267.004 250.777 268.34L250.778 268.348Z" fill="#FFB8B8"/>
<path d="M246.761 264.658H249.578L259.439 227.297L264.605 265.068H267.892L272.352 216.417L249.578 216.212L246.761 264.658Z" fill="#3F3D56"/>
<path d="M234.082 196.094H237.839V188.293L238.693 186.799C238.865 186.499 238.953 186.168 238.95 185.833C238.948 185.498 238.854 185.168 238.678 184.87C238.502 184.572 238.248 184.315 237.937 184.119C237.625 183.924 237.265 183.795 236.886 183.744C236.539 183.697 236.185 183.717 235.848 183.801C235.51 183.885 235.198 184.032 234.931 184.232C234.665 184.432 234.451 184.68 234.304 184.959C234.158 185.237 234.082 185.541 234.082 185.847V196.094Z" fill="#FFB8B8"/>
<path d="M256.387 176.798C261.185 176.798 265.074 173.397 265.074 169.202C265.074 165.008 261.185 161.607 256.387 161.607C251.589 161.607 247.7 165.008 247.7 169.202C247.7 173.397 251.589 176.798 256.387 176.798Z" fill="#FFB8B8"/>
<path d="M252.865 182.135H261.787V173.103H252.865V182.135Z" fill="#FFB8B8"/>
<path d="M248.639 217.443C256.536 221.704 264.885 221.288 273.526 217.854L271.648 179.672L261.787 179.261L251.456 180.493L246.291 184.188L248.639 217.443Z" fill="#855E96"/>
<path d="M239.247 203.895L249.578 196.915L246.291 184.188L240.187 194.041L238.308 192.399L232.673 196.094L239.247 203.895Z" fill="#855E96"/>
<path d="M285.104 180.327L281.818 181.92L277.493 175.097L275.917 174.152C275.601 173.962 275.341 173.71 275.157 173.416C274.973 173.121 274.872 172.793 274.861 172.458C274.85 172.123 274.929 171.79 275.093 171.487C275.257 171.184 275.501 170.919 275.804 170.714C276.081 170.526 276.402 170.393 276.744 170.324C277.086 170.254 277.441 170.251 277.785 170.312C278.128 170.374 278.453 170.5 278.735 170.682C279.018 170.864 279.253 171.097 279.423 171.365L280.779 173.505L285.104 180.327Z" fill="#FFB8B8"/>
<path d="M266.717 191.783L279.185 185.997L285.735 182.956L286.674 178.03L282.448 174.335L277.283 177.209L277.752 180.493L271.648 179.672L266.717 191.783Z" fill="#855E96"/>
<path d="M258.265 175.361C263.971 175.361 268.596 171.317 268.596 166.329C268.596 161.34 263.971 157.296 258.265 157.296C252.56 157.296 247.935 161.34 247.935 166.329C247.935 171.317 252.56 175.361 258.265 175.361Z" fill="#2F2E41"/>
<path d="M263.9 160.17C266.494 160.17 268.596 158.332 268.596 156.065C268.596 153.797 266.494 151.959 263.9 151.959C261.307 151.959 259.205 153.797 259.205 156.065C259.205 158.332 261.307 160.17 263.9 160.17Z" fill="#2F2E41"/>
<path d="M263.672 159.497C264.603 159.922 265.67 160.062 266.703 159.894C267.735 159.726 268.673 159.261 269.368 158.572C270.062 157.883 270.472 157.01 270.532 156.093C270.592 155.177 270.299 154.269 269.699 153.515C270.242 153.872 270.69 154.328 271.012 154.852C271.333 155.375 271.521 155.953 271.562 156.546C271.603 157.139 271.497 157.732 271.25 158.286C271.003 158.839 270.621 159.339 270.132 159.751C269.642 160.163 269.056 160.477 268.414 160.671C267.772 160.866 267.089 160.936 266.413 160.877C265.737 160.818 265.084 160.632 264.498 160.331C263.913 160.03 263.409 159.621 263.021 159.133C263.227 159.27 263.444 159.391 263.672 159.497Z" fill="#2F2E41"/>
<path d="M292.671 166.068L292.993 175.941C293.038 177.302 292.491 178.627 291.463 179.649C290.434 180.672 289.001 181.316 287.452 181.451C286.459 181.538 285.458 181.413 284.533 181.086C283.608 180.759 282.788 180.241 282.143 179.576C281.498 178.911 281.047 178.119 280.83 177.268C280.613 176.416 280.635 175.532 280.895 174.69L283.429 166.493L290.725 131.621L290.239 111.208L305.804 110.783L302.885 133.747L292.671 166.068Z" fill="#FFB8B8"/>
<path d="M306.776 112.909C301.137 111.031 294.905 111.031 289.266 112.909L290.239 95.8983C290.239 94.0937 291.059 92.363 292.518 91.0869C293.978 89.8109 295.957 89.094 298.021 89.094C300.085 89.094 302.065 89.8109 303.524 91.0869C304.984 92.363 305.804 94.0937 305.804 95.8983L306.776 112.909Z" fill="#DC6C41"/>
</g>
<defs>
<clipPath id="clip0">
<rect width="415" height="276" fill="white"/>
</clipPath>
</defs>
</svg>