<svg width="533" height="351" viewBox="0 0 533 351" fill="none" xmlns="http://www.w3.org/2000/svg">
<g clip-path="url(#clip0)">
<path d="M121.826 105.142C122.954 105.785 124.062 106.439 125.168 107.114C136.85 134.016 143.52 162.52 144.901 191.44C145.071 194.785 145.157 198.124 145.16 201.459C145.26 226.462 141.285 251.339 133.364 275.269C132.946 276.528 132.519 277.783 132.083 279.033C131.771 279.929 131.453 280.835 131.108 281.724C130.741 282.18 130.379 282.628 130.018 283.076C129.992 283.095 129.97 283.129 129.944 283.149C129.799 283.329 129.653 283.51 129.522 283.687C128.897 284.455 128.263 285.218 127.639 285.985L128.165 286.018L129.484 286.095L129.478 286.103C129.035 286.094 128.584 286.081 128.137 286.059C127.975 286.06 127.798 286.063 127.633 286.05C127.485 286.048 127.328 286.04 127.18 286.037C108.163 285.565 88.701 284.697 71.3955 277.579C53.282 270.122 37.917 254.001 38.6978 235.843C38.8078 233.465 39.202 231.105 39.8735 228.805C40.1538 227.845 40.4851 226.901 40.84 225.96C43 220.194 46.7986 215.06 51.8452 211.084C56.8918 207.108 63.0044 204.434 69.5544 203.337C76.1044 202.239 82.8555 202.759 89.1136 204.841C95.3718 206.923 100.911 210.493 105.162 215.184C99.9709 196.512 77.6856 186.984 57.6139 181.191C37.5274 175.402 14.9282 169.346 4.6662 152.522C-1.06327 143.16 -1.20123 132.252 2.53733 122.179C2.65115 121.878 2.77069 121.569 2.8992 121.264C7.60772 109.413 17.0288 99.6238 29.2799 93.8534C52.2342 83.4515 80.1265 87.1216 103.646 96.4057C109.939 98.8932 116.016 101.814 121.826 105.142Z" fill="#63DB41"/>
<path d="M56.0352 226.037C74.0773 227.555 91.107 234.346 104.607 245.406C116.105 254.931 124.589 267.113 129.169 280.674C129.435 281.45 129.678 282.224 129.906 283.002C130.361 282.207 130.804 281.395 131.242 280.591C131.524 280.076 131.811 279.553 132.083 279.033C131.771 279.929 131.453 280.835 131.108 281.724C130.741 282.18 130.379 282.628 130.018 283.076C129.992 283.095 129.97 283.129 129.944 283.149C129.799 283.329 129.653 283.51 129.522 283.687C128.897 284.455 128.263 285.218 127.639 285.985L128.165 286.018L129.484 286.095L129.478 286.103C129.035 286.094 128.584 286.081 128.137 286.059C127.975 286.06 127.798 286.063 127.633 286.05C127.578 285.815 127.509 285.583 127.44 285.35C122.766 267.835 111.323 252.461 95.2273 242.067C79.1313 231.673 59.4692 226.963 39.8735 228.805C40.1538 227.845 40.4851 226.901 40.84 225.96C45.8979 225.581 50.9822 225.606 56.0352 226.037Z" fill="white"/>
<path d="M115.981 156.971C123.221 161.936 129.629 167.841 135.002 174.501C137.802 178.051 140.235 181.832 142.269 185.795C143.233 187.634 144.111 189.527 144.901 191.44C145.071 194.785 145.157 198.124 145.16 201.459C144.489 198.938 143.671 196.452 142.71 194.011C142.21 192.671 141.655 191.357 141.066 190.059C134.45 175.514 122.464 164.031 108.329 155.3C93.181 145.958 76.1041 138.945 58.7976 133.73C41.0614 128.361 22.673 125.002 4.04366 123.729C3.62295 123.697 3.23157 123.519 2.95104 123.23C2.67052 122.942 2.52247 122.565 2.53769 122.179C2.52338 121.843 2.65323 121.514 2.89956 121.264C3.03043 121.147 3.18952 121.059 3.36409 121.008C3.53866 120.958 3.72384 120.945 3.90471 120.972C6.20364 121.129 8.49661 121.295 10.7895 121.518C29.8672 123.316 48.6264 127.28 66.6353 133.316C84.0201 139.122 101.226 146.651 115.981 156.971Z" fill="white"/>
<path d="M21.4537 76.5336C24.9754 76.5336 27.8303 73.9206 27.8303 70.6974C27.8303 67.4741 24.9754 64.8611 21.4537 64.8611C17.932 64.8611 15.0771 67.4741 15.0771 70.6974C15.0771 73.9206 17.932 76.5336 21.4537 76.5336Z" fill="#63DB41"/>
<path d="M413.191 124.576H123.732V350.23H413.191V124.576Z" fill="white"/>
<path d="M414.032 351H122.891V123.806H414.032V351ZM124.574 349.46H412.35V125.346H124.574V349.46Z" fill="#3F3D56"/>
<path d="M304.644 168.474H232.279V350.23H304.644V168.474Z" fill="#DC6C41"/>
<path d="M304.644 168.474H232.279V350.23H304.644V168.474Z" fill="#DC6C41"/>
<path opacity="0.2" d="M124.573 141.134V177.745L413.191 194.659L412.34 149.484L124.573 141.134Z" fill="black"/>
<path d="M430.02 103.782H106.903V168.474H430.02V103.782Z" fill="white"/>
<path d="M430.861 169.245H106.062V103.012H430.861V169.245ZM107.744 167.704H429.178V104.552H107.744V167.704Z" fill="#3F3D56"/>
<path d="M304.644 97.6206H232.279V167.704H304.644V97.6206Z" fill="#DC6C41"/>
<path d="M260.713 36.514C279.816 62.4308 261.818 104.114 261.818 104.114C261.818 104.114 212.849 103.778 193.747 77.8615C174.645 51.9447 192.643 10.2612 192.643 10.2612C192.643 10.2612 241.611 10.5972 260.713 36.514Z" fill="#DC6C41"/>
<path d="M269.478 36.514C250.376 62.4308 268.373 104.114 268.373 104.114C268.373 104.114 317.342 103.778 336.444 77.8615C355.546 51.9447 337.548 10.2612 337.548 10.2612C337.548 10.2612 288.58 10.5972 269.478 36.514Z" fill="#DC6C41"/>
<path d="M217.974 56.0325C222.157 56.0325 225.547 52.9292 225.547 49.1012C225.547 45.2731 222.157 42.1698 217.974 42.1698C213.792 42.1698 210.401 45.2731 210.401 49.1012C210.401 52.9292 213.792 56.0325 217.974 56.0325Z" fill="#544160"/>
<path d="M263.413 126.116C267.595 126.116 270.986 123.013 270.986 119.185C270.986 115.357 267.595 112.253 263.413 112.253C259.23 112.253 255.84 115.357 255.84 119.185C255.84 123.013 259.23 126.116 263.413 126.116Z" fill="#544160"/>
<path d="M263.413 277.836C267.595 277.836 270.986 274.732 270.986 270.904C270.986 267.076 267.595 263.973 263.413 263.973C259.23 263.973 255.84 267.076 255.84 270.904C255.84 274.732 259.23 277.836 263.413 277.836Z" fill="#3F3D56"/>
<path d="M238.169 79.1371C240.958 79.1371 243.218 77.0682 243.218 74.5162C243.218 71.9641 240.958 69.8953 238.169 69.8953C235.381 69.8953 233.121 71.9641 233.121 74.5162C233.121 77.0682 235.381 79.1371 238.169 79.1371Z" fill="#3F3D56"/>
<path d="M313.9 39.8594C316.688 39.8594 318.949 37.7905 318.949 35.2385C318.949 32.6864 316.688 30.6176 313.9 30.6176C311.111 30.6176 308.851 32.6864 308.851 35.2385C308.851 37.7905 311.111 39.8594 313.9 39.8594Z" fill="#3F3D56"/>
<path d="M281.083 148.451C283.872 148.451 286.132 146.382 286.132 143.83C286.132 141.278 283.872 139.209 281.083 139.209C278.295 139.209 276.035 141.278 276.035 143.83C276.035 146.382 278.295 148.451 281.083 148.451Z" fill="#3F3D56"/>
<path d="M250.791 208.522C253.579 208.522 255.84 206.453 255.84 203.901C255.84 201.349 253.579 199.28 250.791 199.28C248.003 199.28 245.742 201.349 245.742 203.901C245.742 206.453 248.003 208.522 250.791 208.522Z" fill="#3F3D56"/>
<path d="M276.876 229.316C279.664 229.316 281.925 227.247 281.925 224.695C281.925 222.143 279.664 220.074 276.876 220.074C274.088 220.074 271.827 222.143 271.827 224.695C271.827 227.247 274.088 229.316 276.876 229.316Z" fill="#3F3D56"/>
<path d="M270.986 316.343C273.774 316.343 276.034 314.274 276.034 311.722C276.034 309.17 273.774 307.101 270.986 307.101C268.197 307.101 265.937 309.17 265.937 311.722C265.937 314.274 268.197 316.343 270.986 316.343Z" fill="#3F3D56"/>
<path d="M523.598 230.524H369.582V350.59H523.598V230.524Z" fill="white"/>
<path d="M524.045 351H369.134V230.114H524.045V351ZM370.029 350.18H523.15V230.933H370.029V350.18Z" fill="#3F3D56"/>
<path d="M465.842 253.881H427.338V350.59H465.842V253.881Z" fill="#DC6C41"/>
<path d="M465.842 253.881H427.338V350.59H465.842V253.881Z" fill="#DC6C41"/>
<path opacity="0.2" d="M370.029 239.334V258.814L523.598 267.814L523.145 243.777L370.029 239.334Z" fill="black"/>
<path d="M532.552 219.459H360.627V253.881H532.552V219.459Z" fill="white"/>
<path d="M533 254.291H360.18V219.05H533V254.291ZM361.075 253.471H532.105V219.869H361.075V253.471Z" fill="#3F3D56"/>
<path d="M465.842 216.181H427.338V253.471H465.842V216.181Z" fill="#DC6C41"/>
<path d="M442.467 183.667C452.631 197.457 443.055 219.636 443.055 219.636C443.055 219.636 416.999 219.457 406.835 205.668C396.672 191.878 406.248 169.699 406.248 169.699C406.248 169.699 432.303 169.877 442.467 183.667Z" fill="#DC6C41"/>
<path d="M447.13 183.667C436.967 197.457 446.543 219.636 446.543 219.636C446.543 219.636 472.598 219.457 482.762 205.668C492.926 191.878 483.35 169.699 483.35 169.699C483.35 169.699 457.294 169.877 447.13 183.667Z" fill="#DC6C41"/>
<path d="M419.726 194.053C421.952 194.053 423.756 192.402 423.756 190.365C423.756 188.328 421.952 186.677 419.726 186.677C417.501 186.677 415.697 188.328 415.697 190.365C415.697 192.402 417.501 194.053 419.726 194.053Z" fill="#3F3D56"/>
<path d="M443.904 231.343C446.129 231.343 447.933 229.692 447.933 227.655C447.933 225.618 446.129 223.967 443.904 223.967C441.678 223.967 439.874 225.618 439.874 227.655C439.874 229.692 441.678 231.343 443.904 231.343Z" fill="#3F3D56"/>
<path d="M443.904 312.071C446.129 312.071 447.933 310.419 447.933 308.383C447.933 306.346 446.129 304.694 443.904 304.694C441.678 304.694 439.874 306.346 439.874 308.383C439.874 310.419 441.678 312.071 443.904 312.071Z" fill="#3F3D56"/>
<path d="M430.472 206.346C431.956 206.346 433.158 205.246 433.158 203.888C433.158 202.53 431.956 201.429 430.472 201.429C428.988 201.429 427.786 202.53 427.786 203.888C427.786 205.246 428.988 206.346 430.472 206.346Z" fill="#3F3D56"/>
<path d="M470.767 185.447C472.251 185.447 473.453 184.347 473.453 182.989C473.453 181.631 472.251 180.53 470.767 180.53C469.283 180.53 468.081 181.631 468.081 182.989C468.081 184.347 469.283 185.447 470.767 185.447Z" fill="#3F3D56"/>
<path d="M453.305 243.227C454.789 243.227 455.992 242.126 455.992 240.768C455.992 239.41 454.789 238.309 453.305 238.309C451.822 238.309 450.619 239.41 450.619 240.768C450.619 242.126 451.822 243.227 453.305 243.227Z" fill="#3F3D56"/>
<path d="M437.188 275.19C438.671 275.19 439.874 274.089 439.874 272.731C439.874 271.373 438.671 270.273 437.188 270.273C435.704 270.273 434.501 271.373 434.501 272.731C434.501 274.089 435.704 275.19 437.188 275.19Z" fill="#3F3D56"/>
<path d="M451.067 286.254C452.551 286.254 453.754 285.153 453.754 283.796C453.754 282.438 452.551 281.337 451.067 281.337C449.584 281.337 448.381 282.438 448.381 283.796C448.381 285.153 449.584 286.254 451.067 286.254Z" fill="#3F3D56"/>
<path d="M447.933 332.56C449.417 332.56 450.619 331.459 450.619 330.101C450.619 328.743 449.417 327.642 447.933 327.642C446.449 327.642 445.247 328.743 445.247 330.101C445.247 331.459 446.449 332.56 447.933 332.56Z" fill="#3F3D56"/>
<path d="M258.587 295.273C259.933 292.675 253.695 287.387 244.653 283.462C235.611 279.537 227.19 278.462 225.844 281.06C224.498 283.658 230.736 288.945 239.778 292.87C248.819 296.795 257.241 297.871 258.587 295.273Z" fill="#2F2E41"/>
<path d="M333.209 322.032C335.618 320.186 332.363 312.996 325.938 305.974C319.514 298.951 312.354 294.754 309.945 296.6C307.536 298.446 310.791 305.636 317.216 312.658C323.64 319.681 330.8 323.877 333.209 322.032Z" fill="#2F2E41"/>
<path d="M283.032 336.725C303.047 336.725 319.271 321.875 319.271 303.557C319.271 285.239 303.047 270.389 283.032 270.389C263.018 270.389 246.793 285.239 246.793 303.557C246.793 321.875 263.018 336.725 283.032 336.725Z" fill="#2F2E41"/>
<path d="M298.371 329.588H287.362V347.641H298.371V329.588Z" fill="#2F2E41"/>
<path d="M276.352 329.588H265.343V347.641H276.352V329.588Z" fill="#2F2E41"/>
<path d="M289.196 351C294.263 351 298.371 349.59 298.371 347.851C298.371 346.112 294.263 344.702 289.196 344.702C284.13 344.702 280.022 346.112 280.022 347.851C280.022 349.59 284.13 351 289.196 351Z" fill="#2F2E41"/>
<path d="M267.178 350.58C272.245 350.58 276.352 349.17 276.352 347.431C276.352 345.692 272.245 344.282 267.178 344.282C262.111 344.282 258.003 345.692 258.003 347.431C258.003 349.17 262.111 350.58 267.178 350.58Z" fill="#2F2E41"/>
<path d="M271.654 261.863C274.889 249.936 289.173 242.917 303.557 246.186C317.941 249.455 326.978 261.774 323.742 273.701C320.506 285.629 309.771 285.667 295.387 282.398C281.003 279.129 268.418 273.791 271.654 261.863Z" fill="#E6E6E6"/>
<path d="M277.614 307.616C284.287 307.616 289.696 302.665 289.696 296.558C289.696 290.451 284.287 285.5 277.614 285.5C270.942 285.5 265.532 290.451 265.532 296.558C265.532 302.665 270.942 307.616 277.614 307.616Z" fill="white"/>
<path d="M272.649 296.28C274.873 296.28 276.676 294.63 276.676 292.594C276.676 290.559 274.873 288.908 272.649 288.908C270.425 288.908 268.622 290.559 268.622 292.594C268.622 294.63 270.425 296.28 272.649 296.28Z" fill="#3F3D56"/>
<path d="M285.194 319.597C285.383 320.55 285.366 321.527 285.143 322.474C284.92 323.42 284.495 324.317 283.893 325.113C283.291 325.909 282.524 326.589 281.635 327.113C280.746 327.638 279.753 327.997 278.712 328.171C277.671 328.344 276.604 328.328 275.57 328.124C274.536 327.92 273.556 327.531 272.686 326.98C271.816 326.429 271.074 325.727 270.5 324.913C269.927 324.1 269.534 323.191 269.345 322.238L269.342 322.224C268.55 318.217 271.934 316.8 276.312 316.074C280.689 315.349 284.402 315.591 285.194 319.597Z" fill="white"/>
<path d="M356.299 53.7557C365.548 50.2592 372.074 45.2703 370.875 42.6127C369.676 39.9551 361.205 40.6352 351.956 44.1318C342.707 47.6284 336.181 52.6173 337.381 55.2749C338.58 57.9324 347.05 57.2523 356.299 53.7557Z" fill="#2F2E41"/>
<path d="M445.122 76.6477C447.53 74.8018 444.275 67.6125 437.851 60.5898C431.427 53.5671 424.266 49.3705 421.857 51.2164C419.449 53.0622 422.704 60.2516 429.128 67.2743C435.552 74.2969 442.713 78.4936 445.122 76.6477Z" fill="#2F2E41"/>
<path d="M394.945 91.3412C414.959 91.3412 431.184 76.4913 431.184 58.1729C431.184 39.8546 414.959 25.0046 394.945 25.0046C374.931 25.0046 358.706 39.8546 358.706 58.1729C358.706 76.4913 374.931 91.3412 394.945 91.3412Z" fill="#2F2E41"/>
<path d="M410.284 84.2036H399.274V102.257H410.284V84.2036Z" fill="#2F2E41"/>
<path d="M388.265 84.2036H377.256V102.257H388.265V84.2036Z" fill="#2F2E41"/>
<path d="M401.11 105.616C406.176 105.616 410.284 104.206 410.284 102.467C410.284 100.728 406.176 99.3184 401.11 99.3184C396.043 99.3184 391.935 100.728 391.935 102.467C391.935 104.206 396.043 105.616 401.11 105.616Z" fill="#2F2E41"/>
<path d="M379.091 105.196C384.158 105.196 388.265 103.786 388.265 102.047C388.265 100.308 384.158 98.8984 379.091 98.8984C374.024 98.8984 369.917 100.308 369.917 102.047C369.917 103.786 374.024 105.196 379.091 105.196Z" fill="#2F2E41"/>
<path d="M383.566 16.4794C386.802 4.55207 401.086 -2.4669 415.47 0.802075C429.853 4.07105 438.891 16.3901 435.655 28.3174C432.419 40.2448 421.683 40.2833 407.3 37.0143C392.916 33.7452 380.33 28.4067 383.566 16.4794Z" fill="#DC6C41"/>
<path d="M389.527 62.2325C396.2 62.2325 401.609 57.2815 401.609 51.1742C401.609 45.0668 396.2 40.1158 389.527 40.1158C382.855 40.1158 377.445 45.0668 377.445 51.1742C377.445 57.2815 382.855 62.2325 389.527 62.2325Z" fill="white"/>
<path d="M384.562 56.2875C386.786 56.2875 388.589 54.6372 388.589 52.6014C388.589 50.5656 386.786 48.9153 384.562 48.9153C382.337 48.9153 380.534 50.5656 380.534 52.6014C380.534 54.6372 382.337 56.2875 384.562 56.2875Z" fill="#3F3D56"/>
<path d="M397.107 74.2135C397.489 76.1371 397.021 78.1211 395.806 79.7289C394.59 81.3367 392.726 82.4367 390.625 82.7869C388.523 83.1371 386.355 82.7087 384.599 81.5961C382.842 80.4836 381.64 78.7778 381.258 76.8542L381.255 76.84C380.462 72.8335 383.847 71.4158 388.224 70.6905C392.601 69.9652 396.314 70.2071 397.107 74.2135Z" fill="white"/>
<path d="M84.8894 336.725C104.904 336.725 121.128 321.875 121.128 303.557C121.128 285.238 104.904 270.388 84.8894 270.388C64.8751 270.388 48.6504 285.238 48.6504 303.557C48.6504 321.875 64.8751 336.725 84.8894 336.725Z" fill="#2F2E41"/>
<path d="M79.3848 329.588H68.3755V347.641H79.3848V329.588Z" fill="#2F2E41"/>
<path d="M101.403 329.588H90.394V347.641H101.403V329.588Z" fill="#2F2E41"/>
<path d="M77.5499 351C82.6168 351 86.7244 349.59 86.7244 347.851C86.7244 346.112 82.6168 344.702 77.5499 344.702C72.483 344.702 68.3755 346.112 68.3755 347.851C68.3755 349.59 72.483 351 77.5499 351Z" fill="#2F2E41"/>
<path d="M99.5685 350.58C104.635 350.58 108.743 349.17 108.743 347.431C108.743 345.692 104.635 344.282 99.5685 344.282C94.5016 344.282 90.394 345.692 90.394 347.431C90.394 349.17 94.5016 350.58 99.5685 350.58Z" fill="#2F2E41"/>
<path d="M49.7364 272.711C46.8103 260.717 56.164 248.597 70.6285 245.641C85.093 242.685 99.1909 250.012 102.117 262.006C105.043 274 95.457 278.424 80.9925 281.38C66.528 284.336 52.6626 284.705 49.7364 272.711Z" fill="#DC6C41"/>
<path d="M123.941 289.063C131.789 281.874 136.152 274.219 133.687 271.964C131.221 269.708 122.86 273.708 115.012 280.897C107.163 288.085 102.8 295.741 105.266 297.996C107.731 300.251 116.092 296.252 123.941 289.063Z" fill="#2F2E41"/>
<path d="M55.6793 300.307C58.145 298.052 53.7816 290.396 45.9334 283.207C38.0852 276.018 29.7241 272.019 27.2585 274.274C24.7928 276.529 29.1562 284.185 37.0044 291.373C44.8525 298.562 53.2136 302.562 55.6793 300.307Z" fill="#2F2E41"/>
<path d="M83.3645 310.192C90.2048 310.192 95.75 305.117 95.75 298.856C95.75 292.596 90.2048 287.52 83.3645 287.52C76.5242 287.52 70.979 292.596 70.979 298.856C70.979 305.117 76.5242 310.192 83.3645 310.192Z" fill="white"/>
<path d="M83.3648 302.635C85.645 302.635 87.4934 300.943 87.4934 298.856C87.4934 296.769 85.645 295.078 83.3648 295.078C81.0847 295.078 79.2363 296.769 79.2363 298.856C79.2363 300.943 81.0847 302.635 83.3648 302.635Z" fill="#3F3D56"/>
<path d="M93.1965 319.822C93.3859 320.774 93.3685 321.751 93.1453 322.698C92.9221 323.644 92.4974 324.541 91.8955 325.337C91.2936 326.133 90.5263 326.813 89.6373 327.338C88.7484 327.862 87.7552 328.222 86.7146 328.395C85.6739 328.568 84.6061 328.553 83.5722 328.348C82.5382 328.144 81.5584 327.755 80.6886 327.204C79.8187 326.653 79.076 325.951 78.5027 325.138C77.9295 324.324 77.5369 323.415 77.3475 322.462L77.3446 322.448C76.5522 318.442 79.9366 317.024 84.314 316.299C88.6913 315.573 92.404 315.815 93.1965 319.822Z" fill="white"/>
</g>
<defs>
<clipPath id="clip0">
<rect width="533" height="351" fill="white"/>
</clipPath>
</defs>
</svg>