<svg width="416" height="276" viewBox="0 0 416 276" fill="none" xmlns="http://www.w3.org/2000/svg">
<g clip-path="url(#clip0)">
<path d="M323.814 131.162C323.036 129.306 324.147 128.378 324.592 126.728C325.036 125.078 323.592 119.923 323.592 119.923C323.592 119.923 318.924 102.085 317.48 98.5795C316.868 97.096 315.541 96.0755 314.212 95.3902C314.122 94.9351 313.992 94.6416 313.812 94.5583C312.525 93.9607 309.318 92.6633 307.181 92.3046C306.782 91.6673 306.308 91.0728 305.768 90.5316C306.143 89.8633 306.317 89.1135 306.272 88.3612C306.136 86.4159 304.548 84.6728 304.754 82.7328C304.911 81.2615 306.07 80.0529 306.518 78.634C306.705 77.9967 306.75 77.3304 306.648 76.6765C306.547 76.0227 306.301 75.3951 305.927 74.8329C306.256 75.1574 306.585 75.4819 306.913 75.8064C307.361 75.1845 307.576 74.4439 307.526 73.6978C307.477 72.9516 307.165 72.2412 306.638 71.6751C305.598 70.6083 303.857 70.2081 303.049 68.9795C302.22 67.7171 302.665 66.0016 301.88 64.7145C299.958 61.5615 295.037 63.7966 292.089 62.6961C290.878 62.2438 289.957 61.7461 288.594 61.7818C287.435 61.8435 286.29 62.042 285.185 62.3726C283.6 62.798 282.221 63.7153 281.278 64.9711C281.371 64.8728 281.473 64.7822 281.583 64.7004C282.297 64.181 283.55 64.2243 283.927 64.9901C284.017 65.1825 284.055 65.3926 284.037 65.6018C283.975 66.525 283.106 67.2144 282.242 67.6764C281.379 68.1384 280.407 68.5249 279.843 69.2878C278.913 70.5469 279.46 72.2365 279.46 73.7631C279.453 74.7332 279.211 75.6893 278.752 76.5611C278.293 77.433 277.63 78.1983 276.81 78.8007L279.946 77.6112C278.449 80.0427 277.466 82.7171 277.05 85.4908L281.29 82.2409C279.72 84.5598 278.765 87.1915 278.505 89.9194L281.909 86.684C282.064 86.9367 282.141 87.2239 282.133 87.5146L281.778 88.7846C281.653 89.0367 281.514 89.2827 281.362 89.5217C280.814 90.3942 280.248 91.4682 280.76 92.359L280.763 92.3578C280.224 94.0408 279.41 95.7248 277.601 96.5432C279.608 96.738 281.702 95.807 282.608 94.3253C282.756 94.5919 282.935 94.8429 283.141 95.0738C283.199 95.1415 283.257 95.2087 283.314 95.2759L282.814 95.5852L281.474 96.4142C281.474 96.4142 272.695 98.064 273.25 101.157C273.273 101.284 273.301 101.436 273.331 101.607L270.806 105.591L267.138 117.139C267.138 117.139 265.249 120.851 265.583 122.397C265.916 123.944 265.583 124.563 265.583 127.347C265.583 130.131 264.138 131.265 265.583 133.533C267.027 135.801 271.361 142.4 271.361 142.4L272.313 143.063C272.267 143.461 272.283 143.863 272.361 144.256C273.25 148.381 281.585 187.871 281.585 187.871C281.585 187.871 277.362 219.113 285.919 221.072C286.992 221.318 288.046 221.54 289.07 221.739L290.364 229.63L289.586 239.631C289.586 239.631 283.696 252.004 294.476 252.726C305.255 253.448 300.366 242.003 300.366 242.003C300.935 241.026 301.167 239.91 301.033 238.806C300.923 237.889 299.997 233.112 299.09 228.518C303.181 228.063 302.415 224.035 301.87 222.264C302.106 222.136 302.283 221.932 302.366 221.69C302.489 221.279 302.202 219.661 301.682 217.394C301.259 215.14 300.534 211.491 300.041 209.019L302.699 209.421L313.923 148.381C313.923 148.381 313.997 147.409 313.964 145.988C315.498 145.251 317.081 144.604 318.702 144.05C322.369 142.71 323.814 137.761 325.036 135.698C326.259 133.636 324.592 133.018 323.814 131.162ZM283.963 92.2974C284.326 92.0651 284.752 91.9312 285.192 91.9105C285.097 92.3901 284.208 92.5302 283.463 92.7814C283.599 92.5956 283.768 92.4321 283.963 92.2974ZM278.362 123.016C279.263 124.389 277.633 128.107 276.164 131.059C275.322 130.386 274.443 130.598 275.473 128.687C276.175 127.476 276.592 126.141 276.695 124.769C276.695 124.533 276.826 122.801 277.921 122.081C278.036 122.405 278.184 122.718 278.362 123.016ZM274.99 134.861C275.499 134.669 276.271 134.373 277.313 134.044C276.813 134.652 276.244 135.377 275.67 136.167C275.454 136.015 275.279 135.817 275.161 135.59C275.043 135.363 274.984 135.113 274.99 134.861ZM311.034 136.214C310.358 135.548 309.813 134.952 309.363 134.419C310.201 134.624 311.055 134.844 311.923 135.08C312.356 135.14 312.798 135.112 313.218 135C313.257 135.713 313.257 136.73 313.257 136.73L312.039 137.511C311.762 137.043 311.424 136.607 311.034 136.214V136.214ZM314.483 132.638C314.47 132.649 314.456 132.661 314.442 132.672C314.383 132.264 314.283 131.862 314.146 131.471C313.417 129.34 313.028 125.559 312.821 122.332L314.924 128.893C314.924 128.893 315.035 132.193 314.483 132.638Z" fill="#E4D2E4"/>
<path d="M271.315 105.537C271.315 105.537 259.914 87.3556 259.558 85.3722C259.201 83.3888 253.501 79.7525 253.501 79.7525C251.553 77.9454 248.358 77.3736 244.995 77.4033C246.261 76.4312 241.739 75.7778 241.387 75.1245C241.031 74.4634 239.962 74.4634 238.537 73.4717C237.112 72.4801 233.555 73.3063 233.554 73.3064C233.019 72.2625 232.647 71.1532 232.449 70.0119C233.967 68.3452 234.799 66.2328 234.796 64.0505C234.796 64.0268 234.794 64.0034 234.794 63.9797C234.885 64.1107 234.975 64.2425 235.066 64.3782C235.734 60.6689 236.912 57.5856 234.666 54.2019C233.075 51.8037 230.583 50.0364 227.671 49.2403L225.533 50.8278L226.364 48.9762C225.665 48.8772 224.957 48.8393 224.25 48.8629L222.326 51.1583L223.123 48.9415C221.453 49.134 219.844 49.6454 218.398 50.4435C216.952 51.2416 215.7 52.309 214.721 53.5785C212.271 56.855 212.435 61.4095 214.844 64.7116C214.852 64.6885 214.859 64.6659 214.867 64.6428C214.973 66.1876 215.495 67.683 216.386 68.9919C217.276 70.3009 218.507 71.3817 219.964 72.1353L220.569 76.6266C220.024 77.0957 219.326 77.3817 218.585 77.4386C217.516 77.4386 216.447 80.0831 216.447 80.0831C216.447 80.0831 215.842 80.3668 215.189 81.7058C213.507 82.7681 208.377 86.1052 206.473 88.4372C205.347 88.9514 204.138 90.0949 204.334 92.6447C204.69 97.2727 204.334 118.76 204.334 118.76C204.334 118.76 201.127 136.941 202.196 138.263C203.265 139.585 201.84 143.883 201.84 143.883L202.909 144.103V145.205C202.909 145.205 199.694 159.033 204.69 158.428C212.885 157.436 206.828 146.197 206.828 146.197V144.911L208.253 145.205C208.253 145.205 208.966 140.577 210.391 140.247C210.886 140.132 211.468 138.896 212.016 137.334C212.336 139.771 212.528 141.238 212.528 141.238L214.758 140.779L215.379 142.891C215.532 142.971 215.692 143.038 215.857 143.092L215.379 145.536C215.379 145.536 215.022 148.18 215.379 149.833C215.558 150.667 222.172 168.484 228.684 185.942L228.561 190.162C228.561 190.162 225.355 193.468 226.067 195.782C226.78 198.096 224.286 217.269 224.286 217.269L222.148 226.856L222.686 227.009L222.192 228.689C221.767 228.888 221.389 229.164 221.079 229.5C218.229 232.475 214.666 241.07 214.666 241.07C214.666 241.07 208.253 249.995 218.229 249.665C228.205 249.334 228.917 246.029 228.917 246.029C228.917 246.029 230.343 237.434 230.343 237.103C230.343 236.773 229.63 233.375 229.63 233.375L229.353 233.091L229.546 228.968L231.411 229.5C231.411 229.5 233.193 220.905 234.618 219.914C235.116 219.567 236.441 215.706 237.954 210.747C239.501 214.879 240.998 229.164 241.484 230.461C241.312 230.679 241.16 230.911 241.031 231.153C239.43 234.005 237.645 236.764 235.687 239.417C235.687 239.417 224.286 245.698 235.687 247.351C235.687 247.351 242.1 247.681 245.306 245.698C248.513 243.715 257.064 240.74 257.064 240.078C257.064 239.417 254.926 229.699 252.788 230.756L251.356 227.701L252.788 227.186L243.768 189.62C243.982 188.82 244.138 188.007 244.238 187.187C244.238 185.456 248.851 151.749 250.025 143.199C255.192 144.557 259.914 134.627 259.914 134.627L261.085 132.671L262.764 133.635C262.764 133.635 264.189 130.33 266.327 129.999C268.465 129.668 272.384 112.148 272.384 109.834C272.351 108.349 271.987 106.886 271.315 105.537ZM254.715 131.437C254.365 130.92 253.958 130.438 253.501 129.999C254.432 127.748 255.148 125.425 255.639 123.057C256.351 119.421 254.57 107.52 254.57 107.52L254.539 106.712C256.287 108.842 258.489 111.681 258.489 112.479C258.489 112.864 258.585 113.243 258.771 113.588C258.957 113.932 259.226 114.231 259.558 114.462L257.42 121.404C257.42 121.404 255.995 124.71 255.639 126.363C255.425 127.343 255.306 128.338 255.282 129.338L255.787 129.628L254.715 131.437Z" fill="#E4D2E4"/>
<path d="M108.207 105.655L110.108 105.259L102.27 84.7633L85.3468 78.9783C85.3468 78.9783 85.282 79.045 85.1623 79.16C83.7188 77.8638 83.1061 75.9829 82.8502 74.5024C84.2111 73.9923 85.4339 73.2098 86.4314 72.2107C87.4288 71.2116 88.1762 70.0206 88.6203 68.7226C89.0644 67.4245 89.1943 66.0516 89.0006 64.7017C88.8069 63.3517 88.2944 62.0581 87.4997 60.9131C88.8942 60.6026 89.3921 59.4288 89.8602 58.0291C89.5704 57.9497 89.2748 57.89 88.9757 57.8504C89.195 57.3941 89.4143 56.9378 89.6336 56.4816C89.2482 56.4494 88.8628 56.4173 88.4774 56.3852C88.5759 55.9587 88.6745 55.5322 88.773 55.1056C88.2815 55.4204 87.79 55.7353 87.2985 56.0501C87.4654 55.6023 87.5069 55.1225 87.4191 54.6557C87.3312 54.189 87.1169 53.7506 86.7963 53.3818C86.1436 52.65 85.2923 52.093 84.3302 51.7684C82.4485 51.0815 80.3993 50.889 78.4075 51.212C76.4157 51.535 74.5583 52.361 73.0393 53.5993L72.9328 53.2141C69.9249 55.3595 67.9566 58.5241 67.4598 62.0139C66.9879 65.4635 68.774 68.976 71.0955 71.7058C71.076 71.5867 71.055 71.4678 71.0337 71.3491C71.134 71.4774 71.2376 71.6032 71.3446 71.7265L71.6299 81.7882L70.9152 82.3566C70.9141 82.357 58.9234 87.3903 58.456 93.4022L58.4546 93.4065C57.7349 96.3332 57.3786 111.539 57.3786 111.539H58.3652L57.3786 117.49L50.9655 140.629C50.9655 140.629 42.771 150.546 49.8966 152.53C54.3246 153.762 55.5879 148.996 55.91 145.21C56.1666 146.148 56.9339 146.783 58.4474 146.91C58.5666 146.92 58.6937 146.929 58.8167 146.938C55.4475 155.016 57.7349 181.289 57.7349 181.289C55.9535 184.595 76.9742 207.404 76.9742 207.404L78.2399 206.778L78.5138 207.286C77.8094 207.349 77.3304 207.404 77.3304 207.404V217.652C77.3304 217.652 74.1239 227.9 78.3993 229.883C79.5056 230.396 80.6595 230.023 81.7624 229.189C81.5516 232.352 81.2496 237.071 81.2496 238.147C81.2496 239.8 85.8812 242.775 85.8812 242.775C85.8812 242.775 86.9501 246.411 95.5009 246.411C104.052 246.411 97.6386 236.825 97.6386 236.825L93.0069 227.238C93.0069 227.238 92.6604 227.396 91.6116 226.604L91.9872 222.77L94.0758 222.941L96.926 184.264C96.926 184.264 99.42 149.885 99.7763 144.596C99.8598 142.901 99.8167 141.201 99.6475 139.511L110.108 119.473L108.207 105.655ZM100.489 118.481L99.42 121.937V114.294L100.489 118.481ZM56.0094 142.996C56.0183 141.784 55.9535 140.96 55.9535 140.96L62.9188 128.035L62.7228 132.035C62.7228 132.035 57.1445 138.582 56.0094 142.996ZM72.3425 180.298L79.1119 158.15L83.031 184.926L82.75 194.66C82.2727 193.765 81.8896 192.83 81.6059 191.868C80.537 187.901 72.3425 180.298 72.3425 180.298Z" fill="#E4D2E4"/>
<path d="M168.758 238.91C165.419 237.634 158.939 234.901 158.154 233.444C157.368 231.986 153.441 220.69 153.441 220.69L152.43 220.759C152.299 215.627 151.742 195.739 150.888 193.361C150.888 193.361 155.012 161.841 146.764 149.27L145.278 143.7C145.766 141.467 145.704 136.296 145.39 135.423C144.997 134.33 149.906 130.868 148.532 128.682C147.157 126.496 143.426 119.026 143.426 119.026C143.426 119.026 143.819 114.289 138.517 109.916C138.517 109.916 136.968 101.778 129.986 101.656C129.042 100.128 127.721 97.6979 128.11 96.6159C128.526 95.4574 130.117 91.8457 131.016 89.8241C131.493 89.624 131.952 89.3873 132.387 89.1163C137.94 86.808 141.854 81.259 141.854 74.7766C141.854 67.8374 137.37 61.9647 131.19 59.9955C131.466 59.3224 131.578 58.6014 131.52 57.8835C131.462 57.1656 131.235 56.4683 130.854 55.8408C130.474 55.2133 129.95 54.671 129.318 54.2522C128.687 53.8334 127.965 53.5483 127.202 53.417C126.439 53.2857 125.654 53.3115 124.903 53.4925C124.152 53.6735 123.453 54.0053 122.856 54.4645C122.258 54.9236 121.776 55.499 121.445 56.1498C121.113 56.8007 120.939 57.5112 120.936 58.2311C120.596 57.4837 120.461 56.6699 120.543 55.8623C120.625 55.0547 120.921 54.2784 121.405 53.6028C121.888 52.9271 122.545 52.3732 123.316 51.9903C124.087 51.6075 124.947 51.4077 125.822 51.4088C126.166 51.4092 126.509 51.4406 126.847 51.5026C125.683 50.9889 124.356 50.8867 123.117 51.2152C121.877 51.5436 120.809 52.2802 120.113 53.2869C119.417 54.2936 119.141 55.5013 119.335 56.6836C119.53 57.866 120.183 58.9418 121.171 59.7096C121.232 59.8895 121.305 60.066 121.388 60.2381C115.573 62.4152 111.425 68.1026 111.425 74.7766C111.425 80.9674 114.995 86.3076 120.153 88.7863C120.125 90.8001 119.587 94.1952 116.594 96.2643C115.047 95.6088 112.902 94.8893 111.525 95.2156C110.813 94.7007 109.738 94.5307 108.276 95.8871C105.331 98.62 102.778 105.726 102.778 110.098C102.778 114.471 103.367 139.796 103.367 139.796C103.367 139.796 100.225 140.889 102.385 142.529C102.832 142.874 103.391 143.067 103.972 143.076L106.116 157.833C106.116 157.833 104.742 172.044 110.044 172.227C110.46 172.248 110.873 172.154 111.231 171.956L107.295 188.442C107.295 188.442 98.2618 193.908 91.1925 204.657C87.5515 210.194 85.7362 213.6 84.8294 215.605L83.5342 214.86L79.0178 222.877C79.0178 222.877 69.003 228.525 71.1631 232.715C73.3231 236.906 75.2868 237.999 75.2868 237.999L76.6614 237.452L79.2141 241.825C79.2141 241.825 85.8906 250.752 96.6908 246.198C97.1977 245.566 97.4714 244.799 97.4714 244.011C97.4714 243.224 97.1977 242.457 96.6908 241.825C94.9235 239.456 90.4071 234.355 90.4071 234.355L93.3525 220.508L92.743 220.158L111.418 199.191C111.418 199.191 116.917 196.094 118.88 193.361C120.844 190.628 133.019 162.388 133.019 162.388L139.892 191.904C139.892 191.904 139.499 202.653 141.266 209.576C142.229 213.46 142.858 217.409 143.145 221.385L142.641 221.419L143.819 229.618C143.819 229.618 138.713 241.278 142.248 242.189C144.763 242.792 147.323 243.218 149.906 243.465L150.299 242.189C150.299 242.189 165.419 249.841 170.918 244.193C170.918 244.193 172.096 240.185 168.758 238.91ZM114.953 149.452C115.542 149.999 115.346 152.55 115.346 152.55L114.167 159.655L112.991 164.584C112.828 162.255 112.5 159.939 112.007 157.651L111.464 144.034C111.571 144.097 111.688 144.142 111.811 144.169C112.204 144.169 112.007 141.071 112.007 141.071C112.007 141.071 112.237 140.518 112.523 139.645C113.286 141.766 114.218 143.149 115.346 143.44L115.542 145.808C115.542 145.808 112.989 146.902 115.346 146.902C115.482 146.897 115.618 146.878 115.75 146.846L115.542 147.813C115.542 147.813 114.364 148.906 114.953 149.452Z" fill="#E4D2E4"/>
<path d="M165.401 241.397C252.58 241.397 323.252 240.316 323.252 238.983C323.252 237.65 252.58 236.569 165.401 236.569C78.2218 236.569 7.54932 237.65 7.54932 238.983C7.54932 240.316 78.2218 241.397 165.401 241.397Z" fill="#63DB41"/>
<path d="M220.648 251.456C316.544 251.456 394.283 248.664 394.283 245.22C394.283 241.775 316.544 238.983 220.648 238.983C124.751 238.983 47.0122 241.775 47.0122 245.22C47.0122 248.664 124.751 251.456 220.648 251.456Z" fill="#63DB41"/>
<g filter="url(#filter0_i)">
<path d="M188.601 260.71C235.664 260.71 273.815 257.918 273.815 254.474C273.815 251.029 235.664 248.237 188.601 248.237C141.539 248.237 103.388 251.029 103.388 254.474C103.388 257.918 141.539 260.71 188.601 260.71Z" fill="#63DB41"/>
</g>
<path d="M311.76 265.136C332.717 265.136 349.705 263.695 349.705 261.917C349.705 260.14 332.717 258.699 311.76 258.699C290.804 258.699 273.815 260.14 273.815 261.917C273.815 263.695 290.804 265.136 311.76 265.136Z" fill="#63DB41"/>
<path d="M113.145 262.32C123.085 262.32 131.142 260.879 131.142 259.101C131.142 257.323 123.085 255.882 113.145 255.882C103.206 255.882 95.1484 257.323 95.1484 259.101C95.1484 260.879 103.206 262.32 113.145 262.32Z" fill="#63DB41"/>
<path d="M202.045 222.687L203.78 233.953L212.453 233.149L211.585 221.48L202.045 222.687Z" fill="#FFB8B8"/>
<path d="M160.847 222.687L159.113 233.953L150.439 233.149L151.307 221.48L160.847 222.687Z" fill="#FFB8B8"/>
<path d="M148.271 106.004C148.271 106.004 140.466 114.453 142.2 127.731C143.935 141.009 146.97 171.186 146.97 171.186L149.139 224.699L163.016 223.895L165.184 178.428L172.123 141.813L190.77 184.463C190.77 184.463 199.877 224.297 200.31 224.297C200.744 224.297 213.32 223.09 213.32 223.09L207.249 176.014C207.249 176.014 197.708 107.613 192.071 106.406C186.433 105.199 148.271 106.004 148.271 106.004Z" fill="#2F2E41"/>
<path d="M213.32 231.539C213.32 231.539 205.514 226.711 202.478 232.344C199.443 237.977 202.045 242.001 202.045 242.001C202.045 242.001 204.647 243.61 203.346 245.22C202.045 246.829 201.611 257.29 212.886 255.681C224.161 254.071 218.524 243.208 218.524 243.208L213.32 231.539Z" fill="#2F2E41"/>
<path d="M149.572 231.539C149.572 231.539 157.378 226.711 160.414 232.344C163.449 237.977 160.847 242.001 160.847 242.001C160.847 242.001 158.245 243.61 159.546 245.22C160.847 246.829 161.281 257.29 150.006 255.681C138.731 254.071 144.368 243.208 144.368 243.208L149.572 231.539Z" fill="#2F2E41"/>
<path d="M158.896 27.7448C158.896 27.7448 162.799 37.8038 159.763 43.4368C156.728 49.0698 164.534 55.5075 164.534 55.5075C164.534 55.5075 184.915 45.8509 182.313 41.0226C179.712 36.1943 175.375 29.7566 176.242 25.733L158.896 27.7448Z" fill="#FFB8B8"/>
<path d="M166.485 31.5672C174.149 31.5672 180.362 25.8027 180.362 18.6917C180.362 11.5808 174.149 5.81625 166.485 5.81625C158.821 5.81625 152.608 11.5808 152.608 18.6917C152.608 25.8027 158.821 31.5672 166.485 31.5672Z" fill="#FFB8B8"/>
<path d="M156.511 42.8332C156.511 42.8332 170.435 53.5836 180.819 38.3506L191.637 44.0403L197.274 105.199C197.274 105.199 165.617 122.098 150.439 107.613L152.608 50.8804L156.511 42.8332Z" fill="#FCFAFC"/>
<path d="M160.883 36.811L141.333 48.8685L148.271 78.643L139.165 124.914L153.909 104.394L160.883 36.811Z" fill="#5E5E96"/>
<path d="M178.162 33.4549L182.964 36.3955L202.479 42.8333L199.443 92.7257L207.682 124.914L195.974 130.547C195.974 130.547 193.805 115.258 180.362 107.613C166.919 99.9682 175.095 35.7449 178.162 33.4549Z" fill="#5E5E96"/>
<path d="M145.669 111.637L151.307 115.258C151.307 115.258 144.151 122.299 142.85 121.092C142.474 120.757 142.182 120.348 141.994 119.896C141.807 119.444 141.729 118.96 141.766 118.477L140.465 115.66L145.669 111.637Z" fill="#FFB8B8"/>
<path d="M183.146 110.854L181.229 113.648C181.229 113.648 175.592 116.062 176.893 117.672C178.194 119.281 189.035 122.903 191.203 119.281L193.372 115.66L183.146 110.854Z" fill="#FFB8B8"/>
<path d="M143.935 48.4662L140.899 48.8686L135.912 78.8443C135.912 78.8443 133.96 84.2761 136.129 97.1516C138.297 110.027 140.444 118.411 140.444 118.411L150.006 112.039L145.669 101.578L151.307 63.3535L143.935 48.4662Z" fill="#5E5E96"/>
<path d="M195.54 42.0285L202.479 42.8333C202.479 42.8333 210.284 50.4781 211.585 58.5252C212.886 66.5724 212.453 89.5068 212.453 89.5068L192.505 118.879L181.663 111.637L196.841 86.6903L189.469 56.9158L195.54 42.0285Z" fill="#5E5E96"/>
<path d="M179.718 7.04617C177.62 3.88447 174.335 1.55464 170.496 0.505088L167.677 2.59788L168.773 0.156873C167.851 0.0263953 166.918 -0.023635 165.986 0.00743796L163.45 3.03368L164.499 0.111097C162.298 0.364909 160.178 1.03915 158.271 2.09131C156.365 3.14346 154.714 4.55071 153.423 6.22431C150.194 10.5439 149.649 16.551 152.825 20.9043C153.697 18.4187 154.755 16.0864 155.626 13.6007C156.311 13.6874 157.006 13.6905 157.692 13.6101L158.752 11.314L159.049 13.513C162.336 13.2472 167.212 12.6638 170.328 12.1293L170.025 10.4424L171.838 11.8442C172.793 11.6402 173.36 11.4553 173.313 11.314C175.631 14.7808 177.928 16.9952 180.245 20.4621C181.125 15.5719 182.678 11.5071 179.718 7.04617Z" fill="#2F2E41"/>
<path d="M178.95 20.0304C179.468 20.0304 179.889 19.25 179.889 18.2872C179.889 17.3245 179.468 16.544 178.95 16.544C178.431 16.544 178.01 17.3245 178.01 18.2872C178.01 19.25 178.431 20.0304 178.95 20.0304Z" fill="#FFB8B8"/>
<path d="M393.98 190.634C394.53 231.218 383.535 246.091 369.736 246.96C369.416 246.981 369.097 246.993 368.779 246.998C368.139 247.008 367.505 246.985 366.878 246.929C354.398 245.811 344.52 231.525 344.009 193.782C343.48 154.722 365.96 103.972 367.646 100.218L367.649 100.215C367.713 100.072 367.746 100 367.746 100C367.746 100 393.431 150.053 393.98 190.634Z" fill="#63DB41"/>
<path d="M368.217 242.789L379.562 223.664L368.24 244.846L368.264 246.998C367.435 247.005 366.615 246.99 365.803 246.951L366.366 219.289L366.35 219.075L366.371 219.034L366.425 216.42L354 195.972L366.41 214.464L366.454 215.016L366.879 194.116L356.148 172.916L366.91 190.444L366.797 147.144L366.798 147L366.801 147.142L367.514 181.268L377.295 167.406L367.546 184.208L367.759 202.903L376.759 184.657L367.792 205.651L367.911 216.047L381 190.631L367.951 219.673L368.217 242.789Z" fill="#3F3D56"/>
<path d="M42.9878 192.987C43.3285 226.117 36.5115 238.258 27.9564 238.968C27.7577 238.984 27.5599 238.994 27.3629 238.998C26.9662 239.007 26.5733 238.988 26.1843 238.942C18.447 238.03 12.3226 226.367 12.0057 195.556C11.6778 163.671 25.615 122.243 26.6607 119.178L26.6625 119.175C26.7022 119.058 26.7226 119 26.7226 119C26.7226 119 42.6471 159.86 42.9878 192.987Z" fill="#63DB41"/>
<path d="M28.0575 236.136L36.8819 223.132L28.0755 237.535L28.0939 238.999C27.4497 239.004 26.8118 238.993 26.1801 238.967L26.6177 220.156L26.6057 220.011L26.6219 219.983L26.6638 218.206L17 204.301L26.6524 216.875L26.6866 217.251L27.0172 203.039L18.6703 188.623L27.041 200.542L26.9536 171.098L26.9538 171L26.9566 171.096L27.5107 194.302L35.1179 184.876L27.5356 196.301L27.7017 209.014L34.7018 196.607L27.7274 210.883L27.8198 217.952L38 200.669L27.8508 220.418L28.0575 236.136Z" fill="#3F3D56"/>
<path d="M415.962 20.5955C415.974 20.5589 415.987 20.5217 416 20.4849C415.994 20.501 415.988 20.5165 415.982 20.5327L415.962 20.5955Z" fill="#2F2E41"/>
<path d="M256 274C265.389 274 273 272.881 273 271.5C273 270.119 265.389 269 256 269C246.611 269 239 270.119 239 271.5C239 272.881 246.611 274 256 274Z" fill="#63DB41"/>
<path d="M262.365 266.223C263.123 265.559 263.675 264.663 263.947 263.654C264.154 262.638 263.749 261.436 262.84 261.041C261.823 260.624 260.737 261.382 259.914 262.145C259.092 262.909 258.146 263.783 257.072 263.618C257.625 263.078 258.039 262.394 258.274 261.631C258.509 260.869 258.556 260.054 258.41 259.266C258.363 258.94 258.235 258.633 258.038 258.379C257.472 257.731 256.452 258.006 255.774 258.516C253.626 260.14 253.026 263.277 253.014 266.094C252.799 265.078 252.981 264.018 252.977 262.988C252.973 261.959 252.704 260.77 251.882 260.224C251.375 259.931 250.805 259.788 250.229 259.807C249.266 259.767 248.188 259.874 247.531 260.633C246.705 261.573 246.924 263.153 247.634 264.182C248.345 265.211 249.432 265.872 250.432 266.586C251.232 267.099 251.914 267.798 252.427 268.632C252.489 268.748 252.539 268.872 252.576 269H258.633C259.988 268.259 261.243 267.325 262.365 266.223V266.223Z" fill="#63DB41"/>
<path d="M83 270C92.9411 270 101 268.433 101 266.5C101 264.567 92.9411 263 83 263C73.0589 263 65 264.567 65 266.5C65 268.433 73.0589 270 83 270Z" fill="#63DB41"/>
<path d="M88.3646 259.96C89.1232 258.995 89.6752 257.692 89.9471 256.224C90.1537 254.746 89.7488 252.997 88.8397 252.423C87.8233 251.816 86.7366 252.92 85.9144 254.03C85.0921 255.14 84.1459 256.411 83.0716 256.172C83.6252 255.387 84.0394 254.391 84.274 253.282C84.5086 252.173 84.5555 250.988 84.4103 249.842C84.3633 249.367 84.2348 248.921 84.0385 248.551C83.4724 247.609 82.4518 248.009 81.7742 248.751C79.6256 251.113 79.0265 255.675 79.0141 259.773C78.7992 258.295 78.981 256.753 78.9769 255.256C78.9727 253.759 78.7042 252.029 77.8819 251.236C77.3748 250.809 76.8047 250.6 76.2292 250.629C75.2664 250.571 74.188 250.726 73.531 251.829C72.7046 253.197 72.9236 255.495 73.6343 256.992C74.345 258.489 75.4317 259.45 76.4316 260.489C77.2315 261.234 77.9137 262.251 78.4273 263.464C78.4892 263.634 78.5391 263.814 78.5761 264H84.6335C85.9882 262.923 87.2433 261.564 88.3646 259.96V259.96Z" fill="#63DB41"/>
</g>
<defs>
<filter id="filter0_i" x="103.388" y="233.237" width="170.427" height="27.4731" filterUnits="userSpaceOnUse" color-interpolation-filters="sRGB">
<feFlood flood-opacity="0" result="BackgroundImageFix"/>
<feBlend mode="normal" in="SourceGraphic" in2="BackgroundImageFix" result="shape"/>
<feColorMatrix in="SourceAlpha" type="matrix" values="0 0 0 0 0 0 0 0 0 0 0 0 0 0 0 0 0 0 127 0" result="hardAlpha"/>
<feOffset dy="-20"/>
<feGaussianBlur stdDeviation="7.5"/>
<feComposite in2="hardAlpha" operator="arithmetic" k2="-1" k3="1"/>
<feColorMatrix type="matrix" values="0 0 0 0 0 0 0 0 0 0 0 0 0 0 0 0 0 0 0.2 0"/>
<feBlend mode="normal" in2="shape" result="effect1_innerShadow"/>
</filter>
<clipPath id="clip0">
<rect width="416" height="276" fill="white"/>
</clipPath>
</defs>
</svg>