<svg width="206" height="181" viewBox="0 0 206 181" fill="none" xmlns="http://www.w3.org/2000/svg">
<g clip-path="url(#clip0)">
<path d="M131.979 144.547L133.959 148.807C132.35 148.561 130.853 149.88 130.82 151.574C130.786 153.267 132.221 155.029 133.831 155.27C133.523 156.585 132.196 157.165 131.044 157.696C129.892 158.228 128.65 159.109 128.736 160.51C128.805 161.635 129.774 162.628 130.804 163.028C131.833 163.427 132.913 163.366 133.956 163.299C132.376 164.885 132.222 167.866 133.61 170.005C134.997 172.144 137.768 173.197 139.843 172.373C138.377 174.123 138.695 177.328 140.515 179.134C142.349 180.955 145.007 181.131 147.33 180.939C153.247 180.459 158.886 178.315 163.539 174.775C165.316 173.42 166.975 171.827 167.988 169.749C169.002 167.671 169.3 165.04 168.356 162.675C168.611 165.637 171.701 167.977 174.48 168.108C177.259 168.239 179.686 166.736 181.748 165.023C184.491 162.745 187.03 159.551 186.654 155.61C186.467 153.659 185.579 151.783 184.709 149.966L183.02 146.443C182.339 145.02 181.642 143.574 180.616 142.38C179.59 141.186 178.166 140.262 176.741 140.271C177.067 138.843 177.395 137.361 177.122 135.844C176.848 134.326 175.803 132.754 174.381 132.399C172.572 131.947 171.038 133.549 169.219 133.398C167.468 133.253 166.02 131.566 164.32 130.898C163.62 130.607 162.847 130.519 162.095 130.644C161.344 130.769 160.646 131.101 160.089 131.6C159.011 132.61 158.561 134.317 158.948 135.931C159.287 137.345 160.189 138.592 160.736 139.956C161.283 141.32 161.368 143.074 160.317 143.819C159.049 144.718 157.118 143.495 156.127 142.015C155.136 140.535 154.567 138.743 153.314 137.499C151.835 136.03 149.52 135.686 147.997 136.708C146.474 137.731 145.891 140.021 146.659 141.967C147.287 143.558 148.725 145.168 148.226 146.667C147.699 148.251 145.393 148.05 144.001 146.931C142.61 145.812 141.686 144.126 140.312 142.981C138.916 141.819 137.094 141.309 135.494 141.635C134.682 141.815 133.931 142.189 133.31 142.722C132.689 143.255 132.217 143.929 131.939 144.683" fill="#E1E2E6"/>
<path d="M164.029 132.577L159.922 134.408C159.304 134.7 158.604 134.791 157.928 134.666C157.332 134.53 156.929 134.181 156.823 133.706L155.867 129.422C155.687 128.614 156.384 127.658 157.525 127.149L159.794 126.137C160.935 125.628 162.146 125.734 162.673 126.387L165.468 129.851C165.778 130.235 165.797 130.756 165.52 131.281C165.184 131.857 164.66 132.312 164.029 132.577Z" fill="#6D7082"/>
<path d="M36.6703 53.4018C40.5317 43.2594 46.5576 34.0026 54.3621 26.2243C60.9835 19.6276 71.2888 19.9017 71.2888 19.9017L71.3476 19.8316C73.8278 16.8964 77.156 14.7294 80.9147 13.6026C84.6733 12.4758 88.695 12.4393 92.4751 13.4976C93.4577 13.7682 94.2135 13.8882 94.5729 13.7677C101.126 11.5666 100.818 6.59864 106.472 2.59649C116.372 -4.41106 149.208 3.61595 153.838 16.5107C157.59 26.9615 174.342 32.027 180.6 40.021C181.579 41.271 182.539 42.5355 183.48 43.8144C183.922 44.4086 184.358 45.0072 184.79 45.6104C189.224 51.7726 193.202 58.226 196.694 64.9229C198.984 69.2983 200.974 73.8123 202.652 78.4363C209.179 96.7469 206.947 110.389 188.951 107.019C186.82 106.619 184.741 106.261 182.713 105.945C179.777 105.485 176.943 105.107 174.211 104.811C170.532 104.41 167.033 104.147 163.712 104.022C162.595 103.979 161.499 103.95 160.423 103.935C144.519 103.724 132.722 106.596 123.735 111.056C122.212 111.81 120.768 112.607 119.404 113.449C117.321 114.727 115.332 116.141 113.451 117.681C110.848 119.825 108.447 122.185 106.278 124.735L106.158 124.875C95.6468 137.214 92.1873 150.875 84.8753 153.28C53.6184 163.563 33.8497 126.286 31.8224 89.82C31.72 87.9825 31.6635 86.1502 31.6528 84.3232C31.6464 83.5065 31.6506 82.692 31.6653 81.8797C31.6974 79.7605 31.7947 77.6549 31.9578 75.5748C32.0187 74.7795 32.0893 73.9884 32.1696 73.2016C32.2582 72.353 32.3545 71.5095 32.4658 70.6713C33.261 64.5271 34.652 58.6813 36.6703 53.4018Z" fill="#544160"/>
<path d="M133.551 73.4649C131.055 74.5802 131.014 79.576 131.796 81.1947L133.215 84.1246L142.257 80.093L140.838 77.1631C140.054 75.545 136.049 72.3534 133.551 73.4649Z" fill="#6D7082"/>
<path d="M109.253 115.53C109.094 115.53 108.937 115.494 108.796 115.423C108.655 115.353 108.534 115.25 108.443 115.125C108.352 115 108.293 114.856 108.273 114.704C108.252 114.553 108.27 114.399 108.324 114.256C108.368 114.138 108.436 114.031 108.524 113.939C108.612 113.847 108.718 113.773 108.836 113.721L155.531 92.9007C155.649 92.8481 155.776 92.8184 155.906 92.8131C156.035 92.8078 156.165 92.8271 156.287 92.8699C156.409 92.9126 156.521 92.978 156.616 93.0623C156.712 93.1466 156.789 93.2481 156.844 93.3611C156.954 93.5893 156.965 93.8501 156.875 94.0863C156.785 94.3226 156.601 94.5149 156.364 94.6212H156.364L109.669 115.441C109.539 115.5 109.397 115.53 109.253 115.53Z" fill="#3F3D56"/>
<path d="M145.779 81.9617L132.431 87.9131L153.369 131.161L166.716 125.21L145.779 81.9617Z" fill="#E6E6E6"/>
<path d="M95.6736 27.5194C93.1773 28.6347 93.1362 33.6304 93.9189 35.2491L95.3374 38.179L104.379 34.1474L102.961 31.2175C102.176 29.5995 98.1716 26.4078 95.6736 27.5194Z" fill="#6D7082"/>
<path d="M151.604 137.548L147.497 139.38C146.88 139.672 146.179 139.763 145.503 139.638C144.907 139.502 144.504 139.153 144.398 138.677L143.442 134.394C143.262 133.586 143.959 132.629 145.101 132.121L147.369 131.109C148.51 130.6 149.721 130.705 150.248 131.359L153.043 134.823C153.353 135.207 153.372 135.728 153.095 136.252C152.759 136.829 152.235 137.284 151.604 137.548Z" fill="#6D7082"/>
<path d="M138.976 143.561L134.869 145.392C134.252 145.685 133.551 145.776 132.875 145.65C132.279 145.515 131.876 145.165 131.77 144.69L130.814 140.406C130.634 139.598 131.331 138.642 132.473 138.133L134.741 137.122C135.882 136.613 137.093 136.718 137.62 137.372L140.415 140.835C140.725 141.219 140.744 141.741 140.467 142.265C140.131 142.842 139.607 143.297 138.976 143.561Z" fill="#6D7082"/>
<path d="M111.463 43.3725L98.1152 49.324L140.438 136.745L153.786 130.793L111.463 43.3725Z" fill="#E6E6E6"/>
<path d="M125.312 88.4379L123.814 85.2752L124.677 84.8936L126.17 88.0462L147.791 134.053L146.93 134.437" fill="#3F3D56"/>
<path d="M142.204 85.809L140.707 82.6463L141.569 82.2646L143.062 85.4173L164.683 131.424L163.822 131.808" fill="#3F3D56"/>
<path d="M117.763 50.3688L99.6776 58.4327C98.5262 56.7136 95.0551 47.904 95.8345 45.2903L95.2495 42.7977L107.737 37.2297L109.408 39.203C111.89 39.9336 116.72 48.2082 117.763 50.3688Z" fill="#E6E6E6"/>
<path d="M108.259 37.3363L95.3725 43.0822C94.8968 43.2942 94.3903 43.2163 94.2411 42.908C94.2197 42.8636 94.2064 42.8159 94.2018 42.7672L93.5348 35.9391C93.5063 35.6467 93.7669 35.3154 94.1651 35.1378L102.711 31.3274C103.109 31.1498 103.541 31.1723 103.756 31.3818L108.763 36.2745C109.019 36.5248 108.88 36.9531 108.452 37.2313C108.391 37.2712 108.326 37.3063 108.259 37.3363Z" fill="#E6E6E6"/>
<path d="M118.366 90.8316C118.227 90.8319 118.088 90.8162 117.952 90.7847C117.761 90.7467 117.581 90.6672 117.427 90.5523C117.273 90.4374 117.148 90.2902 117.062 90.1219L109.184 73.8485C108.858 73.1748 109.296 72.3133 110.16 71.928L121.696 66.7842C122.56 66.3986 123.528 66.6335 123.855 67.3071L131.733 83.5806C131.812 83.752 131.849 83.9384 131.841 84.1256C131.833 84.3127 131.78 84.4957 131.687 84.6604C131.485 85.0333 131.157 85.3296 130.757 85.5011L119.221 90.6448C118.954 90.7659 118.662 90.8296 118.366 90.8316Z" fill="#6D7082"/>
<path d="M119.944 93.2951L106.596 99.2466L127.534 142.495L140.881 136.543L119.944 93.2951Z" fill="#E6E6E6"/>
<path d="M103.499 38.0497L99.5851 39.795C98.8298 40.1318 97.8107 39.5706 97.3138 38.5442C96.8169 37.5177 97.0272 36.4084 97.7825 36.0716L101.697 34.3263C102.452 33.9895 103.471 34.5507 103.968 35.5772C104.465 36.6036 104.255 37.7129 103.499 38.0497Z" fill="#6D7082"/>
<path d="M107.976 84.6822C105.48 85.7975 105.439 90.7932 106.222 92.412L107.64 95.3419L116.682 91.3103L115.264 88.3803C114.479 86.7623 110.474 83.5706 107.976 84.6822Z" fill="#6D7082"/>
<path d="M66.5106 74.7103C65.629 75.274 64.7267 73.9324 65.6253 73.3937C66.5068 72.83 67.4091 74.1717 66.5106 74.7103Z" fill="#E6E6E6"/>
<path d="M158.277 55.4318C157.396 55.9955 156.493 54.6538 157.392 54.1151C158.273 53.5514 159.176 54.8931 158.277 55.4318Z" fill="#E6E6E6"/>
<path d="M95.7299 70.767C94.8483 71.3307 93.9459 69.989 94.8445 69.4503C95.726 68.8866 96.6284 70.2283 95.7299 70.767Z" fill="#E6E6E6"/>
<path d="M66.5106 123.345C65.629 123.908 64.7267 122.567 65.6253 122.028C66.5068 121.464 67.4091 122.806 66.5106 123.345Z" fill="#E6E6E6"/>
<path d="M111.481 13.5888C110.599 14.1525 109.697 12.8108 110.595 12.2721C111.477 11.7084 112.379 13.0501 111.481 13.5888Z" fill="#E6E6E6"/>
<path d="M68.1088 39.4393C67.2272 40.0031 66.3249 38.6614 67.2234 38.1227C68.1049 37.559 69.0073 38.9007 68.1088 39.4393Z" fill="#E6E6E6"/>
<path d="M130.491 32.0284L129.93 31.9103L130.053 31.3719L129.679 31.2932L129.556 31.8317L128.995 31.7138L128.913 32.0727L129.474 32.1908L129.351 32.729L129.725 32.8077L129.848 32.2692L130.409 32.3873L130.491 32.0284Z" fill="#E6E6E6"/>
<path d="M39.1586 76.89L38.5978 76.7719L38.7206 76.2337L38.3467 76.155L38.2236 76.6933L37.6625 76.5754L37.5806 76.9343L38.1417 77.0524L38.0189 77.5908L38.3928 77.6693L38.5158 77.131L39.0767 77.2489L39.1586 76.89Z" fill="#E6E6E6"/>
<path d="M154.184 99.774C153.717 99.9815 153.184 100.003 152.701 99.8334C152.217 99.6639 151.824 99.3174 151.607 98.8699L149.298 94.1016C149.082 93.6539 149.06 93.1421 149.237 92.6787C149.414 92.2154 149.775 91.8383 150.241 91.6304C150.708 91.4225 151.241 91.4007 151.724 91.5698C152.207 91.739 152.6 92.0852 152.818 92.5324L155.126 97.3007C155.342 97.7486 155.365 98.2606 155.188 98.7243C155.011 99.188 154.65 99.5655 154.184 99.774Z" fill="#6D7082"/>
<path d="M114.921 117.3C114.454 117.507 113.921 117.529 113.437 117.359C112.954 117.19 112.561 116.843 112.344 116.396L110.035 111.628C109.819 111.18 109.797 110.668 109.974 110.205C110.151 109.741 110.512 109.364 110.978 109.156C111.445 108.948 111.978 108.927 112.461 109.096C112.944 109.265 113.337 109.611 113.554 110.058L115.863 114.827C116.079 115.275 116.101 115.786 115.925 116.25C115.748 116.714 115.387 117.091 114.921 117.3Z" fill="#6D7082"/>
<path d="M150.628 89.356L135.149 96.2576C134.164 94.7862 131.193 87.2465 131.86 85.0095L132.188 82.507L141.43 78.1555L143.478 79.7997C146.363 78.8635 150.604 85.7252 150.628 89.356Z" fill="#E6E6E6"/>
<path d="M143.442 88.8774L139.527 90.6227C138.772 90.9595 137.623 90.1292 136.966 88.7722C136.309 87.4151 136.389 86.0367 137.144 85.6999L141.058 83.9546C141.814 83.6178 142.963 84.4481 143.62 85.8052C144.277 87.1622 144.197 88.5406 143.442 88.8774Z" fill="#6D7082"/>
<path d="M110.246 97.8581L108.748 94.6953L109.61 94.3137L111.103 97.4664L132.725 143.473L131.863 143.857" fill="#3F3D56"/>
<path d="M125.053 100.573L109.575 107.475C107.291 106.343 103.801 98.9395 106.285 96.2268L106.613 93.7243L115.855 89.3728L117.903 91.0169C120.026 91.6422 124.16 98.7241 125.053 100.573Z" fill="#E6E6E6"/>
<path d="M117.548 99.4368L113.634 101.182C112.879 101.519 111.801 100.836 111.232 99.6605C110.663 98.4848 110.814 97.254 111.57 96.9172L115.484 95.1719C116.239 94.8351 117.317 95.5178 117.886 96.6935C118.455 97.8692 118.304 99.1 117.548 99.4368Z" fill="#6D7082"/>
<path d="M39.1017 67.4407C52.0873 67.4407 62.6141 57.3382 62.6141 44.8761C62.6141 32.414 52.0873 22.3115 39.1017 22.3115C26.1162 22.3115 15.5894 32.414 15.5894 44.8761C15.5894 57.3382 26.1162 67.4407 39.1017 67.4407Z" fill="#DC6C41"/>
<path opacity="0.3" d="M135.506 68.3782L149.794 28.3296L134.105 67.8988C134.027 67.9927 133.974 68.103 133.95 68.2206C133.925 68.3382 133.931 68.4596 133.965 68.5748C133.999 68.6901 134.062 68.7958 134.147 68.8832C134.233 68.9706 134.339 69.0372 134.456 69.0774C134.574 69.1177 134.7 69.1304 134.824 69.1146C134.948 69.0988 135.066 69.0549 135.168 68.9866C135.271 68.9182 135.355 68.8273 135.414 68.7215C135.472 68.6157 135.504 68.498 135.506 68.3782H135.506Z" fill="#F0F0F0"/>
<path d="M171.928 44.5064C169.131 45.3985 166.03 46.2749 162.625 47.1355C145.015 51.5851 121.41 55.0559 96.1593 56.9089C70.9085 58.7619 47.0282 58.7753 28.9177 56.9471C20.0955 56.0564 13.1176 54.7754 8.17801 53.1394C2.94835 51.4075 0.200414 49.3205 0.0104245 46.9366C-0.359551 42.2923 9.18997 38.2047 17.2662 35.5934L17.4849 36.2162C6.39412 39.8022 0.430794 43.5917 0.693356 46.8865C1.02762 51.0831 11.3411 54.5117 28.9893 56.2935C47.06 58.1177 70.8962 58.1037 96.1072 56.2537C121.318 54.4036 144.879 50.9396 162.451 46.4999C179.611 42.1643 189.262 37.2705 188.928 33.0738C188.65 29.5895 181.493 26.6089 168.776 24.6806L168.883 24.0315C178.123 25.4326 189.221 28.13 189.611 33.0237C189.8 35.4077 187.415 37.8713 182.521 40.3461C179.73 41.7567 176.185 43.1485 171.928 44.5064Z" fill="#3F3D56"/>
<path d="M178.837 84.5271C180.186 84.5271 181.28 83.4774 181.28 82.1825C181.28 80.8876 180.186 79.8379 178.837 79.8379C177.487 79.8379 176.394 80.8876 176.394 82.1825C176.394 83.4774 177.487 84.5271 178.837 84.5271Z" fill="#FF6584"/>
<path d="M194.36 148.058C195.709 148.058 196.803 147.009 196.803 145.714C196.803 144.419 195.709 143.369 194.36 143.369C193.01 143.369 191.917 144.419 191.917 145.714C191.917 147.009 193.01 148.058 194.36 148.058Z" fill="#F2F2F2"/>
<path d="M111.039 162.334C113.67 162.334 115.802 160.287 115.802 157.763C115.802 155.238 113.67 153.192 111.039 153.192C108.408 153.192 106.276 155.238 106.276 157.763C106.276 160.287 108.408 162.334 111.039 162.334Z" fill="#F2F2F2"/>
<path d="M74.7434 101.834C76.0927 101.834 77.1865 100.784 77.1865 99.4891C77.1865 98.1942 76.0927 97.1445 74.7434 97.1445C73.3941 97.1445 72.3003 98.1942 72.3003 99.4891C72.3003 100.784 73.3941 101.834 74.7434 101.834Z" fill="#6D7082"/>
<path d="M156.877 104.885L167.418 107.504L173.883 119.69L162.953 120.102L156.877 104.885Z" fill="#E6E6E6"/>
<path d="M132.547 87.3169L138.348 92.8875L153.083 123.46L150.37 125.71L132.547 87.3169Z" fill="#CCCCCC"/>
<path d="M119.933 92.3667L120.388 100.231L134.295 131.158L137.851 130.719L119.933 92.3667Z" fill="#CCCCCC"/>
<path d="M119.553 124.135L113.876 133.052L118.061 146.124L126.213 139.125L119.553 124.135Z" fill="#E6E6E6"/>
<path d="M169.701 129.614C166.753 129.614 163.523 129.507 160.009 129.293C141.835 128.186 118.294 124.335 93.7233 118.451C69.1522 112.567 46.4862 105.352 29.9008 98.1354C21.8215 94.62 15.6207 91.2924 11.4709 88.2448C7.07724 85.0185 5.15541 82.2063 5.75853 79.8865C6.93368 75.3673 17.3392 74.3786 25.8614 74.345L25.8643 75.0022C14.161 75.0483 7.2567 76.8395 6.42308 80.0457C5.36117 84.1293 14.0216 90.5044 30.1836 97.5368C46.7325 104.737 69.3569 111.939 93.8891 117.814C118.421 123.688 141.919 127.532 160.052 128.638C177.762 129.717 188.528 127.994 189.59 123.91C190.472 120.52 184.66 115.525 173.225 109.846L173.54 109.263C181.848 113.389 191.493 119.307 190.255 124.07C189.651 126.389 186.578 128.005 181.12 128.872C178.009 129.366 174.187 129.614 169.701 129.614Z" fill="#3F3D56"/>
</g>
<defs>
<clipPath id="clip0">
<rect width="206" height="181" fill="white"/>
</clipPath>
</defs>
</svg>
