<svg width="252" height="163" viewBox="0 0 252 163" fill="none" xmlns="http://www.w3.org/2000/svg">
<path opacity="0.1" d="M245.474 151.742C242.817 153.878 239.61 155.4 236.147 156.527C235.643 156.694 235.131 156.85 234.613 156.995C233.275 157.382 231.906 157.717 230.524 158.009C229.843 158.157 229.157 158.293 228.471 158.419C227.305 158.637 226.133 158.831 224.969 159.009C220.648 159.667 216.298 160.155 211.927 160.525C210.579 160.64 209.231 160.744 207.882 160.836L207.343 160.873L206.377 160.937L205.783 160.974C204.879 161.033 203.976 161.084 203.075 161.133C199.464 161.33 195.849 161.473 192.233 161.602C189.577 161.691 186.947 161.766 184.304 161.836L178.93 161.988L177.542 162.028L176.933 162.044C175.342 162.091 173.75 162.136 172.156 162.178L171.707 162.19L170.306 162.229L167.649 162.3L166.857 162.321L166.132 162.34C149.267 162.78 132.389 163.101 115.534 162.962C114.184 162.953 112.836 162.939 111.488 162.92C98.9727 162.763 86.4716 162.339 73.9922 161.515C69.6062 161.225 65.1912 160.873 60.8004 160.389C59.4479 160.24 58.0994 160.079 56.7549 159.904C45.9686 158.499 35.448 156.129 26.0238 151.707C18.9256 148.37 12.3731 143.623 9.62461 137.307C6.84954 130.932 8.31798 123.773 11.4867 117.525C14.6555 111.277 19.4231 105.678 23.5338 99.8064C24.9467 97.7854 26.2823 95.68 27.4923 93.5161C27.5647 93.385 27.6396 93.2515 27.7097 93.1203C28.3296 91.9916 28.914 90.8487 29.4631 89.6918C29.9848 88.5896 30.4678 87.4764 30.9122 86.3523C31.0459 86.0166 31.1739 85.6817 31.2962 85.3476C31.3107 85.3102 31.3252 85.2727 31.3373 85.2352C31.3494 85.1978 31.3687 85.1509 31.3832 85.1088C32.1645 82.9824 32.7734 80.8002 33.2042 78.5819L33.2622 78.2728C33.2888 78.1253 33.3153 77.9801 33.3395 77.8325C33.3636 77.685 33.3854 77.5585 33.4071 77.4203C33.7427 75.3412 33.8681 73.2352 33.7815 71.1324C33.7815 71.0551 33.7815 70.9778 33.7815 70.8982C33.7279 69.8203 33.6069 68.7465 33.4192 67.6828C33.4047 67.5914 33.3902 67.5025 33.3709 67.4135C33.0895 65.8877 32.6634 64.3903 32.0981 62.9405C32.0739 62.8772 32.0474 62.8117 32.0208 62.7461C32.0208 62.718 31.9991 62.6875 31.987 62.6594C31.8058 62.2121 31.6126 61.7695 31.4001 61.3269C31.3663 61.252 31.3276 61.1747 31.2914 61.0927C31.2214 60.9498 31.1513 60.807 31.0765 60.6665C30.7367 59.9936 30.3583 59.3293 29.9413 58.6735C29.4583 57.8937 28.91 57.1302 28.3473 56.3808L28.2676 56.2755L28.2024 56.1865C27.4633 55.2099 26.6904 54.2497 25.9369 53.2802C25.3452 52.5237 24.7655 51.7626 24.2221 50.9875L24.1255 50.847C23.4668 49.9115 22.8792 48.9307 22.3672 47.9126C22.2658 47.7041 22.1668 47.4957 22.075 47.2849C21.9107 46.9149 21.7586 46.5426 21.6233 46.1679C19.7685 41.086 20.3312 35.5357 21.2224 30.243C22.5435 22.379 25.0022 13.9037 32.6125 8.99509C39.2567 4.7071 48.2486 4.20594 56.7646 5.24808C58.1292 5.41201 59.4793 5.61575 60.81 5.84994L61.5346 5.98343C72.3064 7.98574 82.4937 11.5314 92.5555 15.3276C94.9055 16.2151 97.2506 17.1168 99.5934 18.0137C101.424 18.7147 103.256 19.4118 105.088 20.105C107.205 20.9044 109.339 21.685 111.488 22.4469C112.831 22.9246 114.18 23.393 115.534 23.852C117.706 24.5843 119.892 25.2798 122.093 25.9386C123.652 26.407 125.219 26.8481 126.793 27.2618C134.281 29.2384 141.961 30.6084 149.822 30.873C155.811 31.0774 161.801 30.5391 167.649 29.2711C169.014 28.9714 170.366 28.6271 171.694 28.2384C173.549 27.6969 175.371 27.0566 177.153 26.3204C181.648 24.4469 185.688 21.9738 188.886 18.8263L188.912 18.8006C193.649 14.1426 200.592 11.7749 207.867 11.3791C209.214 11.3054 210.564 11.2983 211.912 11.3581C216.97 11.5609 221.943 12.6893 226.568 14.6835C238.074 19.742 245.515 30.4515 244.955 41.1469C244.141 56.7157 228.662 68.6664 219.426 82.2868C218.774 83.2469 218.153 84.2376 217.576 85.2493C217.364 85.6193 217.161 85.9916 216.963 86.3663C214.688 90.6754 213.321 95.3288 214.064 99.7994C214.194 100.588 214.391 101.364 214.654 102.12C214.767 102.45 214.895 102.781 215.038 103.108C216.098 105.558 217.774 107.635 219.842 109.483C220.779 110.314 221.765 111.091 222.795 111.811C231.413 117.886 243.895 121.717 249.409 130.017C254.022 136.9 252.316 146.232 245.474 151.742Z" fill="#AD92B8"/>
<path opacity="0.1" d="M211.932 122.427V86.3405H216.982C217.18 85.9658 217.383 85.5935 217.595 85.2234H211.932V47.2849H231.736C231.693 46.9125 231.645 46.5355 231.596 46.1678H211.932V11.3322C210.584 11.2725 209.233 11.2795 207.886 11.3533V46.1608H171.714V28.2196C170.385 28.6083 169.033 28.9526 167.668 29.2524V46.1608H116.034L115.91 45.9477L126.813 27.243C125.238 26.8293 123.671 26.3882 122.113 25.9199L115.553 37.1726V23.8239C114.199 23.368 112.85 22.8996 111.507 22.4187V38.4091L99.6126 18.0019C97.2699 17.105 94.9247 16.2034 92.5747 15.3158L110.447 45.9594L110.322 46.1725H60.8196V5.82647C59.4888 5.59229 58.1387 5.38854 56.7741 5.22461V46.1608H21.6233C21.7585 46.5355 21.9107 46.9078 22.0749 47.2779H56.7741V85.2164H31.3517C31.3396 85.2539 31.3251 85.2914 31.3106 85.3288C31.1883 85.6629 31.0603 85.9978 30.9266 86.3335H56.7693V122.427H20.3818C20.4945 122.798 20.6113 123.171 20.732 123.544H56.7741V160.471C58.1266 160.817 59.4751 161.179 60.8196 161.557V123.544H111.51V162.925C112.858 162.944 114.206 162.958 115.555 162.967V123.544H167.668V162.295L170.325 162.225L171.726 162.185V123.544H207.877V160.841C209.226 160.747 210.574 160.643 211.922 160.529V123.544H227.742C227.698 123.171 227.657 122.799 227.616 122.427H211.932ZM111.507 122.427H60.8196V86.3405H111.51L111.507 122.427ZM111.507 85.2234H60.8196V47.2849H110.785L111.51 48.2989L111.507 85.2234ZM167.668 122.427H115.553V86.3405H167.668V122.427ZM167.668 85.2234H115.553V47.2849H167.668V85.2234ZM207.877 122.427H171.714V86.3405H207.877V122.427ZM207.877 85.2234H171.714V47.2849H207.877V85.2234Z" fill="#AD92B8"/>
<path opacity="0.1" d="M191.833 22.5452C191.847 22.9035 191.714 23.2527 191.463 23.5161C191.212 23.7796 190.864 23.9357 190.495 23.9503H187.794C188.095 24.0366 188.358 24.2162 188.543 24.4616C188.728 24.7071 188.825 25.0047 188.818 25.3086C188.833 25.6669 188.7 26.0161 188.449 26.2796C188.198 26.543 187.85 26.6992 187.48 26.7138H178.1C177.926 26.7129 177.754 26.6776 177.594 26.6099C177.435 26.5423 177.291 26.4437 177.172 26.3203C181.667 24.4468 185.708 21.9738 188.905 18.8263L188.932 18.8005H189.227C189.405 18.8018 189.581 18.8389 189.743 18.9094C189.906 18.98 190.051 19.0824 190.171 19.2104C190.421 19.4796 190.56 19.8292 190.56 20.1916C190.56 20.554 190.421 20.9036 190.171 21.1729H190.487C190.852 21.1857 191.197 21.3365 191.449 21.593C191.7 21.8495 191.838 22.1913 191.833 22.5452Z" fill="#AD92B8"/>
<path opacity="0.1" d="M88.841 34.4516H88.5294C88.7768 34.184 88.9127 33.8368 88.911 33.4774C88.9254 33.1191 88.7926 32.7699 88.5417 32.5065C88.2909 32.243 87.9425 32.0869 87.573 32.0723H78.1923C77.8229 32.0869 77.4745 32.243 77.2236 32.5065C76.9727 32.7699 76.8399 33.1191 76.8543 33.4774C76.8399 33.8357 76.9727 34.1849 77.2236 34.4483C77.4745 34.7117 77.8229 34.8679 78.1923 34.8825H78.5063C78.2581 35.1498 78.1212 35.4971 78.1223 35.8568C78.1162 36.1606 78.213 36.458 78.398 36.7034C78.583 36.9487 78.8459 37.1285 79.1463 37.215H76.4461C76.091 37.2524 75.7625 37.4157 75.5239 37.6735C75.2853 37.9313 75.1533 38.2656 75.1533 38.612C75.1533 38.9584 75.2853 39.2926 75.5239 39.5504C75.7625 39.8083 76.091 39.9715 76.4461 40.0089H85.8268C86.1963 39.9943 86.5447 39.8381 86.7955 39.5747C87.0464 39.3113 87.1792 38.9621 87.1648 38.6038C87.174 38.2997 87.0795 38.0013 86.8962 37.7545C86.7128 37.5077 86.4507 37.3263 86.1504 37.2385H88.8506C89.2081 37.2037 89.5395 37.0414 89.7805 36.783C90.0216 36.5247 90.155 36.1887 90.155 35.8404C90.155 35.492 90.0216 35.156 89.7805 34.8977C89.5395 34.6394 89.2081 34.477 88.8506 34.4423L88.841 34.4516Z" fill="#AD92B8"/>
<path opacity="0.1" d="M204.882 91.3945H204.568C204.816 91.1274 204.952 90.7799 204.949 90.4203C204.964 90.062 204.831 89.7128 204.58 89.4494C204.329 89.1859 203.981 89.0298 203.611 89.0151H194.231C193.862 89.0304 193.513 89.1867 193.263 89.45C193.012 89.7133 192.879 90.0621 192.893 90.4203C192.879 90.7784 193.012 91.1272 193.263 91.3905C193.513 91.6538 193.862 91.8102 194.231 91.8254H194.545C194.297 92.0929 194.161 92.4402 194.163 92.7996C194.156 93.1034 194.253 93.4008 194.438 93.6459C194.623 93.8911 194.887 94.0702 195.187 94.1556H192.487C192.13 94.1904 191.798 94.3527 191.557 94.611C191.316 94.8694 191.183 95.2053 191.183 95.5537C191.183 95.9021 191.316 96.238 191.557 96.4964C191.798 96.7547 192.13 96.917 192.487 96.9518H201.868C202.237 96.9366 202.585 96.7802 202.836 96.5169C203.086 96.2536 203.219 95.9048 203.206 95.5467C203.212 95.243 203.115 94.9458 202.93 94.7007C202.745 94.4557 202.482 94.2765 202.182 94.1907H204.882C205.239 94.1559 205.571 93.9936 205.812 93.7353C206.053 93.4769 206.186 93.141 206.186 92.7926C206.186 92.4442 206.053 92.1083 205.812 91.8499C205.571 91.5916 205.239 91.4293 204.882 91.3945Z" fill="#AD92B8"/>
<path opacity="0.1" d="M39.2124 96.466C49.7611 94.992 56.6791 82.806 54.6642 69.2478C52.6493 55.6896 42.4644 45.8934 31.9156 47.3673C21.3669 48.8413 14.4489 61.0272 16.4638 74.5855C18.4787 88.1437 28.6636 97.9399 39.2124 96.466Z" fill="black"/>
<path d="M39.7124 96.2658C50.2611 94.7919 57.1791 82.6059 55.1642 69.0476C53.1492 55.4894 42.9644 45.6932 32.4156 47.1671C21.8669 48.6411 14.9489 60.8271 16.9638 74.3853C18.9787 87.9435 29.1636 97.7398 39.7124 96.2658Z" fill="#222329"/>
<path d="M53.8469 74.9825C53.709 77.2787 53.2657 79.548 52.5282 81.7341C51.6923 84.2815 50.3389 86.6408 48.5479 88.6731C46.3742 91.0829 43.6112 92.6777 40.4763 93.1227C39.9586 93.1942 39.4366 93.2333 38.9137 93.2398C30.4363 93.3522 22.5193 84.809 20.8117 73.3174C19.0076 61.1255 24.8644 50.2006 33.9118 48.9477C36.6047 48.5707 39.2735 49.0906 41.7443 50.3318C45.3019 52.1116 48.4489 55.3855 50.6516 59.615C52.1292 62.4862 53.1169 65.5706 53.5764 68.7483C53.8875 70.8118 53.9782 72.9009 53.8469 74.9825Z" fill="#AD92B8"/>
<path d="M41.0298 71.9919L39.8608 82.3173C39.8608 82.3173 43.5996 81.9777 44.6913 80.1651L41.2448 71.8186L41.0298 71.9919Z" fill="#AD92B8"/>
<path opacity="0.6" d="M41.0298 71.9919L39.8608 82.3173C39.8608 82.3173 43.5996 81.9777 44.6913 80.1651L41.2448 71.8186L41.0298 71.9919Z" fill="#DC6C41"/>
<path opacity="0.6" d="M24.5794 71.6477L30.4604 71.2637C30.4604 71.2637 31.0714 75.5962 32.9287 78.0341L28.7528 82.4368C28.7528 82.4368 24.4224 75.746 24.5794 71.6477Z" fill="#DC6C41"/>
<path opacity="0.3" d="M39.4725 71.1107L25.6001 85.5354L25.7767 85.6951L39.6492 71.2704L39.4725 71.1107Z" fill="white"/>
<path opacity="0.3" d="M20.6477 72.0505L20.6284 71.8163L39.9211 70.4534L39.9404 70.6852L20.6477 72.0505Z" fill="white"/>
<path opacity="0.6" d="M50.6468 59.6057L48.9779 61.5682C44.8503 53.9078 41.4062 53.4769 41.4062 53.4769L41.7395 50.3201C45.302 52.1022 48.449 55.3762 50.6468 59.6057Z" fill="#DC6C41"/>
<path opacity="0.6" d="M32.3904 62.0388L40.008 69.767L39.4742 69.9848L30.6152 66.6078C30.6152 66.6078 31.3253 63.8608 32.3904 62.0388Z" fill="#DC6C41"/>
<path opacity="0.3" d="M21.183 62.7642L21.0947 62.9822L39.4737 69.9841L39.562 69.7662L21.183 62.7642Z" fill="white"/>
<path opacity="0.6" d="M41.6597 70.4088L47.8716 69.5564C47.8716 69.5564 48.3087 72.0482 48.0769 72.7765C48.0695 72.7989 48.0606 72.8208 48.0503 72.842L41.6597 70.4088Z" fill="#DC6C41"/>
<path opacity="0.6" d="M27.4946 57.2241C27.4946 57.2241 30.091 53.5872 33.3249 52.6223L36.1845 59.2522C36.1845 59.2522 33.3974 60.2522 32.4216 62.2475L27.4946 57.2241Z" fill="#DC6C41"/>
<path opacity="0.3" d="M40.6066 69.1582L40.3989 69.1325C40.353 69.1325 40.3023 69.1184 40.2685 68.9779L31.7549 49.4466L31.9771 49.3552L40.2153 68.2589C40.2153 67.2074 40.3458 64.8655 40.7974 59.6455C41.1959 55.0366 41.6596 50.3763 41.6645 50.3295L41.906 50.3529C41.2152 57.2872 40.2926 67.6828 40.4762 68.8538L40.6066 69.1582Z" fill="white"/>
<path opacity="0.3" d="M24.9188 54.5253L24.7456 54.6885L39.6368 69.5469L39.81 69.3837L24.9188 54.5253Z" fill="white"/>
<path opacity="0.6" d="M46.2681 64.3268L48.8693 61.4697C48.8693 61.4697 51.34 67.3783 51.0623 69.1347L47.9732 69.5563C47.9732 69.5563 46.8622 64.4861 46.2681 64.3268Z" fill="#DC6C41"/>
<path opacity="0.3" d="M50.5579 59.5339L41.4209 69.5093L41.6015 69.6648L50.7385 59.6894L50.5579 59.5339Z" fill="white"/>
<path opacity="0.3" d="M48.0868 69.6618L48.0723 69.5376C48.0723 69.5002 48.0723 69.465 48.0554 69.4299C48.0385 69.3948 48.0554 69.3339 48.0361 69.2847C47.789 67.5743 47.2486 65.916 46.4372 64.3785C46.4107 64.3293 46.3841 64.2801 46.3551 64.2309C46.3441 64.2066 46.3312 64.1831 46.3165 64.1607C45.0171 61.8188 43.1526 60.0694 41.0731 59.2427C40.9958 59.2099 40.9185 59.1818 40.8315 59.1537C39.755 58.7546 38.5917 58.6265 37.4503 58.7814C37.0257 58.84 36.6082 58.9396 36.204 59.0788C36.1726 59.0865 36.1419 59.0966 36.1122 59.1092L35.9746 59.1584C34.5202 59.7395 33.2775 60.7277 32.4049 61.9968L32.3783 62.0342L32.3083 62.1349C32.2932 62.1535 32.2795 62.1731 32.2672 62.1935C32.1658 62.341 32.0668 62.4909 31.9726 62.6478C31.8784 62.8047 31.7939 62.9476 31.7093 63.1162C31.1642 64.1309 30.766 65.2137 30.5259 66.3339C30.5065 66.4112 30.4896 66.4908 30.4751 66.5681C30.1775 68.0743 30.114 69.6151 30.2868 71.1395L30.3013 71.2777C30.3013 71.3081 30.3013 71.3409 30.3133 71.3713C30.3302 71.5001 30.3471 71.6289 30.3665 71.7578C30.6828 74.0025 31.5166 76.1492 32.8058 78.0387C32.8203 78.0621 32.8372 78.0832 32.8541 78.1066C32.871 78.13 32.9145 78.1933 32.9483 78.2354C33.0304 78.3525 33.115 78.4696 33.2043 78.5773C34.895 80.7576 37.158 82.1464 39.5297 82.3103C39.6336 82.3103 39.7399 82.322 39.8461 82.3243H40.0877C40.3722 82.3218 40.6562 82.3007 40.9378 82.2611C42.3875 82.0407 43.7296 81.3855 44.7756 80.3876C44.8384 80.3314 44.9012 80.2729 44.9615 80.212C45.9475 79.2214 46.7158 78.047 47.2198 76.76C47.2536 76.6804 47.285 76.6008 47.3164 76.5258C47.7384 75.4027 48.0096 74.2315 48.123 73.0411L48.1448 72.7952C48.2322 71.7514 48.2128 70.7018 48.0868 69.6618ZM47.1425 76.3479C47.1135 76.4298 47.0821 76.5118 47.0507 76.582C46.569 77.8449 45.8297 79.0006 44.877 79.9801C44.8166 80.041 44.7562 80.1019 44.6935 80.1581C43.672 81.1513 42.3504 81.8027 40.9209 82.0176C40.6578 82.0553 40.3923 82.0756 40.1263 82.0784H39.8848C37.4044 82.0293 35.0278 80.5796 33.2816 78.2565L33.1319 78.0527C33.0836 77.9872 33.0377 77.9216 32.9942 77.8537C31.7416 76.004 30.9321 73.9059 30.6249 71.7133C30.6056 71.5891 30.5887 71.465 30.5742 71.3432C30.5742 71.2636 30.5549 71.1863 30.5476 71.1091C30.3781 69.6201 30.4376 68.1151 30.7239 66.6431C30.7384 66.5634 30.7529 66.4862 30.7722 66.4089C31.0072 65.2956 31.4014 64.2196 31.9436 63.2122L32.103 62.9288C32.2165 62.7345 32.3445 62.5448 32.458 62.3644C32.4943 62.3106 32.5305 62.2567 32.5691 62.2052C32.5771 62.1914 32.586 62.1781 32.5957 62.1654C33.4451 60.9161 34.6617 59.9428 36.0881 59.3715L36.3151 59.2896C37.1331 59.0154 37.9999 58.9047 38.8632 58.964C39.5339 59.0132 40.1938 59.1567 40.8219 59.3903L41.0634 59.4816C43.0873 60.3059 44.8963 62.0389 46.1571 64.341C46.1981 64.4136 46.2368 64.4885 46.2754 64.5635C47.0467 66.0587 47.5606 67.6662 47.797 69.3222L47.8187 69.465C47.8187 69.4931 47.8187 69.5236 47.8187 69.5517C47.8187 69.5798 47.8308 69.6477 47.8356 69.6969C47.9612 70.6937 47.9863 71.7 47.9105 72.7015C47.9105 72.7273 47.9105 72.7531 47.9105 72.7765L47.896 72.9474C47.7964 74.1076 47.5431 75.2504 47.1425 76.3479Z" fill="white"/>
<path opacity="0.6" d="M53.847 74.9826C53.7091 77.2788 53.2658 79.5481 52.5283 81.7342L50.0479 79.301C50.7241 78.3127 51.1395 74.0552 51.1395 74.0552L51.282 74.1512C51.4076 74.4111 52.7794 74.7507 53.847 74.9826Z" fill="#DC6C41"/>
<path opacity="0.3" d="M41.8759 71.2583L41.7056 71.4243L52.4518 81.7899L52.6221 81.6239L41.8759 71.2583Z" fill="white"/>
<path opacity="0.3" d="M53.7889 75.2566L41.3989 70.3995L53.5571 68.6267L53.5933 68.8586L42.3095 70.5026L53.8783 75.0388L53.7889 75.2566Z" fill="white"/>
<path opacity="0.6" d="M48.5478 88.6826C46.3741 91.0924 43.6111 92.6873 40.4762 93.1322C39.9585 93.2037 39.4365 93.2428 38.9136 93.2493L39.4208 88.3313C39.4208 88.3313 44.0652 88.3993 46.7557 84.7646L48.5478 88.6826Z" fill="#DC6C41"/>
<path opacity="0.3" d="M41.4464 72.0363L41.2236 72.1267L48.4043 88.7633L48.6271 88.6729L41.4464 72.0363Z" fill="white"/>
<path opacity="0.3" d="M40.7618 72.2096L38.8804 93.231L39.121 93.2512L41.0024 72.2298L40.7618 72.2096Z" fill="white"/>
<path opacity="0.3" d="M51.2022 69.2074C51.2022 69.1301 51.1853 69.0529 51.1732 68.9732C51.1515 68.7812 51.1249 68.5892 51.096 68.3971C50.7516 66.0277 50.0561 63.719 49.031 61.5424V61.5213L48.9295 61.3129C47.1592 57.6947 44.5701 54.8704 41.6259 53.3201C41.568 53.2873 41.5076 53.2568 41.4472 53.2264L41.3965 53.2006C39.4765 52.1973 37.2787 51.808 35.117 52.0882C34.5163 52.1723 33.9252 52.3111 33.3514 52.5027L33.1244 52.5824C31.1763 53.3218 29.4747 54.5652 28.2046 56.1772C27.9631 56.4722 27.7321 56.7798 27.5115 57.0999C27.4656 57.1654 27.4197 57.231 27.3762 57.2989C26.0284 59.3708 25.1104 61.6777 24.6736 64.0904C24.6567 64.1677 24.6422 64.245 24.6301 64.3246C24.2066 66.7092 24.1489 69.1413 24.4587 71.5423C24.4587 71.6196 24.478 71.6968 24.4901 71.7765C24.5021 71.8561 24.519 71.9989 24.5359 72.1114C24.5625 72.2917 24.5915 72.4743 24.6229 72.6523C24.6229 72.6523 24.6229 72.6523 24.6229 72.6687C24.7412 73.3713 24.8886 74.0528 25.0625 74.7226C25.0613 74.7295 25.0613 74.7367 25.0625 74.7436C25.7481 77.4879 26.9554 80.0841 28.6225 82.3993C28.6684 82.4648 28.7143 82.5281 28.765 82.5936C29.2395 83.2272 29.7558 83.8304 30.3107 84.3992C30.6343 84.7318 30.9676 85.0433 31.3058 85.336C33.4964 87.2399 35.943 88.3219 38.4234 88.4928C38.7132 88.5116 39.0054 88.5186 39.2953 88.5116H39.3967C39.4442 88.514 39.4917 88.514 39.5392 88.5116C39.8625 88.4998 40.185 88.4716 40.5053 88.4273C42.8818 88.0947 45.0338 86.9332 46.7848 85.0667C46.8066 85.0456 46.8259 85.0222 46.8452 85.0011L46.9635 84.8746C47.8077 83.9331 48.5274 82.8931 49.1058 81.7787C49.4855 81.057 49.8147 80.3114 50.0912 79.5468C50.1079 79.5062 50.1224 79.4648 50.1347 79.4227C50.1514 79.3821 50.1659 79.3407 50.1782 79.2986C50.7416 77.6718 51.1016 75.9853 51.2505 74.2753C51.2505 74.2378 51.2505 74.2027 51.2626 74.1652C51.2747 74.1277 51.2626 74.0762 51.2747 74.0317C51.3246 73.3947 51.3504 72.7507 51.352 72.0996C51.3583 71.1336 51.3083 70.168 51.2022 69.2074ZM51.0356 74.1769C50.8959 75.8547 50.5505 77.5104 50.0067 79.1089C49.9793 79.1901 49.9503 79.2682 49.9197 79.3431C49.6392 80.1347 49.3019 80.9063 48.9102 81.6522C48.3581 82.7149 47.6752 83.7089 46.8766 84.6123C46.821 84.6779 46.7607 84.7435 46.7003 84.8067C44.9613 86.6802 42.836 87.8512 40.4787 88.1767C40.1744 88.2189 39.8701 88.247 39.5658 88.261H39.3242C36.5733 88.3172 33.8248 87.2142 31.4 85.0784C31.0932 84.8091 30.7913 84.521 30.4943 84.2189C29.9362 83.646 29.4167 83.039 28.9389 82.4016L28.8688 82.3032L28.7964 82.2049C26.7459 79.3946 25.3426 75.8818 24.7751 72.0575C24.7581 71.9521 24.7437 71.8467 24.7292 71.7413C24.7292 71.7015 24.7292 71.6617 24.7123 71.6196C24.6954 71.5774 24.7123 71.547 24.7002 71.5095C24.393 69.1433 24.4459 66.7461 24.8572 64.3948L24.9006 64.1606C25.328 61.7787 26.2305 59.5004 27.5574 57.4535C27.5815 57.4145 27.6081 57.3746 27.6371 57.3341C27.654 57.3059 27.6733 57.2778 27.6926 57.2521C27.9052 56.9406 28.1298 56.6409 28.3616 56.3551C29.6129 54.7505 31.2983 53.5135 33.2307 52.7814L33.3925 52.7252L33.4601 52.7018C34.0144 52.5178 34.5853 52.3845 35.1653 52.3037C35.8323 52.2114 36.5074 52.1879 37.1795 52.2334C38.6498 52.3461 40.0795 52.7553 41.3772 53.4348L41.4255 53.4582L41.6066 53.5542C43.2727 54.4734 44.7472 55.6862 45.954 57.1303C47.0786 58.4612 48.0249 59.9248 48.7701 61.4862C48.7822 61.5073 48.7918 61.5307 48.8015 61.5518L48.8812 61.7157C49.8706 63.8456 50.5439 66.1006 50.881 68.4135C50.91 68.6056 50.9365 68.7952 50.9607 68.9873C50.9607 69.0341 50.9607 69.0786 50.9776 69.1255C50.9945 69.1723 50.9776 69.1887 50.9776 69.2215C51.1613 70.7764 51.1929 72.3446 51.0718 73.9052C51.0573 74.0036 51.0452 74.0942 51.0356 74.1769Z" fill="white"/>
<path d="M40.8945 72.2212C41.5586 72.1284 41.9902 71.335 41.8586 70.4492C41.7269 69.5633 41.0818 68.9203 40.4178 69.0131C39.7537 69.1059 39.3221 69.8993 39.4537 70.7852C39.5854 71.6711 40.2304 72.314 40.8945 72.2212Z" fill="#AD92B8"/>
<path opacity="0.7" d="M40.8945 72.2212C41.5586 72.1284 41.9902 71.335 41.8586 70.4492C41.7269 69.5633 41.0818 68.9203 40.4178 69.0131C39.7537 69.1059 39.3221 69.8993 39.4537 70.7852C39.5854 71.6711 40.2304 72.314 40.8945 72.2212Z" fill="white"/>
<path opacity="0.1" d="M161.927 13.9107C163.733 13.9107 165.198 12.491 165.198 10.7398C165.198 8.98851 163.733 7.56885 161.927 7.56885C160.121 7.56885 158.657 8.98851 158.657 10.7398C158.657 12.491 160.121 13.9107 161.927 13.9107Z" fill="#AD92B8"/>
<path opacity="0.1" d="M11.4455 47.8541C13.2516 47.8541 14.7157 46.4344 14.7157 44.6831C14.7157 42.9319 13.2516 41.5122 11.4455 41.5122C9.63941 41.5122 8.17529 42.9319 8.17529 44.6831C8.17529 46.4344 9.63941 47.8541 11.4455 47.8541Z" fill="#AD92B8"/>
<path opacity="0.1" d="M241.325 70.376C243.131 70.376 244.595 68.9563 244.595 67.2051C244.595 65.4538 243.131 64.0342 241.325 64.0342C239.519 64.0342 238.055 65.4538 238.055 67.2051C238.055 68.9563 239.519 70.376 241.325 70.376Z" fill="#AD92B8"/>
<path opacity="0.1" d="M228.094 89.5115C229.9 89.5115 231.365 88.0918 231.365 86.3406C231.365 84.5893 229.9 83.1697 228.094 83.1697C226.288 83.1697 224.824 84.5893 224.824 86.3406C224.824 88.0918 226.288 89.5115 228.094 89.5115Z" fill="#AD92B8"/>
<path opacity="0.1" d="M171.552 7.40973C172.384 7.40973 173.059 6.75547 173.059 5.9484C173.059 5.14132 172.384 4.48706 171.552 4.48706C170.72 4.48706 170.045 5.14132 170.045 5.9484C170.045 6.75547 170.72 7.40973 171.552 7.40973Z" fill="#AD92B8"/>
<path opacity="0.1" d="M1.50709 38.7816C2.33943 38.7816 3.01417 38.1273 3.01417 37.3202C3.01417 36.5132 2.33943 35.8589 1.50709 35.8589C0.674746 35.8589 0 36.5132 0 37.3202C0 38.1273 0.674746 38.7816 1.50709 38.7816Z" fill="#AD92B8"/>
<path opacity="0.1" d="M239.562 105.846C240.394 105.846 241.069 105.192 241.069 104.385C241.069 103.578 240.394 102.924 239.562 102.924C238.729 102.924 238.055 103.578 238.055 104.385C238.055 105.192 238.729 105.846 239.562 105.846Z" fill="#AD92B8"/>
<path opacity="0.1" d="M179.759 2.06554C180.347 2.06554 180.824 1.60316 180.824 1.03277C180.824 0.462388 180.347 0 179.759 0C179.171 0 178.694 0.462388 178.694 1.03277C178.694 1.60316 179.171 2.06554 179.759 2.06554Z" fill="#AD92B8"/>
<path opacity="0.1" d="M8.17546 60.2894C8.7637 60.2894 9.24056 59.827 9.24056 59.2567C9.24056 58.6863 8.7637 58.2239 8.17546 58.2239C7.58721 58.2239 7.11035 58.6863 7.11035 59.2567C7.11035 59.827 7.58721 60.2894 8.17546 60.2894Z" fill="#AD92B8"/>
<path d="M233.528 150.068C233.528 150.068 231.722 142.534 230.519 133.375C229.316 124.216 219.991 108.996 219.991 108.996C219.95 108.919 219.907 108.839 219.863 108.762C218.417 106.101 216.678 103.6 214.675 101.303C210.569 96.6027 206.845 94.4903 206.659 94.3873C206.365 93.9517 206.048 93.4716 205.715 92.9587C204.464 91.0407 202.976 88.6286 201.556 86.0244C201.556 85.9635 201.534 85.905 201.522 85.8441C200.889 82.1345 200.865 78.2329 202.768 75.0292C203.708 73.4485 205.063 72.1464 206.097 70.6242C207.787 68.1418 208.555 65.1793 209.176 62.2566C209.613 60.2121 209.99 58.1278 209.879 56.0459C209.879 56.0131 209.879 55.9827 209.879 55.9522C209.879 55.807 209.859 55.6618 209.845 55.5166C209.49 51.7415 207.449 48.3505 205.459 45.1023C204.411 43.3927 203.309 41.6293 201.621 40.5239C198.109 38.2265 193.806 39.6644 190.052 38.3483C186.065 36.9431 182.42 35.634 178.08 35.2031C176.542 35.0509 174.851 35.0134 173.605 35.9057C172.296 36.8424 171.861 38.552 170.992 39.9033C169.332 42.4794 166.202 43.6503 163.56 45.2709C161.553 46.491 159.628 48.4418 159.213 50.5893C159.213 50.5893 159.213 50.5776 159.213 50.5706C159.169 50.8026 159.143 51.0374 159.135 51.2731C159.135 51.2872 159.135 51.3036 159.135 51.3176V51.3879C159.127 51.8212 159.187 52.2532 159.314 52.6689C159.464 52.7439 159.616 52.8094 159.77 52.875C159.674 53.0272 159.577 53.1794 159.485 53.3434L159.283 53.6923C157.669 56.5149 156.692 59.6375 156.416 62.8535C156.14 66.0696 156.571 69.3059 157.68 72.3484C158.79 75.3909 160.553 78.1703 162.853 80.5028C165.154 82.8354 167.938 84.6679 171.023 85.8792C171.165 86.2164 171.313 86.5654 171.458 86.926C173.951 93.0086 175.261 99.4861 175.322 106.031C175.322 106.092 175.322 106.153 175.322 106.214C175.322 106.448 175.322 106.682 175.322 106.928C173.148 109.598 170.895 112.909 170.975 115.2C171.105 119.036 165.83 127.961 164.408 130.293L164.123 130.761C162.703 129.764 161.014 128.867 160.196 129.497L159.51 129.071C156.041 126.911 149.849 122.911 147.513 120.52C144.204 117.122 137.737 114.019 137.737 114.019C137.737 114.019 132.624 108.108 132.925 105.893C133.075 104.79 131.022 95.9844 128.479 89.5232C130.336 89.7129 132.244 89.94 132.826 90.0103L132.969 90.1321L133.169 90.1625C140.2 96.1531 141.739 93.4833 141.739 93.4833C142.313 93.1063 142.509 91.9705 142.565 91.5349C142.565 91.4927 142.565 91.4599 142.565 91.4318H142.601C142.601 91.3967 142.601 91.3686 142.601 91.3452C142.616 91.3195 142.628 91.2929 142.639 91.2655L142.656 91.2351L142.668 91.2117C142.668 91.1929 142.685 91.1719 142.695 91.1508C142.736 91.0765 142.767 90.9979 142.789 90.9166H142.77C142.862 90.4266 142.912 89.9299 142.917 89.4318C142.919 89.0469 142.785 88.6729 142.537 88.3722C142.289 88.0714 141.943 87.8619 141.555 87.7785C141.555 87.7668 141.555 87.7551 141.543 87.741C140.63 85.1087 133.991 89.0126 133.256 89.4553L133.078 89.474C131.747 89.2164 129.696 88.7457 127.96 88.3382C125.605 82.7832 122.934 79.6732 121.221 86.5092L119.647 86.2469C119.451 86.2126 119.25 86.2178 119.056 86.2621C118.863 86.3064 118.681 86.3889 118.521 86.5045C118.3 86.6628 118.116 86.8657 117.983 87.0993L111.15 86.0502L109.539 86.104L110.904 86.7434L111.005 86.7902L117.838 87.8698C117.879 88.1827 118.026 88.4736 118.255 88.6975C118.484 88.9215 118.783 89.066 119.106 89.1087L120.639 89.3241C117.9 104.825 124.021 109.884 124.021 109.884C124.021 109.884 131.389 116.89 131.389 118.549C131.389 119.954 145.774 136.644 150.146 141.682C150.928 142.586 151.392 143.115 151.392 143.115C153.109 145.028 161.367 151.564 165.21 154.576C165.586 157.621 165.934 160.665 166.135 162.335L166.859 162.316L170.296 162.225L172.146 162.171C173.74 162.129 175.332 162.084 176.923 162.037L177.532 162.021L178.921 161.979C180.713 161.929 182.504 161.877 184.294 161.824C186.937 161.747 189.579 161.672 192.224 161.59C195.846 161.466 199.455 161.323 203.065 161.122C203.966 161.073 204.87 161.021 205.773 160.962L206.367 160.923L207.333 160.859C213.241 160.454 219.124 159.871 224.964 158.972C226.128 158.792 227.3 158.595 228.466 158.372C229.152 158.246 229.838 158.108 230.519 157.958C231.901 157.66 233.27 157.321 234.608 156.93C234.038 152.972 233.528 150.068 233.528 150.068Z" fill="url(#paint0_linear)"/>
<path d="M133.913 91.0009L133.015 90.9705C133.015 90.9705 126.921 90.2375 124.97 90.193C124.773 90.1657 124.573 90.1809 124.383 90.2375L124.815 88.5466L125.344 88.6731C127.201 89.1181 133.358 90.5794 134.348 90.6122C135.519 90.6497 133.913 91.0009 133.913 91.0009Z" fill="#A6A9B5"/>
<path d="M133.206 90.4389C133.206 90.4389 140.596 85.9565 141.562 88.7082C142.528 91.4599 140.009 91.8651 140.009 91.8651L133.206 90.4389Z" fill="#AD92B8"/>
<path opacity="0.2" d="M133.206 90.4389C133.206 90.4389 140.596 85.9565 141.562 88.7082C142.528 91.4599 140.009 91.8651 140.009 91.8651L133.206 90.4389Z" fill="black"/>
<path d="M141.736 94.3804C141.736 94.3804 140.179 97.0548 133.005 90.9706L133.104 90.8465L133.401 90.4741C133.401 90.4741 142.686 86.336 142.927 90.3781C142.924 90.9039 142.865 91.4281 142.753 91.9425C142.727 92.0545 142.677 92.1599 142.606 92.2516L142.572 92.2821C142.572 92.2821 142.572 92.3453 142.553 92.453C142.507 92.8839 142.311 94.0034 141.736 94.3804Z" fill="#AD92B8"/>
<path opacity="0.7" d="M141.736 94.3803C141.736 94.3803 140.179 97.0548 133.005 90.9706L133.104 90.8464L133.271 90.6802L142.606 92.2516L142.572 92.282C142.572 92.282 142.572 92.3452 142.553 92.453C142.507 92.8839 142.311 94.0033 141.736 94.3803Z" fill="#855E96"/>
<path opacity="0.1" d="M142.611 92.357L133.061 90.8676L132.578 90.4694L133.452 90.3711L142.802 91.8395C142.777 91.967 142.715 92.0849 142.623 92.179C142.623 92.179 142.625 92.2493 142.611 92.357Z" fill="black"/>
<path opacity="0.1" d="M142.516 92.549L132.966 91.0665L132.483 90.6708L133.355 90.5701L142.714 92.0384C142.69 92.1666 142.627 92.2849 142.533 92.378C142.533 92.378 142.531 92.4436 142.516 92.549Z" fill="black"/>
<path d="M142.562 92.453L133.005 90.9706L132.522 90.5748L133.394 90.4741L142.746 91.9425C142.719 92.0697 142.656 92.1873 142.564 92.2821C142.564 92.2821 142.576 92.3453 142.562 92.453Z" fill="#4C4C56"/>
<path opacity="0.1" d="M124.97 90.193C124.773 90.1657 124.573 90.1809 124.383 90.2375L124.815 88.5466L125.344 88.6731C125.285 89.1928 125.159 89.7033 124.97 90.193Z" fill="black"/>
<path d="M125.035 88.1136L119.671 87.233C119.475 87.1991 119.275 87.2043 119.081 87.2482C118.888 87.2921 118.705 87.3738 118.546 87.4883C118.325 87.6266 118.145 87.8179 118.024 88.0437C117.902 88.2694 117.843 88.5219 117.852 88.7763C117.883 89.099 118.027 89.4017 118.259 89.6346C118.491 89.8675 118.799 90.0166 119.13 90.0573L124.509 90.7974C124.509 90.7974 125.48 88.5 125.035 88.1136Z" fill="#A6A9B5"/>
<path opacity="0.1" d="M109.657 87.1392L111.271 87.083L118.224 88.1392C118.275 88.1468 118.324 88.1643 118.368 88.1906C118.412 88.217 118.45 88.2516 118.479 88.2925C118.509 88.3334 118.53 88.3796 118.541 88.4285C118.552 88.4774 118.552 88.528 118.543 88.5771C118.523 88.6716 118.467 88.7551 118.386 88.8101C118.304 88.8651 118.204 88.8874 118.106 88.8722L111.027 87.7692L109.657 87.1392Z" fill="black"/>
<path d="M109.559 87.0924L111.17 87.0386L118.125 88.0924C118.176 88.1004 118.224 88.1179 118.267 88.1441C118.31 88.1702 118.348 88.2045 118.377 88.2448C118.407 88.2851 118.427 88.3307 118.439 88.3789C118.45 88.4272 118.451 88.477 118.442 88.5257C118.423 88.6201 118.367 88.7038 118.286 88.7592C118.205 88.8147 118.105 88.8375 118.007 88.8231L110.926 87.7177L109.559 87.0924Z" fill="#C4C5CE"/>
<path d="M161.937 130.979L151.409 143.375C151.409 143.375 150.945 142.853 150.163 141.958C145.791 136.986 131.406 120.521 131.406 119.125C131.406 117.485 124.038 110.563 124.038 110.563C124.038 110.563 117.42 105.176 121.028 88.3899C124.637 71.6032 133.211 104.436 132.911 106.624C132.612 108.811 137.722 114.645 137.722 114.645C137.722 114.645 144.19 117.708 147.499 121.062C149.827 123.422 156.027 127.371 159.495 129.492C160.959 130.401 161.937 130.979 161.937 130.979Z" fill="#FDC2CC"/>
<path opacity="0.1" d="M161.937 130.979L151.409 143.375C151.409 143.375 150.945 142.853 150.163 141.958C150.332 138.488 157.891 130.83 159.229 129.666C159.308 129.597 159.398 129.542 159.495 129.502C160.959 130.401 161.937 130.979 161.937 130.979Z" fill="black"/>
<path d="M166.449 133.022C166.449 133.022 161.635 128.647 160.133 129.961C158.631 131.274 149.153 140.897 151.409 143.377C153.665 145.857 167.2 156.206 167.2 156.206L166.449 133.022Z" fill="#5F5D7E"/>
<path opacity="0.6" d="M166.449 133.022C166.449 133.022 161.635 128.647 160.133 129.961C158.631 131.274 149.153 140.897 151.409 143.377C153.665 145.857 167.2 156.206 167.2 156.206L166.449 133.022Z" fill="#855E96"/>
<path d="M208.71 98.1671C208.71 98.1671 204.012 102.563 198.129 107.331L197.907 107.509L197.564 107.785C188.178 115.312 176.083 123.434 174.837 116.483C174.697 115.576 174.691 114.654 174.82 113.745C174.834 113.612 174.853 113.474 174.873 113.333C174.892 113.193 174.911 113.062 174.926 112.928C175.16 111.176 175.29 109.413 175.315 107.647C175.315 107.35 175.315 107.055 175.315 106.762C175.253 100.297 173.942 93.8998 171.45 87.9026C171.305 87.5467 171.158 87.2001 171.016 86.8699C169.083 82.4015 167.192 79.7927 167.192 79.7927C167.192 79.7927 169.987 78.1534 173.861 76.0457C175.283 75.2775 176.848 74.4508 178.476 73.6218C187.412 69.0786 198.158 64.5353 196.67 69.8748C195.967 72.4017 196.619 75.7553 197.914 79.2658C197.986 79.4601 198.059 79.6498 198.134 79.8419C198.973 81.9633 199.941 84.0348 201.032 86.0455L201.104 86.1814C202.657 89.0666 204.331 91.7621 205.717 93.8581C206.051 94.3639 206.367 94.837 206.662 95.2632C207.877 97.0664 208.71 98.1671 208.71 98.1671Z" fill="#FDC2CC"/>
<path opacity="0.1" d="M198.141 79.8419C198.071 79.9426 197.996 80.0433 197.921 80.1416C195.666 83.1158 193.055 84.8863 189.951 85.8839C187.811 86.5748 185.43 86.9003 182.761 87.0034C182.097 87.0268 181.418 87.0385 180.718 87.0385C179.104 87.0413 177.491 86.9514 175.887 86.7692C175.044 86.6404 174.163 87.1907 173.31 87.5935C172.675 87.8909 172.054 88.1087 171.475 87.9026C171.33 87.5467 171.183 87.2001 171.04 86.8699C169.108 82.4015 167.217 79.7927 167.217 79.7927C167.217 79.7927 170.011 78.1534 173.885 76.0457C175.308 75.2775 176.873 74.4508 178.501 73.6218C187.437 69.0785 198.182 64.5353 196.694 69.8748C195.992 72.4017 196.644 75.7553 197.938 79.2658C197.994 79.4601 198.066 79.6498 198.141 79.8419Z" fill="black"/>
<path d="M202.394 66.0436C202.394 66.3855 202.394 66.7228 202.37 67.06C202.139 72.0186 200.211 76.7612 196.89 80.5389C193.57 84.3167 189.046 86.9143 184.034 87.9215C181.292 88.4686 178.47 88.5297 175.706 88.1019C174.892 87.9786 174.086 87.8113 173.291 87.6007C172.522 87.3983 171.764 87.1568 171.021 86.877C167.946 85.7181 165.164 83.933 162.862 81.6422C160.56 79.3515 158.791 76.6084 157.676 73.5982C156.561 70.588 156.125 67.3809 156.398 64.1933C156.67 61.0058 157.645 57.912 159.256 55.121L159.459 54.7768C162.013 50.5393 165.934 47.2349 170.618 45.3742C175.301 43.5135 180.486 43.2 185.372 44.4821C190.258 45.7642 194.572 48.5706 197.649 52.4677C200.726 56.3648 202.393 61.1358 202.394 66.0436Z" fill="#FDC2CC"/>
<path opacity="0.1" d="M208.71 98.1672C208.71 98.1672 172.163 132.436 174.87 113.333C175.177 111.156 175.327 108.96 175.32 106.762C176.588 105.242 177.935 103.785 179.355 102.397L184.49 98.7972C189.785 95.0503 196.24 93.1697 202.788 93.4671C203.775 93.4915 204.757 93.6226 205.715 93.8582C207.437 96.474 208.71 98.1672 208.71 98.1672Z" fill="black"/>
<path d="M234.613 157C233.275 157.386 231.905 157.721 230.524 158.014C229.843 158.162 229.157 158.297 228.471 158.424C227.305 158.642 226.133 158.836 224.969 159.014C219.139 159.902 213.255 160.478 207.338 160.887L206.372 160.951L205.778 160.988C204.875 161.047 203.971 161.098 203.07 161.147C199.46 161.344 195.844 161.487 192.229 161.616C189.572 161.705 186.942 161.78 184.299 161.85L178.926 162.002L177.537 162.042L176.928 162.058C175.337 162.105 173.745 162.15 172.151 162.192L170.301 162.243L166.864 162.335L166.139 162.353C165.946 160.7 165.591 157.695 165.214 154.696L165.127 153.993C164.712 150.684 164.282 147.506 164.033 146.302C163.432 143.387 164.033 131.281 164.033 131.281L164.099 131.181L164.384 130.712C165.806 128.41 171.081 119.6 170.951 115.813C170.873 113.553 173.124 110.284 175.298 107.649C175.583 107.307 175.865 106.975 176.143 106.659C177.875 104.685 179.358 103.279 179.358 103.279L184.49 99.6776C189.787 95.9344 196.243 94.0558 202.79 94.3522C204.722 94.4482 206.263 94.7105 206.655 95.2749C206.821 95.3662 210.565 97.4505 214.671 102.101C216.67 104.366 218.41 106.835 219.858 109.464C219.902 109.539 219.945 109.617 219.986 109.699C219.986 109.699 229.312 124.719 230.514 133.761C231.717 142.803 233.524 150.239 233.524 150.239C233.524 150.239 234.038 153.094 234.613 157Z" fill="#855E96"/>
<path opacity="0.1" d="M206.756 150.082C206.014 151.253 206.587 156.736 207.348 160.878L206.382 160.942L205.787 160.979C204.884 161.038 203.981 161.089 203.08 161.138C199.469 161.335 195.854 161.478 192.238 161.607C189.581 161.696 186.951 161.771 184.309 161.841L178.935 161.993C178.935 161.459 178.766 160.998 178.329 160.728C178.024 160.515 177.753 160.259 177.527 159.967C177.457 159.885 177.385 159.796 177.312 159.705C175.638 157.55 173.518 153.148 173.518 153.148C173.518 153.148 170.81 153.731 170.508 132.305C170.412 125.321 172.276 120.211 174.834 116.495C180.133 108.799 188.405 107.076 188.405 107.076C191.47 106.559 194.621 106.808 197.559 107.799C198.711 108.192 199.821 108.693 200.872 109.296C202.282 110.118 203.596 111.084 204.792 112.179L205.179 112.537C213.613 120.5 215.605 132.933 210.396 143.174C208.727 146.445 207.222 149.347 206.756 150.082Z" fill="black"/>
<path d="M205.553 148.916C204.737 150.204 205.515 156.745 206.384 160.942L205.79 160.979C204.887 161.038 203.983 161.089 203.083 161.138C199.472 161.335 195.856 161.478 192.241 161.607C189.584 161.696 186.954 161.771 184.312 161.841L178.938 161.993L177.549 162.033C177.762 161.276 177.841 160.497 177.53 159.967C177.472 159.87 177.399 159.782 177.315 159.705C177.259 159.65 177.197 159.602 177.129 159.562C175.474 158.541 172.315 151.977 172.315 151.977C172.315 151.977 169.61 152.562 169.308 131.134C169.197 123.111 171.675 117.551 174.82 113.753C180.08 107.39 187.205 105.905 187.205 105.905C188.138 105.755 189.081 105.67 190.026 105.652H190.055C192.845 105.592 195.61 106.17 198.127 107.338C200.291 108.362 202.266 109.725 203.974 111.371C204.254 111.635 204.529 111.905 204.792 112.179C212.521 120.162 214.231 132.108 209.193 142.007C207.524 145.279 206.019 148.181 205.553 148.916Z" fill="#855E96"/>
<path opacity="0.1" d="M186.949 134.518C186.949 134.518 172.107 144.731 173.373 146.136C174.639 147.541 186.949 134.518 186.949 134.518Z" fill="black"/>
<path opacity="0.1" d="M207.775 138.197C207.775 138.197 203.138 134.192 203.474 135.745C203.81 137.298 207.775 138.197 207.775 138.197Z" fill="black"/>
<path opacity="0.1" d="M203.082 161.138C199.472 161.335 195.856 161.478 192.24 161.607C186.05 160.904 179.614 159.871 179.614 159.871C180.172 159.555 199.921 159.173 203.082 161.138Z" fill="black"/>
<path opacity="0.1" d="M230.524 158.014C229.843 158.162 229.157 158.298 228.471 158.424C228.203 154.234 228.097 150.625 228.097 150.625C229.038 153.046 229.848 155.512 230.524 158.014Z" fill="black"/>
<path opacity="0.1" d="M172.163 162.183L170.313 162.234C168.839 158.333 167.574 153.705 167.057 151.74C166.898 151.134 166.815 150.78 166.815 150.78L167.045 151.248C167.806 152.787 170.327 157.92 172.163 162.183Z" fill="black"/>
<path opacity="0.1" d="M200.873 74.0224C200.136 75.8915 199.141 77.6553 197.916 79.2659C197.989 79.4603 198.061 79.65 198.136 79.842C198.975 81.9634 199.943 84.0349 201.034 86.0457L201.107 86.1815C201.232 87.1183 201.406 88.055 201.607 88.9684C197.936 89.1557 194.261 89.2377 190.581 89.2143C188.983 89.2143 187.36 89.1698 185.836 88.7061C185.206 88.5132 184.603 88.2475 184.039 87.9145C183.585 87.6479 183.157 87.3431 182.759 87.0035C180.772 85.2631 179.518 82.8731 179.237 80.2917C179.017 78.28 179.331 76.1957 178.73 74.259C178.661 74.0436 178.58 73.8317 178.488 73.6243C177.997 72.5211 177.22 71.5594 176.234 70.8317C175.247 70.104 174.084 69.635 172.856 69.4698C172.501 69.3947 172.13 69.4436 171.808 69.608C171.534 69.8294 171.336 70.1268 171.24 70.4604L168.75 76.7578C166.978 77.1887 165.727 74.9428 165.874 73.177C166.021 71.4112 166.84 69.6033 166.234 67.9312C166.048 67.4136 165.731 66.9429 165.596 66.4137C165.058 64.327 167.371 62.4746 167.391 60.3248C167.405 58.5566 165.845 57.1281 164.188 56.3927C162.669 55.7183 160.99 55.4279 159.469 54.7698C162.025 50.5364 165.946 47.2363 170.629 45.3788C175.311 43.5214 180.494 43.2099 185.377 44.4924C190.26 45.7749 194.572 48.5801 197.648 52.475C200.723 56.37 202.391 61.1381 202.394 66.0436C202.394 66.3856 202.394 66.7228 202.37 67.06C202.26 69.4438 201.754 71.7947 200.873 74.0224Z" fill="black"/>
<path d="M178.071 36.8613C176.532 36.7114 174.841 36.6739 173.595 37.5638C172.286 38.5006 171.851 40.1774 170.982 41.5099C169.323 44.0579 166.193 45.2218 163.55 46.8073C160.908 48.3927 158.406 51.2241 159.29 54.1139C160.918 54.9102 162.765 55.1889 164.422 55.9242C166.079 56.6596 167.639 58.0881 167.625 59.8562C167.606 62.0061 165.292 63.8585 165.83 65.9452C165.966 66.4744 166.282 66.9451 166.468 67.4627C167.069 69.1348 166.255 70.9427 166.108 72.7085C165.961 74.4743 167.212 76.7202 168.985 76.2893L171.492 69.9919C171.587 69.6583 171.785 69.3609 172.059 69.1395C172.381 68.9751 172.752 68.9262 173.107 69.0013C174.449 69.1835 175.711 69.7297 176.747 70.5771C177.783 71.4244 178.551 72.5383 178.962 73.7905C179.563 75.7272 179.249 77.8115 179.469 79.8232C179.872 83.5327 182.401 87.1205 186.072 88.2376C187.596 88.7059 189.212 88.7364 190.818 88.7458C194.494 88.7723 198.169 88.6903 201.843 88.4999C200.938 84.3688 200.568 79.8044 202.764 76.1605C203.703 74.6008 205.058 73.3151 206.092 71.8116C207.782 69.362 208.55 66.437 209.171 63.5541C209.654 61.3691 210.048 59.135 209.835 56.9125C209.48 53.1866 207.439 49.8377 205.449 46.634C204.401 44.9455 203.3 43.2031 201.612 42.1118C198.1 39.8448 193.796 41.2664 190.043 39.9643C186.055 38.5849 182.411 37.2875 178.071 36.8613Z" fill="#865A61"/>
<g opacity="0.1">
<path opacity="0.1" d="M166.622 68.0154C166.751 67.2699 166.697 66.5054 166.465 65.7836C166.296 65.3153 166.024 64.882 165.871 64.4089C165.725 64.896 165.711 65.4115 165.83 65.9054C165.966 66.4347 166.282 66.9054 166.465 67.4229C166.535 67.6158 166.588 67.814 166.622 68.0154Z" fill="black"/>
<path opacity="0.1" d="M167.511 58.9968C167.581 58.7287 167.618 58.4536 167.622 58.1771C167.637 56.4114 166.079 54.9805 164.422 54.2451C162.765 53.5098 160.918 53.2311 159.29 52.4348C159.25 52.3046 159.217 52.1725 159.191 52.0391C159.055 52.7153 159.089 53.4133 159.29 54.0742C160.918 54.8704 162.765 55.1491 164.422 55.8844C165.816 56.5027 167.132 57.6128 167.511 58.9968Z" fill="black"/>
<path opacity="0.1" d="M190.816 87.0666C189.219 87.0666 187.596 87.0221 186.072 86.5585C182.401 85.4414 179.873 81.8536 179.469 78.1441C179.25 76.1324 179.563 74.0504 178.962 72.1114C178.55 70.8579 177.781 69.7431 176.743 68.8957C175.706 68.0482 174.442 67.5027 173.098 67.3222C172.743 67.2471 172.371 67.296 172.05 67.4604C171.775 67.6811 171.576 67.9788 171.482 68.3128L168.992 74.6101C167.567 74.9567 166.48 73.575 166.183 72.102C166.157 72.2917 166.13 72.4814 166.116 72.6687C165.966 74.4345 167.219 76.6804 168.992 76.2495L171.499 69.9521C171.593 69.6181 171.791 69.3204 172.067 69.0997C172.388 68.9353 172.76 68.8864 173.115 68.9615C174.457 69.1437 175.719 69.6899 176.755 70.5373C177.79 71.3846 178.558 72.4986 178.969 73.7507C179.571 75.6898 179.257 77.7717 179.477 79.7834C179.88 83.4929 182.409 87.0807 186.08 88.1978C187.604 88.6661 189.219 88.6966 190.823 88.706C194.502 88.7325 198.178 88.6544 201.851 88.4718C201.735 87.9355 201.626 87.3922 201.53 86.8465C197.96 87.0167 194.389 87.0901 190.816 87.0666Z" fill="black"/>
<path opacity="0.1" d="M209.171 61.8749C208.548 64.7578 207.777 67.6828 206.091 70.1324C205.058 71.6359 203.703 72.9216 202.763 74.4813C201.421 76.7085 201.039 79.2799 201.15 81.8864C201.242 79.8513 201.703 77.8794 202.763 76.1206C203.703 74.5609 205.058 73.2753 206.091 71.7718C207.782 69.3221 208.548 66.3971 209.171 63.5143C209.61 61.4792 209.992 59.4019 209.871 57.3293C209.757 58.8596 209.523 60.3792 209.171 61.8749Z" fill="black"/>
</g>
<defs>
<linearGradient id="paint0_linear" x1="172.086" y1="162.344" x2="172.086" y2="35.1305" gradientUnits="userSpaceOnUse">
<stop stop-color="#808080" stop-opacity="0.25"/>
<stop offset="0.54" stop-color="#808080" stop-opacity="0.12"/>
<stop offset="1" stop-color="#808080" stop-opacity="0.1"/>
</linearGradient>
</defs>
</svg>