<svg width="361" height="193" viewBox="0 0 361 193" fill="none" xmlns="http://www.w3.org/2000/svg">
<g clip-path="url(#clip0)">
<path opacity="0.1" d="M217.017 139.106C223.991 138.734 232.643 134.3 239.371 132.339C247.333 130.024 255.328 127.797 263.353 125.658C291.293 118.206 319.532 111.857 348.072 106.61C350.735 106.119 353.402 105.639 356.074 105.172C351.913 96.743 345.465 89.4846 337.374 84.1217C337.581 82.2764 337.687 80.4224 337.69 78.567C337.69 49.2437 312.688 25.4722 281.836 25.4722C272.337 25.4627 262.998 27.7607 254.729 32.1419C232.892 18.6782 204.391 10.5295 173.208 10.5295C128.897 10.5295 89.9977 26.9836 67.9558 51.7608L171.548 68.1645L235.082 78.2209C162.652 80.247 89.9977 82.2612 17.7756 77.5051C8.24189 86.1515 2.20774 97.6329 0.704357 109.987C-0.799025 122.341 2.32168 134.801 9.53315 145.238C9.53315 146.3 9.58049 147.353 9.66569 148.397C11.5054 148.891 13.282 149.37 14.8756 149.683C40.459 154.749 66.2066 158.989 92.1182 162.402C73.0237 173.437 49.7701 174.999 27.7441 179.672C38.41 187.924 52.8942 192.982 68.8552 192.982H306.509C332.243 192.982 353.102 176.191 353.102 155.475C356.963 149.506 359.537 142.884 360.675 135.986C313.057 140.296 264.846 136.554 217.017 139.106Z" fill="#F9A826"/>
<path opacity="0.1" d="M361 127.163C361.026 118.625 358.86 110.207 354.686 102.618C350.512 95.0294 344.452 88.4929 337.018 83.5599C337.223 81.7155 337.329 79.8626 337.333 78.0082C337.333 48.6849 312.319 24.9222 281.479 24.9222C271.98 24.9127 262.64 27.2095 254.369 31.589C232.533 18.1194 204.028 9.96777 172.845 9.96777C122.122 9.96777 78.4608 31.5447 59.098 62.4858C58.022 62.4267 56.9396 62.3941 55.8478 62.3941C25.005 62.3941 -0.00623859 86.1657 -0.00623859 115.489C-0.0278568 125.846 3.16483 135.986 9.18285 144.673C9.18285 171.056 35.7498 192.444 68.508 192.444H306.168C331.899 192.444 352.758 175.65 352.758 154.934C358.169 146.56 361.021 136.953 361 127.163Z" fill="#F9A826"/>
<path d="M294.821 94.6336C294.37 94.3089 293.842 94.0917 293.281 94.0006C292.691 93.8734 292.088 93.7935 291.489 93.7048L283.72 92.6548C282.935 92.5184 282.136 92.4786 281.34 92.5365C280.941 92.5672 280.553 92.6719 280.198 92.8445C279.842 93.0172 279.527 93.2543 279.27 93.5421C279.039 93.81 278.912 94.1439 278.911 94.4886C278.954 94.8355 279.074 95.1701 279.264 95.4706C279.339 95.611 279.404 95.7563 279.456 95.9054C279.531 96.2399 279.623 96.5707 279.734 96.8962C279.769 96.9667 279.813 97.0324 279.867 97.0915C279.868 97.1082 279.868 97.125 279.867 97.1417C279.782 97.5499 280.056 97.9758 279.933 98.3692C279.826 98.7064 279.475 98.9105 279.255 99.1915C279.107 99.3908 279.026 99.6263 279.02 99.8688C279.014 100.111 279.085 100.35 279.223 100.555C279.46 100.898 279.889 101.132 280.012 101.525C280.173 102.043 279.737 102.543 279.349 102.942C278.635 103.677 277.975 104.457 277.374 105.276C277.205 105.477 277.096 105.717 277.058 105.971C277.024 106.485 277.551 106.938 277.459 107.45C277.386 107.852 276.967 108.097 276.604 108.337C275.263 109.165 274.187 110.496 274.079 112.002C273.735 109.606 272.676 107.351 271.025 105.494C270.573 104.986 270.078 104.474 269.892 103.829C269.822 103.572 269.81 103.297 269.715 103.048C269.4 102.265 268.396 101.927 267.958 101.206C267.642 100.697 267.642 100.043 267.251 99.5967C266.859 99.1501 266.244 99.0495 265.906 98.6177C265.738 98.3252 265.594 98.0205 265.477 97.7067C265.336 97.4508 265.136 97.2267 264.893 97.05C264.847 97.0152 264.798 96.9826 264.748 96.9524C264.801 96.9085 264.843 96.8547 264.871 96.7946C264.9 96.7345 264.915 96.6693 264.916 96.6034C264.916 96.2574 264.549 96.0296 264.231 95.8581C263.821 95.6392 263.42 95.4026 263.028 95.1571C263.455 94.9708 263.825 94.687 264.105 94.3319C264.455 93.8021 264.6 93.1754 264.515 92.5572C264.493 92.0583 264.294 91.5804 263.95 91.1996C263.751 91.0014 263.502 90.8594 263.294 90.6731C262.754 90.1792 262.571 89.4486 262.347 88.7742C262.05 87.8869 261.586 86.9552 260.722 86.4849C260.305 86.2572 259.819 86.1507 259.412 85.9111C259.005 85.6715 258.664 85.219 258.806 84.7842C258.901 84.4884 259.194 84.2843 259.393 84.0329C259.631 83.7078 259.722 83.3082 259.647 82.9206C259.572 82.533 259.337 82.1887 258.992 81.9625C258.759 81.8235 258.472 81.7022 258.424 81.4478C258.242 81.4034 258.076 81.3115 257.947 81.1828C257.817 81.0541 257.729 80.8938 257.692 80.7202C257.621 80.3724 257.621 80.0151 257.692 79.6673C257.774 79.1171 257.855 78.569 257.935 78.0228C258.074 78.0769 258.223 78.1048 258.374 78.1048C258.525 78.1048 258.674 78.0769 258.813 78.0228C259.086 78.4381 259.403 78.8266 259.759 79.1822C260.72 80.2458 261.468 81.4632 261.968 82.7759C262.148 83.2491 262.331 83.7786 262.798 84.03C262.959 84.1157 263.142 84.1601 263.3 84.2518C263.494 84.3789 263.661 84.5395 263.792 84.7251C264.171 85.1953 264.549 85.6627 264.925 86.1329L264.944 86.2039C264.954 86.2456 264.971 86.2855 264.994 86.3222C265.064 86.396 265.161 86.4424 265.266 86.4524C266.427 86.7038 267.73 86.9345 268.737 86.34C269.646 85.8076 270.043 84.7546 270.813 84.0507C271.359 83.5508 272.132 83.1633 272.287 82.4594C272.103 82.4061 271.922 82.3439 271.744 82.2731C271.902 82.1252 272.06 81.9536 272.274 81.7584C272.586 81.4723 272.867 81.1583 273.114 80.8208C273.38 80.4045 273.592 79.9596 273.745 79.4957C274.353 77.8709 274.963 76.2451 275.575 74.6184C275.865 73.8493 276.156 73.0744 276.522 72.3261C276.9 71.5157 277.349 70.7378 277.762 69.9421C278.829 67.8729 279.652 65.701 280.217 63.4646C280.317 63.1595 280.35 62.8386 280.315 62.5211C280.226 62.0094 279.813 61.6072 279.419 61.2434C279.022 60.8409 278.57 60.4898 278.074 60.1993C277.826 60.0542 277.548 59.9571 277.259 59.9134C276.97 59.8697 276.674 59.8804 276.389 59.9449C275.581 60.1667 275.073 60.9417 274.887 61.7196C274.701 62.4975 274.77 63.299 274.692 64.0858C274.578 65.2245 274.161 66.3248 274.06 67.4665C274.007 68.1261 274.06 68.7945 273.975 69.4541C273.82 70.3173 273.499 71.147 273.029 71.9031C272.005 73.7064 270.62 75.3073 268.948 76.6178C268.756 76.7687 268.557 76.9136 268.368 77.0763C268.368 76.9491 268.39 76.8189 268.409 76.6918C268.271 76.7253 268.137 76.7698 268.008 76.8249C268.024 76.6755 268.008 76.5247 267.961 76.3812C267.708 75.6743 266.585 75.4939 266.383 74.7751C266.349 74.5974 266.331 74.4173 266.329 74.2368C266.263 73.6068 265.805 73.0744 265.648 72.4622C265.502 71.8972 265.613 71.2791 265.332 70.7555C265.093 70.4282 264.811 70.1301 264.493 69.8682C264.113 69.4623 263.84 68.9793 263.694 68.4574C263.653 68.3124 263.615 68.1616 263.571 68.0167C263.619 67.6885 263.58 67.3542 263.458 67.0435C263.17 66.3751 262.429 65.9462 262.161 65.2689C261.952 64.7424 262.044 64.0858 261.649 63.6776C261.44 63.4826 261.183 63.3375 260.902 63.2546C259.457 62.7275 257.942 62.392 256.399 62.2579C255.534 62.1839 254.581 62.1425 253.962 61.5717C253.24 60.9091 253.205 59.7172 252.359 59.2055C251.615 58.7529 250.561 59.0872 249.983 59.7231C249.896 59.8166 249.816 59.9154 249.743 60.0189C249.638 59.6224 249.616 59.2106 249.677 58.8062C249.677 58.7056 249.699 58.6021 249.709 58.5104C251.134 58.074 252.346 57.1765 253.129 55.9785C253.129 55.9785 253.129 55.9785 253.129 55.9963L253.167 56.088C253.259 56.3039 253.404 56.5109 253.618 56.5346C253.761 56.533 253.899 56.4861 254.01 56.4015C254.2 56.2775 254.376 56.1347 254.534 55.9756C254.614 55.8928 254.689 55.807 254.761 55.7183C254.906 55.5336 255.031 55.3353 255.133 55.1267C255.29 54.8128 255.396 54.4789 255.449 54.1359C255.506 53.7928 255.512 53.4408 255.575 53.0977C255.634 52.8321 255.711 52.5703 255.805 52.3139C255.837 52.2281 255.868 52.1423 255.897 52.0565C255.925 51.9708 255.966 51.8554 255.998 51.7608C256.195 51.1524 256.302 50.5213 256.313 49.8856C256.313 49.7791 256.313 49.6726 256.313 49.5661C256.302 49.1512 256.202 48.7426 256.02 48.3642C255.838 47.9858 255.577 47.6453 255.253 47.3626C254.71 46.9455 253.991 46.771 253.593 46.2061C253.334 45.8275 253.278 45.3395 253.126 44.8958C252.963 44.3649 252.643 43.8875 252.205 43.5179C251.767 43.1483 251.226 42.9012 250.646 42.8047C249.947 42.7328 249.245 42.9137 248.683 43.3104L248.639 43.343C248.326 43.567 248.061 43.8438 247.856 44.1593C247.439 44.0517 247.058 43.8484 246.746 43.5678C246.43 43.2927 246.187 42.9466 245.868 42.6804C245.571 42.4248 245.205 42.2487 244.81 42.1707C244.414 42.0926 244.004 42.1155 243.622 42.2368C243.227 42.3847 242.876 42.6182 242.597 42.9179C242.318 43.2177 242.119 43.5752 242.015 43.9612C241.842 44.5705 241.873 45.2714 241.51 45.7802C241.23 46.1765 240.769 46.3717 240.447 46.7326C240.247 46.9611 240.11 47.2324 240.049 47.5223C240.011 47.6844 239.993 47.8502 239.996 48.0162C239.996 48.0902 239.996 48.1641 240.015 48.2351C240.015 48.2351 240.015 48.2588 240.015 48.2706C240.026 48.3517 240.044 48.4318 240.068 48.5102C240.158 48.81 240.319 49.0871 240.539 49.3206C240.747 49.5443 241.007 49.7203 241.299 49.8353C241.419 49.8789 241.541 49.9154 241.665 49.9447L242.041 50.0246L242.173 50.0541C241.72 50.8516 241.468 51.7361 241.438 52.6392C241.407 53.5423 241.598 54.4399 241.996 55.2628C241.996 55.3456 241.974 55.4284 241.965 55.5112C241.914 56.6759 241.968 57.8425 242.129 58.9984C242.173 59.4569 242.198 59.9627 241.899 60.3265C241.762 60.4696 241.609 60.5976 241.441 60.708C241.611 60.501 241.785 60.2969 241.962 60.0928C241.517 59.6728 240.813 59.6196 240.182 59.661C238.961 59.7465 237.775 60.086 236.711 60.6548C236.004 61.0363 235.278 61.5421 234.47 61.4534C233.994 61.4031 233.524 61.1576 233.06 61.2759C232.799 61.3759 232.556 61.5114 232.337 61.6782C232.165 61.7942 231.956 61.8544 231.744 61.8497C231.248 61.2789 230.482 60.8914 229.888 60.427C229.213 59.8637 228.595 59.2428 228.042 58.5725C227.02 57.416 226.001 56.2566 224.997 55.0883C224.152 54.1063 223.284 53.0444 223.135 51.7874C223.12 51.6627 223.113 51.5373 223.113 51.4118C223.134 50.8145 223.214 50.2203 223.353 49.6371C223.391 49.4963 223.391 49.349 223.353 49.2082C223.259 48.9124 222.896 48.803 222.583 48.7379C222.624 48.5102 222.653 48.2765 222.668 48.0547C222.845 45.511 222.653 42.9259 223.227 40.4355C223.445 39.4772 223.801 38.507 224.537 37.812C225.688 36.7205 227.616 36.4573 228.5 35.1648C229.238 34.0881 228.945 32.5649 228.017 31.6154C227.089 30.666 225.66 30.2785 224.3 30.3259C223.918 30.3136 223.541 30.4083 223.218 30.598C222.915 30.85 222.688 31.1724 222.561 31.5326L221.207 34.6176C220.815 35.4208 220.484 36.249 220.217 37.0962C219.838 38.3917 219.753 39.7582 219.453 41.0655C219.453 42.0711 218.762 43.3252 218.383 44.251C217.96 45.2921 217.503 46.3215 217.121 47.3833C217.026 47.6495 216.695 48.4392 216.49 49.1579C216.412 49.2002 216.34 49.2509 216.275 49.3088C216.11 49.5067 215.961 49.7153 215.827 49.9329C215.54 50.2878 215.073 50.4771 214.757 50.8202C214.442 51.1633 214.376 51.7933 214.814 51.9649C214.903 51.9929 214.995 52.0118 215.089 52.0211C215.146 52.0256 215.203 52.0345 215.259 52.0477C215.732 52.1719 215.919 52.7309 215.849 53.1923C215.78 53.6537 215.534 54.0797 215.493 54.5411C215.407 55.3574 215.919 56.1176 216.411 56.8038C216.921 57.5476 217.484 58.2581 218.096 58.9304C218.541 59.3977 219.043 59.8177 219.491 60.2673C221.198 61.9118 222.555 63.8344 224.088 65.6209C224.64 66.2951 225.268 66.9119 225.96 67.4606C226.412 67.792 226.885 68.0972 227.377 68.3745L230.015 69.9421C230.314 70.1477 230.652 70.2973 231.012 70.3829C231.129 70.3976 231.248 70.3976 231.365 70.3829C231.381 70.4568 231.394 70.5278 231.413 70.6017C231.618 71.3767 232.069 72.0806 232.119 72.8703C232.17 73.6601 232.094 74.4675 232.154 75.2661C232.211 76.0026 232.385 76.745 232.429 77.4697C232.517 78.8657 232.151 80.244 231.798 81.6105C231.264 83.61 230.942 85.6508 229.904 87.4639C229.614 87.9638 229.273 88.4725 229.273 89.0434C229.273 89.1114 229.273 89.1824 229.292 89.2504L228.819 89.5018C228.68 89.5758 228.541 89.6497 228.415 89.7266C227.815 90.0934 227.175 90.4986 226.928 91.1316C226.73 91.6433 226.821 92.2289 226.581 92.7258C226.57 92.7481 226.557 92.7698 226.543 92.7909C226.291 93.2523 225.789 93.5954 225.676 94.1012C225.591 94.4886 225.755 94.8998 225.676 95.2843C225.676 95.2843 225.676 95.2843 225.676 95.2991C225.604 95.4922 225.547 95.6899 225.505 95.8906C225.502 95.9562 225.508 96.0219 225.524 96.0858C225.584 96.3099 225.717 96.5113 225.903 96.6626C226.017 96.7649 226.14 96.857 226.272 96.9377C226.407 97.0205 226.546 97.0974 226.689 97.1684L226.771 97.2098C226.891 97.2689 227.011 97.3251 227.134 97.3784L227.216 97.4109C227.358 97.47 227.503 97.5233 227.648 97.5706L227.749 97.6002C227.863 97.6357 227.979 97.6682 228.096 97.6948L228.175 97.7185L228.248 97.7333L228.563 97.7954L228.68 97.8161C228.819 97.8378 228.961 97.8556 229.106 97.8694H229.232C229.339 97.8694 229.443 97.8841 229.548 97.8871H229.696C229.806 97.8871 229.914 97.8871 230.012 97.8871H230.125C230.273 97.8871 230.422 97.8664 230.57 97.8486H230.617C230.75 97.8309 230.882 97.8102 231.015 97.7836L231.116 97.7629C231.239 97.7363 231.362 97.7096 231.485 97.6741L231.551 97.6564C231.7 97.615 231.848 97.5706 231.993 97.5174C232.495 97.3239 232.983 97.0975 233.451 96.84C233.767 96.6774 234.082 96.5117 234.398 96.3609C234.632 96.2504 234.872 96.1516 235.117 96.0651C235.714 95.8261 236.363 95.7247 237.011 95.7693C237.33 95.8101 237.646 95.8704 237.957 95.9498C237.957 95.9823 237.957 96.0148 237.957 96.0474C238.214 97.4671 238.467 98.8868 238.718 100.307C239.131 100.028 239.568 99.7815 240.024 99.5701C239.939 99.7844 239.883 100.008 239.857 100.236C239.838 100.412 239.838 100.589 239.857 100.765C239.885 101.046 239.948 101.357 239.769 101.578C239.658 101.714 239.453 101.791 239.393 101.945C239.349 102.102 239.339 102.266 239.362 102.427C239.349 102.611 239.266 102.785 239.128 102.916C238.99 103.047 238.806 103.128 238.611 103.143C238.701 103.381 238.703 103.641 238.617 103.88C238.53 104.119 238.36 104.325 238.134 104.462C238.002 104.522 237.879 104.597 237.768 104.687C237.66 104.818 237.587 104.971 237.557 105.134C237.139 106.598 236.282 107.92 235.086 108.94C234.637 109.271 234.228 109.646 233.864 110.058C233.64 110.378 233.455 110.72 233.312 111.079C232.471 113.007 231.617 114.937 230.75 116.867C230.27 117.947 229.803 119.044 229.652 120.206C229.273 123.395 226.244 126.098 226.812 129.263C226.927 130.054 227.267 130.801 227.796 131.425C228.427 132.138 229.374 132.546 230.321 132.877C232.754 133.765 235.319 134.25 237.875 134.738L241.889 135.51C242.677 135.68 243.476 135.798 244.281 135.865C245.25 135.927 246.244 135.841 247.187 136.072C247.771 136.214 248.33 136.477 248.932 136.507C249.45 136.533 250.087 136.43 250.393 136.826C250.7 137.222 250.463 137.746 250.753 138.098C251.22 138.657 252.359 138.098 252.867 138.624C253.006 138.827 253.113 139.047 253.183 139.278C253.26 139.421 253.368 139.548 253.499 139.651C253.529 139.818 253.542 139.987 253.536 140.156C253.471 140.843 253.318 141.52 253.082 142.174C252.703 143.375 252.326 144.576 251.949 145.779C251.805 146.204 251.7 146.639 251.634 147.081C251.61 147.295 251.61 147.511 251.634 147.725C251.7 148.379 252.101 149.053 252.766 149.266C253.283 149.394 253.832 149.331 254.3 149.089C254.752 148.868 255.175 148.6 255.562 148.29C256.261 147.795 256.875 147.202 257.383 146.533C258.961 144.321 258.45 141.328 259.557 138.882C260.293 137.249 261.725 135.924 262.202 134.203C262.313 133.875 262.326 133.525 262.24 133.191C262.041 132.599 261.369 132.262 260.741 132.049H260.712C260.196 131.877 259.669 131.736 259.134 131.626C259.002 131.6 258.866 131.579 258.731 131.558C258.43 131.329 258.191 131.038 258.033 130.706C258.008 130.53 257.959 130.358 257.885 130.195C257.835 130.124 257.767 130.066 257.688 130.025C257.609 129.984 257.521 129.961 257.43 129.958C257.115 129.929 256.692 130.035 256.348 130.011C255.644 129.964 255.177 129.316 254.546 129.018C253.915 128.719 253.23 128.793 252.558 128.837C252.318 128.868 252.073 128.854 251.839 128.796C251.558 128.675 251.302 128.51 251.081 128.308C250.693 128.024 250.24 127.83 249.757 127.739C249.275 127.648 248.776 127.663 248.301 127.784C247.999 127.898 247.68 127.966 247.355 127.985C246.739 127.953 246.304 127.438 245.849 127.048C244.606 125.98 242.836 125.699 241.327 124.998C241.097 124.917 240.904 124.762 240.785 124.56C240.611 124.158 241.002 123.756 241.356 123.481L243.95 121.46C246.79 119.248 250.34 117.583 251.659 114.338C251.796 113.903 252.01 113.492 252.29 113.123C252.392 113.01 252.51 112.91 252.64 112.827C253.214 112.478 253.909 112.351 254.581 112.472C255.399 112.644 256.175 112.961 256.866 113.406C257.995 114.047 259.095 114.737 260.163 115.477C261.222 116.186 262.229 116.961 263.177 117.796C264.833 119.275 266.212 121.029 267.756 122.623C269.299 124.217 271.063 125.705 273.205 126.468C275.348 127.231 277.939 127.199 279.778 125.918C281.902 124.439 282.584 121.795 283.12 119.369C284.303 118.299 284.66 116.669 285.238 115.228C285.6 114.315 286.064 113.454 286.456 112.543C286.923 111.472 287.289 110.366 287.655 109.263C288.07 108.155 288.351 107.007 288.494 105.841C288.646 103.998 288.119 102.037 288.671 100.307C289.4 100.156 290.062 99.7712 290.779 99.5464C291.845 99.2181 292.988 99.2713 294.117 99.2773H294.19C294.579 99.3161 294.971 99.2295 295.301 99.0318C295.679 98.736 295.739 98.2302 295.758 97.7717C295.802 96.6389 295.727 95.3671 294.821 94.6336ZM249.1 44.18C248.839 44.2405 248.569 44.2585 248.301 44.2333L249.1 44.18Z" fill="url(#paint0_linear)"/>
<path d="M250.343 62.891C249.961 63.1952 249.513 63.4182 249.03 63.5446L246.793 64.2959C245.578 64.7041 244.309 65.1152 243.028 64.9673C242.312 64.8845 239.241 64.4616 238.778 63.938C238.071 63.1276 240.548 61.9356 241.394 61.2524C241.585 61.1232 241.763 60.9766 241.924 60.8146C242.239 60.4538 242.198 59.948 242.154 59.4925C241.994 58.3386 241.939 57.1739 241.99 56.0112C242.015 55.734 242.057 55.4585 242.116 55.186C242.432 53.8254 243.782 54.3223 244.849 54.6832C246.133 55.0741 247.374 55.5782 248.557 56.1887C248.917 56.3627 249.23 56.6116 249.472 56.9163C249.939 57.5788 249.753 58.4484 249.677 59.2825C249.611 59.9303 249.614 60.5514 250.046 61.0217C250.264 61.2015 250.463 61.3995 250.643 61.6132C250.744 61.8285 250.769 62.0683 250.715 62.2979C250.661 62.5276 250.531 62.7353 250.343 62.891Z" fill="#BE6F72"/>
<path d="M219.437 41.5744C219.752 40.2641 219.822 38.9124 220.2 37.6139C220.468 36.7697 220.799 35.9443 221.191 35.1442L222.583 32.1006C222.71 31.7413 222.937 31.4198 223.239 31.169C223.564 30.9806 223.94 30.886 224.322 30.8968C225.682 30.8495 227.111 31.2459 228.039 32.1835C228.967 33.1211 229.26 34.6384 228.522 35.7121C227.638 37.0046 225.71 37.2649 224.558 38.3534C223.823 39.0484 223.467 40.0156 223.249 40.971C222.674 43.4555 222.867 46.0317 222.69 48.5695C222.633 49.3592 222.469 50.2613 221.744 50.6695C221.305 50.871 220.817 50.9598 220.33 50.9268L218.26 50.9593C217.913 50.9593 216.654 51.1634 216.423 50.9179C216.019 50.4891 216.941 48.3536 217.108 47.8774C217.48 46.8214 217.938 45.7921 218.37 44.754C218.746 43.8282 219.437 42.577 219.437 41.5744Z" fill="#BE6F72"/>
<path d="M262.179 134.495C261.703 136.205 260.27 137.536 259.535 139.166C258.427 141.606 258.926 144.59 257.361 146.797C256.853 147.467 256.239 148.06 255.54 148.557C255.152 148.865 254.729 149.132 254.277 149.352C253.81 149.594 253.26 149.658 252.744 149.53C252.078 149.317 251.677 148.642 251.611 147.992C251.587 147.778 251.587 147.563 251.611 147.35C251.677 146.909 251.783 146.475 251.927 146.051C252.305 144.854 252.683 143.656 253.059 142.455C253.295 141.803 253.448 141.128 253.514 140.443C253.555 139.698 253.05 138.728 253.265 138.033C253.362 137.719 253.728 137.441 253.896 137.178C254.133 136.799 254.316 136.392 254.438 135.968C254.697 135.143 254.874 134.262 255.417 133.567C255.771 133.154 256.185 132.791 256.647 132.487C256.989 132.207 257.388 131.996 257.821 131.869C258.241 131.8 258.672 131.819 259.083 131.925C259.619 132.032 260.146 132.173 260.661 132.345H260.69C261.321 132.558 261.99 132.886 262.189 133.484C262.285 133.815 262.282 134.165 262.179 134.495Z" fill="#3F3D56"/>
<path d="M295.755 98.1328C295.736 98.5913 295.676 99.1029 295.297 99.3898C294.968 99.5876 294.576 99.6742 294.187 99.6353H294.101C292.975 99.6353 291.829 99.5762 290.763 99.9045C289.952 100.156 289.207 100.617 288.361 100.709C287.197 100.833 286.102 100.236 285.07 99.7152C284.099 99.2246 283.101 98.7804 282.082 98.3842C281.413 98.1269 280.046 97.9612 279.724 97.275C279.614 96.9503 279.522 96.6206 279.447 96.2872C279.394 96.1381 279.329 95.9928 279.254 95.8524C279.065 95.5527 278.945 95.2192 278.901 94.8733C278.902 94.5286 279.029 94.1947 279.261 93.9268C279.518 93.6412 279.833 93.4061 280.188 93.235C280.543 93.064 280.93 92.9603 281.328 92.9301C282.123 92.8722 282.923 92.9119 283.707 93.0484L291.476 94.0954C292.075 94.1753 292.678 94.2552 293.268 94.3912C293.829 94.4823 294.357 94.6995 294.808 95.0242C295.726 95.7459 295.802 97.0148 295.755 98.1328Z" fill="#3F3D56"/>
<path d="M288.926 100.026C287.98 101.898 288.661 104.113 288.491 106.184C288.348 107.347 288.066 108.492 287.651 109.597C287.285 110.697 286.919 111.801 286.452 112.868C286.061 113.756 285.597 114.643 285.234 115.548C284.657 116.991 284.288 118.615 283.117 119.689C282.58 122.108 281.899 124.753 279.775 126.22C277.929 127.497 275.357 127.542 273.202 126.77C271.047 125.998 269.295 124.519 267.752 122.925C266.209 121.331 264.83 119.594 263.173 118.11C262.224 117.274 261.215 116.5 260.154 115.794C259.085 115.066 257.986 114.382 256.856 113.741C256.164 113.297 255.389 112.981 254.571 112.809C253.9 112.688 253.204 112.816 252.631 113.164C252.5 113.248 252.382 113.347 252.28 113.46C251.999 113.828 251.786 114.238 251.649 114.673C250.324 117.908 246.768 119.571 243.928 121.777L241.334 123.791C240.98 124.066 240.589 124.469 240.762 124.868C240.882 125.07 241.074 125.225 241.305 125.306C242.814 126.004 244.584 126.285 245.827 127.35C246.282 127.74 246.717 128.255 247.332 128.284C247.657 128.266 247.977 128.199 248.279 128.086C248.754 127.966 249.252 127.95 249.734 128.04C250.217 128.131 250.67 128.324 251.059 128.607C251.28 128.809 251.536 128.974 251.816 129.095C252.051 129.153 252.296 129.167 252.536 129.136C253.208 129.092 253.921 129.036 254.524 129.316C255.127 129.597 255.622 130.26 256.326 130.307C256.67 130.331 257.08 130.225 257.408 130.254C257.499 130.257 257.587 130.28 257.666 130.321C257.745 130.362 257.812 130.42 257.863 130.491C257.936 130.653 257.986 130.824 258.011 130.999C258.14 131.417 258.576 131.671 258.86 132.014C259.295 132.54 259.358 133.256 259.314 133.922C259.171 136.003 258.182 137.953 256.55 139.37C256.087 139.814 255.496 140.122 254.849 140.257C254.525 140.321 254.188 140.287 253.886 140.161C253.583 140.036 253.331 139.824 253.164 139.556C253.094 139.326 252.987 139.107 252.848 138.906C252.34 138.382 251.201 138.938 250.734 138.379C250.444 138.03 250.652 137.471 250.374 137.11C250.097 136.749 249.428 136.814 248.913 136.794C248.311 136.764 247.752 136.498 247.168 136.359C246.222 136.128 245.231 136.214 244.262 136.152C243.457 136.085 242.658 135.967 241.87 135.797L237.856 135.028C235.3 134.54 232.735 134.046 230.302 133.173C229.371 132.842 228.434 132.434 227.777 131.724C227.248 131.1 226.908 130.354 226.793 129.565C226.221 126.409 229.251 123.712 229.633 120.532C229.768 119.372 230.264 118.278 230.731 117.201C231.587 115.277 232.441 113.351 233.293 111.425C233.431 111.066 233.611 110.723 233.83 110.402C234.193 109.99 234.602 109.616 235.051 109.287C236.247 108.269 237.104 106.951 237.522 105.489C237.553 105.326 237.625 105.173 237.733 105.042C237.845 104.954 237.968 104.88 238.099 104.82C238.325 104.683 238.494 104.478 238.58 104.239C238.667 104.001 238.665 103.742 238.576 103.504C238.772 103.489 238.955 103.408 239.093 103.277C239.231 103.146 239.314 102.972 239.327 102.788C239.304 102.628 239.314 102.465 239.358 102.309C239.434 102.155 239.623 102.078 239.734 101.942C239.914 101.721 239.85 101.41 239.822 101.132C239.803 100.956 239.803 100.779 239.822 100.603C239.891 99.9762 240.19 99.3918 240.668 98.9491C241.422 98.254 242.495 98.4345 243.536 98.2688C244.575 98.0587 245.589 97.7546 246.566 97.3608C249.304 96.3496 252.187 95.7246 255.12 95.5063C258.069 95.289 261.03 95.7309 263.76 96.7959C264.158 96.9467 264.532 97.1455 264.874 97.3874C265.117 97.563 265.316 97.786 265.458 98.0411C265.575 98.3542 265.718 98.6579 265.887 98.9491C266.225 99.381 266.862 99.52 267.232 99.9281C267.601 100.336 267.632 101.025 267.938 101.531C268.377 102.253 269.393 102.587 269.696 103.371C269.791 103.619 269.803 103.892 269.873 104.149C270.043 104.794 270.554 105.302 271.006 105.811C272.66 107.666 273.719 109.922 274.06 112.318C274.161 110.819 275.237 109.491 276.585 108.662C276.948 108.441 277.367 108.195 277.44 107.793C277.531 107.284 277.004 106.832 277.039 106.314C277.077 106.061 277.186 105.822 277.355 105.622C277.956 104.805 278.616 104.027 279.33 103.294C279.718 102.895 280.154 102.407 279.993 101.88C279.87 101.487 279.441 101.256 279.204 100.913C279.066 100.709 278.995 100.47 279.001 100.228C279.006 99.9863 279.088 99.7512 279.235 99.5525C279.456 99.2715 279.807 99.0674 279.914 98.7332C280.037 98.3398 279.762 97.9139 279.848 97.5087C279.963 97.1842 280.192 96.9058 280.498 96.719C280.916 96.3616 281.392 96.0682 281.908 95.8494C282.741 95.5536 283.669 95.663 284.553 95.7784C286.029 95.9707 287.686 96.2664 288.519 97.4259C289.052 98.1505 289.324 99.2508 288.926 100.026Z" fill="#65617D"/>
<path opacity="0.1" d="M295.755 98.1328C295.736 98.5912 295.676 99.1029 295.298 99.3898C294.968 99.5876 294.576 99.6741 294.187 99.6353H294.102C294.231 99.0201 295.029 98.6681 295.168 98.044C295.192 97.8523 295.173 97.6581 295.114 97.4734C295.054 97.2887 294.954 97.1175 294.821 96.9704C294.146 96.1156 293.06 95.6423 291.981 95.2963C288.932 94.3165 285.666 94.0874 282.495 94.6308C281.633 94.7624 280.794 95.0042 280.002 95.3495C279.74 95.5035 279.487 95.6713 279.245 95.8523C279.056 95.5527 278.935 95.2192 278.892 94.8733C278.893 94.5286 279.02 94.1947 279.251 93.9268C279.509 93.6412 279.824 93.4061 280.179 93.235C280.533 93.064 280.921 92.9603 281.318 92.9301C282.113 92.8722 282.913 92.9119 283.698 93.0484L291.467 94.0954C292.066 94.1753 292.669 94.2552 293.259 94.3912C293.819 94.4823 294.348 94.6995 294.799 95.0242C295.727 95.7459 295.802 97.0147 295.755 98.1328Z" fill="black"/>
<path opacity="0.1" d="M262.179 134.495C261.703 136.205 260.27 137.536 259.535 139.166C258.427 141.606 258.926 144.59 257.361 146.797C256.853 147.467 256.239 148.06 255.54 148.557C255.152 148.866 254.729 149.132 254.278 149.352C253.81 149.594 253.26 149.658 252.744 149.53C252.078 149.317 251.677 148.642 251.611 147.992C251.587 147.778 251.587 147.563 251.611 147.35L251.63 147.397C251.904 148.018 252.353 148.669 253.059 148.778C253.325 148.796 253.591 148.763 253.842 148.68C254.093 148.597 254.323 148.466 254.517 148.296C255.559 147.513 256.165 146.344 256.742 145.217C257.194 144.405 257.552 143.549 257.809 142.665C257.935 142.162 257.995 141.647 258.124 141.144C258.724 138.701 260.765 136.708 261.217 134.232C261.253 134.062 261.262 133.887 261.242 133.715C261.182 133.489 261.091 133.272 260.971 133.07C260.861 132.841 260.78 132.601 260.731 132.354C261.362 132.567 262.031 132.895 262.23 133.493C262.311 133.825 262.294 134.172 262.179 134.495Z" fill="black"/>
<path opacity="0.1" d="M257.415 130.254C257.122 130.97 256.631 131.599 255.991 132.076C255.093 132.718 254.041 133.144 252.927 133.318C252.409 133.442 251.865 133.436 251.35 133.301C250.649 133.073 250.144 132.458 249.428 132.28C248.917 132.15 248.367 132.265 247.85 132.194C246.919 132.073 246.196 131.408 245.445 130.875C243.145 129.254 240.125 128.731 237.825 127.11C237.722 127.051 237.638 126.969 237.579 126.87C237.534 126.764 237.518 126.649 237.531 126.536C237.54 125.553 237.775 124.583 238.222 123.694C238.588 123.073 239.024 122.491 239.522 121.958C241.583 119.591 243.653 117.207 246.121 115.211C247.156 114.374 248.285 113.593 249.592 113.214C250.318 113.004 251.75 112.806 252.634 113.161C252.503 113.245 252.386 113.344 252.284 113.457C252.003 113.825 251.789 114.235 251.652 114.67C250.324 117.908 246.768 119.571 243.928 121.777L241.334 123.791C240.98 124.066 240.589 124.469 240.763 124.868C240.882 125.07 241.074 125.225 241.305 125.306C242.814 126.004 244.584 126.285 245.827 127.35C246.282 127.74 246.717 128.255 247.332 128.284C247.657 128.266 247.977 128.199 248.279 128.086C248.754 127.966 249.252 127.95 249.734 128.04C250.217 128.131 250.67 128.324 251.059 128.607C251.28 128.809 251.536 128.974 251.817 129.095C252.051 129.153 252.296 129.167 252.536 129.136C253.208 129.092 253.921 129.035 254.524 129.316C255.127 129.597 255.622 130.26 256.326 130.307C256.676 130.331 257.086 130.219 257.415 130.254Z" fill="black"/>
<path d="M228.393 90.1114C227.793 90.4722 227.156 90.8804 226.909 91.5075C226.708 92.0192 226.802 92.6048 226.559 93.1017C226.316 93.5986 225.77 93.9447 225.65 94.4771C225.565 94.8645 225.732 95.2727 225.65 95.6602C225.579 95.8616 225.521 96.0671 225.477 96.2754C225.445 96.7161 225.849 97.074 226.244 97.3195C227.083 97.8314 228.04 98.1517 229.035 98.2544C230.031 98.3571 231.039 98.2395 231.977 97.911C232.82 97.6152 233.58 97.1331 234.388 96.7545C235.176 96.3293 236.077 96.1241 236.985 96.163C237.506 96.2162 238.005 96.3937 238.525 96.4588C238.782 96.5064 239.048 96.4947 239.299 96.4246C239.551 96.3545 239.78 96.2282 239.967 96.0565C240.128 95.8484 240.236 95.6087 240.283 95.3555C240.722 93.7317 240.523 92.0103 240.106 90.3776C239.69 88.7449 239.059 87.1743 238.614 85.5505C238.298 84.3467 238.055 83.1133 237.528 81.9746C237.001 80.8359 236.114 79.777 234.874 79.3422C234.776 79.2972 234.665 79.2837 234.559 79.3037C234.479 79.3349 234.409 79.3836 234.354 79.4457C233.373 80.4201 232.633 81.5856 232.189 82.859C231.693 84.2757 231.558 85.7783 231.103 87.201C230.908 87.7925 230.655 88.5852 230.157 89.0377C229.658 89.4903 228.957 89.7713 228.393 90.1114Z" fill="#3F3D56"/>
<path opacity="0.6" d="M240.292 95.3466C240.239 95.6006 240.126 95.8402 239.961 96.0476C239.774 96.2198 239.545 96.3463 239.293 96.4159C239.042 96.4855 238.776 96.4962 238.519 96.4469C238.001 96.3877 237.503 96.2073 236.982 96.1511C236.074 96.1117 235.173 96.317 234.385 96.7426C233.577 97.1212 232.807 97.5915 231.971 97.8962C230.748 98.3309 229.411 98.4022 228.143 98.1002C227.47 97.9416 226.83 97.6776 226.25 97.3194C225.852 97.0769 225.452 96.7278 225.483 96.2753C225.527 96.068 225.585 95.8635 225.657 95.663C225.739 95.2756 225.575 94.8674 225.657 94.4799C225.777 93.9475 226.326 93.5926 226.566 93.1016C226.805 92.6106 226.714 92.022 226.913 91.5103C227.159 90.8803 227.799 90.4751 228.399 90.1113C228.999 89.7475 229.712 89.4695 230.191 89.0288C230.253 88.9602 230.309 88.887 230.359 88.8099C230.704 88.3099 230.958 87.759 231.11 87.1802C231.573 85.7545 231.7 84.2549 232.192 82.8352C232.638 81.5629 233.379 80.3985 234.36 79.4249C234.412 79.3614 234.482 79.3124 234.562 79.2829C234.668 79.2626 234.779 79.2751 234.877 79.3184C236.114 79.7562 237.001 80.8151 237.531 81.9538C238.061 83.0925 238.285 84.32 238.617 85.5268C239.059 87.1506 239.693 88.7271 240.109 90.3568C240.526 91.9865 240.731 93.7198 240.292 95.3466Z" fill="#544160"/>
<path opacity="0.1" d="M249.677 59.2736C248.193 59.7155 246.588 59.6277 245.169 59.0271C243.75 58.4265 242.618 57.3556 241.99 56.02C242.015 55.7428 242.057 55.4673 242.116 55.1948C242.432 53.8342 243.783 54.3311 244.849 54.692C246.133 55.0829 247.375 55.587 248.557 56.1975C248.917 56.3715 249.23 56.6204 249.472 56.9251C249.939 57.5788 249.753 58.4483 249.677 59.2736Z" fill="black"/>
<path d="M247.771 59.2559C251.256 59.2559 254.082 56.6074 254.082 53.3403C254.082 50.0733 251.256 47.4248 247.771 47.4248C244.285 47.4248 241.459 50.0733 241.459 53.3403C241.459 56.6074 244.285 59.2559 247.771 59.2559Z" fill="#BE6F72"/>
<path opacity="0.1" d="M264.896 97.5471C264.896 98.0381 264.186 98.1948 263.659 98.1682C261.766 98.0647 259.914 97.5766 258.039 97.7245C255.669 97.9257 253.492 99.1531 251.116 99.2655C250.201 99.3099 249.27 99.1827 248.367 99.3395C247.2 99.5436 246.158 100.209 244.969 100.304C243.937 100.387 242.918 100.023 241.886 100.061C241.164 100.101 240.461 100.289 239.825 100.611C239.894 99.985 240.193 99.4006 240.671 98.9579C241.425 98.2628 242.498 98.4433 243.539 98.2776C244.578 98.0675 245.593 97.7634 246.569 97.3696C249.307 96.3584 252.19 95.7334 255.124 95.5151C258.07 95.2954 261.03 95.7343 263.76 96.7958C264.158 96.9466 264.532 97.1455 264.874 97.3873C264.892 97.439 264.899 97.493 264.896 97.5471Z" fill="black"/>
<path d="M244.852 64.1419L242.296 63.2546L241.217 62.8819C240.777 62.7092 240.314 62.5937 239.841 62.5388C238.604 62.4501 237.439 63.2221 236.78 64.207C236.12 65.1919 235.871 66.3662 235.66 67.5108C235.369 69.0765 235.123 70.648 234.921 72.2255C234.704 73.65 234.593 75.0871 234.59 76.5261C234.662 80.1878 235.489 83.7992 236.398 87.3633C236.843 88.9436 237.179 90.549 237.405 92.1697C237.48 92.8381 237.515 93.5096 237.591 94.181C237.673 94.9352 237.805 95.6806 237.938 96.4289L238.698 100.679C239.645 100.049 240.721 99.4961 241.886 99.4635C242.917 99.428 243.94 99.7889 244.969 99.7061C246.152 99.6144 247.2 98.9489 248.367 98.7448C249.27 98.588 250.201 98.7123 251.119 98.6708C253.492 98.5585 255.672 97.328 258.039 97.1299C259.917 96.9701 261.782 97.467 263.662 97.5706C264.186 97.6001 264.896 97.4434 264.896 96.9494C264.896 96.6063 264.53 96.3786 264.211 96.207C262.709 95.3592 261.279 94.4029 259.936 93.3469C258.692 92.4241 257.43 91.4776 256.575 90.2294C254.514 87.2273 255.221 83.1663 253.463 79.9985C252.034 77.4252 253.463 74.0534 253.463 71.1518C253.463 69.7055 253.463 68.2414 253.101 66.8364C252.874 66.0507 252.591 65.2799 252.255 64.5294L251.027 61.616C251.002 61.5308 250.952 61.454 250.882 61.3942C250.8 61.3409 250.702 61.313 250.601 61.3143C249.864 61.2729 249.137 61.4912 248.563 61.9266C247.985 62.3673 247.616 63.0002 247.048 63.4587C246.427 63.9645 245.625 64.4081 244.852 64.1419Z" fill="#E3E8F4"/>
<path d="M248.976 62.4621C249.178 61.6517 249.396 60.8087 249.973 60.1758C250.551 59.5428 251.605 59.2086 252.35 59.6611C253.195 60.1758 253.23 61.3648 253.953 62.0273C254.584 62.5952 255.53 62.6396 256.389 62.7135C257.932 62.8452 259.448 63.1797 260.892 63.7073C261.173 63.7892 261.43 63.9332 261.64 64.1273C262.034 64.5473 261.955 65.1921 262.151 65.7157C262.419 66.39 263.161 66.8189 263.448 67.4903C263.763 68.2357 263.448 69.0698 263.183 69.8358C262.706 71.2112 262.406 72.6398 261.943 74.0211C261.479 75.4023 260.819 76.7629 259.734 77.804C259.254 78.2655 258.541 78.6914 257.91 78.4163L257.667 80.0579C257.596 80.4047 257.596 80.761 257.667 81.1079C257.703 81.2814 257.792 81.4417 257.921 81.5704C258.051 81.6991 258.216 81.791 258.399 81.8355C258.446 82.0898 258.733 82.2111 258.967 82.3501C259.139 82.4606 259.287 82.6021 259.4 82.7663C259.514 82.9305 259.591 83.1143 259.629 83.3069C259.666 83.4995 259.662 83.6971 259.617 83.8882C259.572 84.0794 259.488 84.2604 259.368 84.4206C259.169 84.672 258.875 84.8701 258.781 85.1689C258.639 85.6007 258.976 86.0562 259.387 86.2928C259.797 86.5294 260.28 86.6389 260.696 86.8666C261.561 87.3339 262.025 88.2538 262.321 89.1471C262.542 89.8214 262.725 90.552 263.268 91.043C263.476 91.2293 263.726 91.3713 263.924 91.5665C264.268 91.9476 264.467 92.4253 264.489 92.9241C264.576 93.5423 264.431 94.1695 264.079 94.6988C263.448 95.5447 262.271 95.7961 261.239 96.1777C259.563 96.8225 258.184 97.976 256.707 98.958C256.106 99.412 255.397 99.7244 254.641 99.869C253.618 99.9961 252.612 99.5732 251.583 99.5347C250.967 99.5401 250.355 99.6156 249.759 99.7595L247.866 100.144C247.967 98.7687 247.159 97.3903 246.707 96.0801C245.855 93.6133 245.698 90.975 245.9 88.3899C246.102 85.8048 246.663 83.2552 247.219 80.7174C247.607 78.9428 247.569 77.0883 248.165 75.3639C248.724 73.7046 249.522 72.1104 249.816 70.383C250.295 67.5879 248.301 65.2188 248.976 62.4621Z" fill="#544160"/>
<path d="M263.331 67.931C263.505 68.2315 263.628 68.5559 263.694 68.8922C263.84 69.4133 264.113 69.8953 264.493 70.3001C264.81 70.5626 265.092 70.8606 265.332 71.1875C265.622 71.7021 265.512 72.3291 265.648 72.8911C265.805 73.5034 266.263 74.0358 266.329 74.6658C266.331 74.8463 266.349 75.0264 266.383 75.2041C266.588 75.9199 267.711 76.0914 267.961 76.8072C268.128 77.2716 267.841 77.7774 267.894 78.2654C267.934 78.4163 267.943 78.5727 267.923 78.7268C267.851 78.9011 267.726 79.0515 267.563 79.1586C266.519 80.0938 265.796 81.2997 265.487 82.6222C265.183 83.9374 265.023 85.2783 265.01 86.624L263.776 85.0949C263.646 84.9094 263.479 84.7488 263.284 84.6216C263.126 84.5329 262.943 84.4885 262.782 84.3998C262.315 84.1513 262.132 83.6249 261.952 83.1516C261.453 81.8416 260.704 80.6271 259.743 79.5668C259.242 79.0137 258.658 78.4576 258.547 77.7389C258.514 77.4088 258.534 77.0759 258.604 76.751C258.92 74.8137 259.257 72.829 260.264 71.1105C260.734 70.306 261.343 69.5784 261.795 68.7621C262.098 68.2208 262.524 66.8129 263.331 67.931Z" fill="#544160"/>
<path d="M232.201 69.7915C232.207 70.0405 232.139 70.2862 232.006 70.5014C231.885 70.6324 231.728 70.7294 231.552 70.7816C231.376 70.8338 231.188 70.8392 231.008 70.7971C230.649 70.7126 230.311 70.564 230.011 70.3594C229.132 69.8388 228.253 69.3173 227.373 68.7947C226.882 68.5174 226.409 68.2132 225.956 67.8837C225.264 67.3361 224.637 66.7203 224.085 66.047C222.551 64.2723 221.195 62.3468 219.487 60.723C219.023 60.2793 218.541 59.8534 218.093 59.3891C217.48 58.7178 216.917 58.0083 216.407 57.2654C215.915 56.5821 215.404 55.8249 215.489 55.0086C215.54 54.5472 215.776 54.1213 215.846 53.6628C215.915 53.2044 215.729 52.6454 215.256 52.5211C215.2 52.508 215.143 52.499 215.085 52.4945C214.992 52.4852 214.9 52.4664 214.811 52.4383C214.372 52.2668 214.438 51.6308 214.754 51.2966C215.07 50.9624 215.537 50.7761 215.824 50.4093C215.957 50.1917 216.107 49.9831 216.272 49.7852C216.483 49.6154 216.736 49.4966 217.007 49.4391C218.827 48.9364 220.753 48.8682 222.608 49.241C222.924 49.306 223.284 49.4244 223.378 49.7113C223.416 49.851 223.416 49.9974 223.378 50.1372C223.239 50.7204 223.159 51.3145 223.138 51.9118C223.138 52.0364 223.145 52.1608 223.16 52.2845C223.309 53.5386 224.177 54.6004 225.022 55.5795C226.026 56.7448 227.045 57.9013 228.067 59.0548C228.62 59.7233 229.238 60.3421 229.913 60.9034C230.545 61.3944 231.362 61.7908 231.854 62.4208C232.255 62.9295 232.125 63.6246 232.17 64.2368C232.316 66.0855 232.327 67.9415 232.201 69.7915Z" fill="#544160"/>
<path d="M272.277 82.1313C272.589 81.8473 272.87 81.5352 273.117 81.1996C273.382 80.7837 273.594 80.3399 273.748 79.8774L275.578 75.0119C275.869 74.2429 276.159 73.4709 276.525 72.7226C276.904 71.9151 277.352 71.1372 277.765 70.3564C278.828 68.3015 279.65 66.1445 280.217 63.9232C280.317 63.618 280.35 63.2972 280.315 62.9797C280.226 62.468 279.813 62.0687 279.419 61.7049C279.022 61.3034 278.57 60.9532 278.074 60.6638C277.825 60.5188 277.548 60.4216 277.259 60.3779C276.97 60.3342 276.674 60.3449 276.389 60.4094C275.581 60.6313 275.073 61.4062 274.887 62.1841C274.701 62.962 274.77 63.7576 274.692 64.5503C274.578 65.6861 274.161 66.7834 274.06 67.9222C274.007 68.5817 274.06 69.2472 273.975 69.9039C273.82 70.7661 273.499 71.5949 273.028 72.3499C272.003 74.1486 270.618 75.7453 268.948 77.0528C268.491 77.3692 268.079 77.7401 267.724 78.156C267.427 78.572 267.226 79.0415 267.134 79.5343C266.924 80.2849 267.015 81.0814 267.389 81.7734C267.904 82.5956 268.892 82.9565 269.835 83.1399C271.11 83.3883 271.403 82.9801 272.277 82.1313Z" fill="#BE6F72"/>
<path d="M247.809 44.7686C248.081 44.2901 248.497 43.8972 249.005 43.639C249.513 43.3807 250.092 43.2685 250.668 43.3164C251.248 43.4127 251.788 43.6593 252.226 44.0284C252.665 44.3974 252.984 44.8741 253.148 45.4045C253.296 45.8452 253.356 46.3333 253.615 46.7119C254.006 47.2827 254.732 47.4483 255.275 47.8624C255.599 48.1446 255.86 48.4846 256.042 48.8625C256.224 49.2404 256.324 49.6485 256.335 50.063C256.366 50.9096 256.223 51.7539 255.916 52.5505C255.785 52.8904 255.68 53.2382 255.6 53.5916C255.537 53.9347 255.531 54.2837 255.474 54.6268C255.404 55.0717 255.24 55.499 254.991 55.8835C254.742 56.268 254.414 56.602 254.025 56.8659C253.915 56.9504 253.777 56.9974 253.634 56.999C253.388 56.9724 253.237 56.7032 253.145 56.4607C252.643 55.103 252.763 53.4437 251.839 52.3612C251.418 51.9245 250.91 51.5697 250.343 51.3171C250.112 51.1774 249.851 51.0856 249.579 51.0479C249.179 51.0681 248.794 51.2 248.475 51.4265C247.809 51.8453 247.07 52.1516 246.291 52.3316C245.902 52.4179 245.498 52.4218 245.108 52.343C244.718 52.2642 244.351 52.1047 244.035 51.8761C243.599 51.5389 243.281 51.0332 242.798 50.7699C242.315 50.5067 241.81 50.5215 241.334 50.341C241.03 50.22 240.76 50.0355 240.544 49.8018C240.328 49.568 240.171 49.2911 240.087 48.9921C240.002 48.6932 239.991 48.3801 240.055 48.0766C240.119 47.7732 240.257 47.4875 240.456 47.2413C240.772 46.8864 241.239 46.6852 241.52 46.2919C241.883 45.7831 241.851 45.0851 242.025 44.4758C242.127 44.0903 242.327 43.7333 242.606 43.4345C242.885 43.1356 243.237 42.9035 243.631 42.7573C244.013 42.6356 244.423 42.6123 244.819 42.6899C245.214 42.7674 245.579 42.9429 245.878 43.198C246.193 43.4642 246.446 43.8073 246.755 44.0854C247.06 44.3593 247.434 44.557 247.842 44.6604C248.25 44.7637 248.679 44.7694 249.09 44.6769" fill="#3F3D56"/>
<path opacity="0.1" d="M252.997 88.3041C252.813 88.4574 252.683 88.6591 252.623 88.8828C252.563 89.1065 252.577 89.3418 252.662 89.5582C252.731 89.6972 255.988 89.1086 256.332 89.0642C257.19 88.9489 258.696 89.0051 259.273 88.2686C260.302 86.9642 257.115 87.2541 256.531 87.3014C255.42 87.3901 253.842 87.5321 252.997 88.3041Z" fill="black"/>
<path d="M223.372 50.149C223.233 50.7322 223.152 51.3264 223.132 51.9237C222.185 52.1041 221.201 51.8083 220.292 51.5125L217.682 50.6784C217.523 50.5834 217.332 50.5485 217.147 50.5809C216.962 50.6133 216.797 50.7106 216.685 50.853C216.265 51.2611 215.688 52.0361 215.107 52.4945C215.014 52.4852 214.922 52.4664 214.833 52.4383C214.394 52.2668 214.46 51.6309 214.776 51.2966C215.091 50.9624 215.559 50.7761 215.846 50.4093C215.979 50.1917 216.129 49.9831 216.294 49.7852C216.505 49.6154 216.757 49.4966 217.029 49.4391C218.849 48.9364 220.775 48.8682 222.63 49.241C222.946 49.306 223.305 49.4244 223.4 49.7113C223.431 49.857 223.421 50.0078 223.372 50.149Z" fill="#3F3D56"/>
<path opacity="0.1" d="M223.372 50.149C223.233 50.7322 223.152 51.3264 223.132 51.9237C222.185 52.1041 221.201 51.8083 220.292 51.5125L217.682 50.6784C217.523 50.5834 217.332 50.5485 217.147 50.5809C216.962 50.6133 216.797 50.7106 216.685 50.853C216.265 51.2611 215.688 52.0361 215.107 52.4945C215.014 52.4852 214.922 52.4664 214.833 52.4383C214.394 52.2668 214.46 51.6309 214.776 51.2966C215.091 50.9624 215.559 50.7761 215.846 50.4093C215.979 50.1917 216.129 49.9831 216.294 49.7852C216.505 49.6154 216.757 49.4966 217.029 49.4391C218.849 48.9364 220.775 48.8682 222.63 49.241C222.946 49.306 223.305 49.4244 223.4 49.7113C223.431 49.857 223.421 50.0078 223.372 50.149Z" fill="black"/>
<path opacity="0.1" d="M247.244 106.302C247.698 106.444 248.19 106.651 248.345 107.077L244.691 106.207L242.797 105.755C242.463 105.675 241.264 105.583 241.043 105.338C240.727 104.977 241.848 105.226 242.05 105.252C242.662 105.338 243.274 105.427 243.883 105.53C245.032 105.722 246.136 106.039 247.244 106.302Z" fill="black"/>
<path opacity="0.1" d="M248.661 109.334C248.345 109.136 247.44 109.159 247.052 109.073C246.484 108.946 245.925 108.778 245.367 108.615C244.234 108.269 243.11 107.876 241.946 107.621C241.731 107.577 240.999 107.565 241.034 107.311C241.069 107.056 241.766 106.968 241.94 106.956C242.971 106.885 244.259 107.337 245.218 107.66C246.441 108.07 247.599 108.633 248.661 109.334Z" fill="black"/>
<path opacity="0.1" d="M246.344 103.599C245.186 103.303 244.135 102.628 242.943 102.498C242.632 102.509 242.326 102.422 242.075 102.25C241.935 102.121 241.837 101.956 241.794 101.777C242.592 101.738 243.52 102.055 244.246 102.353C244.645 102.514 245.03 102.706 245.394 102.927C245.66 103.078 246.057 103.513 246.344 103.599Z" fill="black"/>
<path d="M268.421 77.1147C268.225 78.3444 268.509 79.5991 269.219 80.649C269.93 81.699 271.02 82.4739 272.29 82.8321C272.135 83.5331 271.362 83.9206 270.816 84.4204C270.046 85.1214 269.649 86.1714 268.74 86.7038C267.727 87.2954 266.424 87.0647 265.269 86.8162C265.164 86.8052 265.067 86.7577 264.997 86.6831C264.974 86.6477 264.956 86.6087 264.947 86.5678C264.565 85.2575 264.316 83.8585 264.707 82.5452C265.023 81.4272 265.78 80.4748 266.386 79.4869C266.992 78.499 267.049 77.4401 268.421 77.1147Z" fill="#544160"/>
<path d="M240.207 60.155C238.986 60.2383 237.8 60.5769 236.736 61.1458C236.029 61.5244 235.303 62.0332 234.495 61.9415C234.019 61.8912 233.549 61.6457 233.085 61.764C232.824 61.8628 232.58 61.9985 232.362 62.1663C232.252 62.2486 232.121 62.3028 231.981 62.3236C231.842 62.3443 231.699 62.3309 231.567 62.2846L231.251 66.3781C231.132 67.9339 231.015 69.5222 231.412 71.0395C231.618 71.8145 232.069 72.5184 232.119 73.3052C232.17 74.0919 232.094 74.8994 232.154 75.6951C232.211 76.4315 232.384 77.1562 232.429 77.8927C232.517 79.2828 232.151 80.6611 231.797 82.0128C231.264 84.0064 230.942 86.0443 229.904 87.8485C229.614 88.3484 229.273 88.8571 229.273 89.425C229.273 89.496 229.273 89.564 229.292 89.632C228.976 89.7947 228.683 89.9485 228.415 90.1082C227.815 90.472 227.174 90.8773 226.928 91.5073C226.73 92.0189 226.821 92.6046 226.581 93.0985C226.341 93.5925 225.792 93.9445 225.672 94.4769C225.587 94.8643 225.751 95.2725 225.672 95.66C225.601 95.8604 225.543 96.0649 225.499 96.2722C225.467 96.7159 225.868 97.0738 226.266 97.3163C226.845 97.6745 227.486 97.9385 228.159 98.0972L230.043 91.0873C231.76 88.1106 233.189 84.9954 234.312 81.7792C234.634 80.7279 235.046 79.703 235.546 78.7149C235.903 78.156 236.22 77.5749 236.493 76.9758C236.78 76.2304 236.808 75.4229 236.947 74.6362C237.112 73.7179 237.36 72.8145 237.689 71.9357C238.03 70.9863 238.424 70.0398 238.494 69.0431C238.598 67.6174 238.045 66.1119 238.632 64.7927C238.882 64.299 239.206 63.8417 239.595 63.4351C240.409 62.5005 241.151 61.5215 241.965 60.5868C241.542 60.1638 240.838 60.1195 240.207 60.155Z" fill="#544160"/>
<g opacity="0.1">
<path opacity="0.1" d="M249.1 43.7957L248.705 43.8223L248.661 43.8519C248.809 43.8462 248.956 43.8274 249.1 43.7957Z" fill="black"/>
<path opacity="0.1" d="M256.32 49.9359C256.254 50.5239 256.118 51.1033 255.916 51.6632C255.785 52.0031 255.68 52.351 255.6 52.7044C255.537 53.0475 255.531 53.3965 255.474 53.7396C255.404 54.1844 255.24 54.6117 254.991 54.9962C254.742 55.3808 254.414 55.7148 254.026 55.9786C253.915 56.0632 253.777 56.1101 253.634 56.1117C253.388 56.0851 253.237 55.8159 253.145 55.5734C252.643 54.2158 252.763 52.5565 251.839 51.4739C251.418 51.0372 250.91 50.6825 250.343 50.4298C250.112 50.2901 249.851 50.1983 249.579 50.1607C249.179 50.1809 248.794 50.3127 248.475 50.5393C247.809 50.958 247.07 51.2643 246.291 51.4444C245.903 51.5306 245.498 51.5345 245.108 51.4557C244.718 51.3769 244.351 51.2174 244.035 50.9889C243.599 50.6517 243.281 50.1459 242.798 49.8827C242.315 49.6194 241.81 49.6342 241.334 49.4538C241.036 49.3346 240.771 49.1542 240.558 48.9258C240.345 48.6974 240.189 48.427 240.103 48.1346C240.092 48.0977 240.083 48.0602 240.078 48.0222C239.999 48.3524 240.008 48.6956 240.103 49.0219C240.189 49.3143 240.345 49.5847 240.558 49.8131C240.771 50.0415 241.036 50.2219 241.334 50.3411C241.81 50.5215 242.347 50.5245 242.798 50.77C243.249 51.0155 243.599 51.539 244.035 51.8762C244.351 52.1047 244.718 52.2642 245.108 52.343C245.498 52.4218 245.903 52.418 246.291 52.3317C247.07 52.1517 247.809 51.8453 248.475 51.4266C248.794 51.2 249.179 51.0682 249.579 51.048C249.851 51.0856 250.112 51.1774 250.343 51.3172C250.903 51.5747 251.403 51.9324 251.817 52.3701C252.741 53.4527 252.621 55.112 253.123 56.4696C253.215 56.7151 253.366 56.9813 253.612 57.0079C253.764 57.0086 253.91 56.9582 254.026 56.8659C254.416 56.6014 254.745 56.2661 254.995 55.88C255.244 55.4938 255.408 55.0647 255.477 54.618C255.534 54.2749 255.54 53.9259 255.603 53.5828C255.683 53.2294 255.788 52.8816 255.919 52.5417C256.226 51.7451 256.369 50.9008 256.339 50.0542C256.332 50.0187 256.326 49.9773 256.32 49.9359Z" fill="black"/>
</g>
<path d="M236.354 73.6689L236.139 76.3694C236.108 76.7361 235.36 85.4675 229.844 95.6717C225.111 104.424 215.899 115.823 198.509 122.229C197.152 122.732 195.744 123.202 194.284 123.637L192.655 118.846C196.743 117.64 200.681 116.026 204.4 114.031C213.264 109.233 220.156 102.386 224.962 93.5747C227.512 88.8834 229.329 83.873 230.358 78.6971H210.573V73.6689H236.354Z" fill="#F9A826"/>
<path opacity="0.1" d="M196.379 122.232C213.766 115.826 222.98 104.43 227.711 95.6776C233.227 85.4733 233.978 76.7479 234.006 76.3752L234.221 73.6748H236.43L236.215 76.3752C236.187 76.742 235.435 85.4733 229.92 95.6776C225.186 104.43 215.975 115.826 198.588 122.232C197.231 122.735 195.821 123.206 194.359 123.643L194.145 123.013C194.906 122.759 195.651 122.499 196.379 122.232Z" fill="white"/>
<path d="M161.566 118.846L159.938 123.637C158.476 123.2 157.067 122.729 155.71 122.227C138.322 115.82 129.108 104.424 124.378 95.6717C118.862 85.4675 118.111 76.7421 118.082 76.3694L117.868 73.6689H143.636V78.6971H123.848C124.882 83.8737 126.705 88.8841 129.259 93.5747C134.065 102.386 140.954 109.233 149.818 114.028C153.538 116.025 157.477 117.64 161.566 118.846Z" fill="#F9A826"/>
<path opacity="0.1" d="M157.836 122.232C140.449 115.826 131.235 104.43 126.505 95.6776C120.989 85.4733 120.238 76.7479 120.209 76.3752L119.995 73.6748H117.786L118 76.3752C118.029 76.742 118.78 85.4733 124.296 95.6776C129.029 104.43 138.24 115.826 155.628 122.232C156.984 122.735 158.394 123.206 159.856 123.643L160.071 123.013C159.311 122.759 158.566 122.499 157.836 122.232Z" fill="white"/>
<path d="M206.877 165.165V192.278H147.341V165.165L149.234 162.798C168.527 156.38 172.437 139.642 173.217 133.02C173.333 132.104 173.399 131.184 173.416 130.263H180.778C180.794 131.184 180.86 132.104 180.976 133.02C181.768 139.642 185.678 156.386 204.959 162.798L206.877 165.165Z" fill="#F9A826"/>
<path opacity="0.1" d="M206.877 165.165H147.341V168.566H206.877V165.165Z" fill="black"/>
<path opacity="0.1" d="M152.39 162.798C171.683 156.38 175.593 139.642 176.372 133.02C176.488 132.104 176.555 131.184 176.571 130.263H173.415C173.399 131.184 173.333 132.104 173.217 133.02C172.425 139.642 168.515 156.386 149.234 162.798L147.341 165.165V192.278H150.496V165.165L152.39 162.798Z" fill="white"/>
<path opacity="0.1" d="M138.297 73.6689H143.637V78.6971H138.771C138.579 77.0408 138.421 75.3647 138.297 73.6689Z" fill="black"/>
<path opacity="0.1" d="M161.567 118.846L159.938 123.638C158.476 123.2 157.067 122.73 155.71 122.227C153.478 119.672 151.505 116.927 149.818 114.028C153.538 116.025 157.477 117.64 161.567 118.846Z" fill="black"/>
<path opacity="0.1" d="M192.652 118.846C196.74 117.64 200.678 116.026 204.397 114.031C202.71 116.93 200.737 119.676 198.506 122.233C197.149 122.735 195.741 123.205 194.281 123.641L192.652 118.846Z" fill="black"/>
<path opacity="0.1" d="M215.919 73.6689C215.795 75.3647 215.637 77.0408 215.445 78.6971H210.583V73.6689H215.919Z" fill="black"/>
<path opacity="0.1" d="M180.989 133.02C178.426 133.485 175.792 133.485 173.229 133.02C173.345 132.104 173.412 131.184 173.428 130.263H180.79C180.807 131.184 180.873 132.104 180.989 133.02Z" fill="black"/>
<path d="M138.928 65.3401C139.064 102.626 156.104 132.777 177.111 132.777C198.118 132.777 215.155 102.626 215.294 65.3401H138.928Z" fill="#F9A826"/>
<path opacity="0.1" d="M145.713 65.3401H138.928C139.064 102.626 156.104 132.777 177.111 132.777C178.248 132.775 179.382 132.685 180.503 132.508C161.084 129.467 145.842 100.597 145.713 65.3401Z" fill="white"/>
<path d="M197.357 175.543H156.861V185.304H197.357V175.543Z" fill="#3F3D56"/>
<path opacity="0.1" d="M158.755 176.874H197.357V175.543H156.861V185.304H158.755V176.874Z" fill="white"/>
<path d="M117.331 101.339C116.602 101.111 112.311 97.9285 111.986 96.4881C111.661 95.0476 114.254 81.6283 114.254 81.6283C114.254 81.6283 114.015 81.6283 113.623 81.5839V81.368L114.157 63.7397C114.157 63.7397 116.343 51.9087 112.213 52.5978C108.082 53.287 110.673 63.7397 110.673 63.7397C110.673 63.7397 110.203 69.0459 109.871 70.6372C109.556 72.1723 108.111 78.425 109.095 80.3683C109.131 80.4373 109.171 80.5044 109.215 80.5694C109.215 80.5694 109.379 87.2392 107.596 88.1501C105.895 89.0168 105.188 93.3795 105.128 93.7699L105.037 93.7344C104.529 93.4366 104.083 93.0547 103.721 92.6075C103.683 92.5631 103.655 92.5158 103.62 92.4685C104.781 91.2442 105.407 89.6546 105.372 88.0169C105.338 86.3792 104.646 84.814 103.434 83.6336C102.871 83.0851 102.21 82.6327 101.481 82.2967C101.459 81.7316 101.317 81.1762 101.061 80.664C100.24 79.0195 95.6964 76.8692 92.4682 76.819C90.9788 76.7775 89.7576 77.1739 89.3126 78.2653C89.0854 78.8184 89.1549 79.4484 89.0602 80.0222C88.8708 81.2053 88.0599 82.1311 87.0185 82.8676C86.598 82.4276 86.1434 82.0173 85.6585 81.6401C84.6045 80.8829 82.5029 78.3866 82.5029 78.3866C82.5029 78.3866 75.9424 72.0185 75.4564 70.2734C74.9704 68.5283 68.4163 58.049 66.9584 59.8739C65.5005 61.6989 71.9789 69.6523 71.9789 69.6523C71.9789 69.6523 73.2096 72.542 74.1563 73.5181C75.103 74.4941 82.3609 84.3731 82.3609 84.3731L82.708 85.0475C81.1744 85.8046 79.7733 86.7689 79.2778 88.2714C78.5521 90.4838 80.1393 92.7081 81.2375 94.7785C83.377 98.8188 83.683 103.971 80.9219 107.663C78.4479 110.922 74.1563 112.472 70.1392 113.826C72.0793 115.254 74.4894 116.004 76.9553 115.947C76.0276 118.467 72.7394 119.301 69.9373 119.769C71.4078 121.094 73.5126 121.576 75.5321 121.869C76.5213 122.026 77.5235 122.101 78.5268 122.09H78.7729L79.0191 122.073C79.3611 122.051 79.7015 122.011 80.0383 121.951C81.4962 121.673 82.9131 120.928 83.6578 119.721C84.2889 118.689 84.5098 117.281 85.6553 116.764C85.9536 116.637 86.275 116.566 86.602 116.554H86.5673C86.7818 116.554 87.0027 116.554 87.2173 116.554L91.9917 116.598C92.1905 116.598 92.3956 116.598 92.6008 116.598C93.9482 116.568 95.3872 116.349 96.0719 115.305C96.3536 114.798 96.5018 114.235 96.5042 113.664C96.6052 112.247 96.5042 110.789 96.5453 109.36C96.9523 111.96 97.3783 116.012 96.3654 117.509C95.5424 118.643 94.545 119.657 93.4054 120.517C93.1188 120.743 92.8567 120.994 92.6228 121.268C92.4682 121.372 92.3767 121.428 92.3767 121.428L92.2789 121.703C91.9192 122.214 91.6586 122.781 91.5089 123.377C91.4538 123.53 91.4334 123.692 91.449 123.853C91.5594 124.063 90.6601 124.93 90.922 125.294C88.6752 127.763 88.2492 131.505 88.2492 131.505L84.1469 137.344C82.039 142.535 78.8834 143.067 78.8834 143.067C78.8834 143.067 71.4709 138.406 71.2689 138.178C71.067 137.95 68.2333 136.811 68.2333 136.811C67.8991 136.262 67.3891 135.825 66.7754 135.563C65.8034 135.185 65.7214 133.788 65.7214 133.788C65.6015 130.491 63.5346 130.239 63.5346 130.239C61.8684 130.106 60.5967 130.384 59.6185 130.893L59.3219 130.913C57.8892 131.023 56.1663 131.144 54.2729 131.263C49.0062 131.588 47.7534 134.785 47.7534 134.785C47.7534 134.785 47.1065 135.468 47.9554 136.208C48.8043 136.947 54.2382 136.208 54.4685 136.19C54.0544 136.232 53.6356 136.205 53.2316 136.11C54.0867 136.081 55.2638 136.051 56.2672 136.051H56.5102C56.4471 136.55 56.4165 137.052 56.4187 137.554C56.4187 138.5 59.2114 139.107 59.2114 139.107L67.7157 146.205C67.7157 146.205 73.0613 148.444 76.463 151.665C79.8648 154.886 82.8721 152.106 82.8721 152.106C86.4726 151.272 96.8324 139.532 96.8419 139.521C96.8419 139.864 97.0596 151.281 97.473 153.573C97.4894 153.689 97.5201 153.803 97.5645 153.913C98.0505 154.898 97.4004 157.59 97.1196 158.725C96.9404 159.676 96.8717 160.642 96.9145 161.606C96.9145 161.606 93.0299 175.508 93.3518 176.729C93.6737 177.951 91.247 183.627 91.247 183.627V188.359L91.6699 188.338C91.6149 188.415 91.5643 188.494 91.5184 188.575L91.49 188.625C91.49 188.625 94.0807 189.155 95.8226 189.004C97.5645 188.853 100.556 190.261 100.556 190.261C100.556 190.261 101.569 190.711 104.687 190.9C107.804 191.089 107.804 189.61 107.804 189.61C107.448 187.596 102.522 186.922 102.37 186.901C101.973 186.667 101.601 186.413 101.294 186.194L101.231 186.147C101.252 186.102 101.27 186.057 101.285 186.011C101.812 183.999 98.8962 183.127 98.8962 183.127V182.636C100.79 181.725 101.165 175.472 101.165 175.472C101.165 175.472 104.005 167.741 104.403 166.451C104.8 165.161 104.403 163.23 104.403 163.23L104.687 161.562C104.687 161.562 105.296 160.426 105.296 160.198C105.375 159.621 105.612 159.073 105.984 158.607C106.429 158.113 105.498 156.939 105.498 156.939L106.309 154.969V152.807L108.202 144.963C108.202 144.963 110.187 135.826 109.499 132.836C108.811 129.846 110.31 128.325 110.31 128.325C110.175 128.392 110.036 128.451 109.893 128.503C110.083 128.092 110.246 127.672 110.383 127.243L114.643 127.737V127.796H116.179C116.179 127.796 115.693 122.176 115.693 119.911C115.693 117.645 117.331 109.514 117.331 109.514C117.331 109.514 118.06 101.567 117.331 101.339ZM98.4197 94.7785C98.4197 95.0003 98.3976 95.231 98.3818 95.4677L98.2966 95.5889L98.1388 95.4647L97.9463 95.7457L97.8895 95.7723C97.473 95.5712 97.2584 94.4206 96.9586 94.6691L96.9176 94.7016C96.8513 94.6306 96.7851 94.6099 96.7157 94.6691L96.6525 94.7193C96.6525 94.6336 96.6525 94.5448 96.6525 94.4561C97.2299 94.5954 97.8236 94.6659 98.4197 94.6661C98.4228 94.7045 98.4197 94.743 98.4197 94.7785ZM112.588 120.949H112.68L112.528 121.321C112.547 121.197 112.566 121.076 112.588 120.949ZM97.0344 188.022L96.4537 187.886L96.7693 187.836L97.0628 188.016L97.0975 188.04L97.0344 188.022ZM102.967 187.226C102.774 187.132 102.579 187.022 102.389 186.91C102.453 186.942 102.702 187.064 102.967 187.226Z" fill="url(#paint1_linear)"/>
<path d="M114.684 115.362L110.862 124.696H111.79L108.196 127.382L114.684 128.139V115.362Z" fill="#F86D70"/>
<path opacity="0.6" d="M114.684 115.362L110.862 124.696L109.9 124.454L108.196 127.382L114.684 128.139V115.362Z" fill="#DC6C41"/>
<path d="M108.691 121.333H114.684L116.883 104.371H108.691V121.333Z" fill="#F86D70"/>
<path opacity="0.6" d="M108.691 121.333H114.684L116.883 104.371H108.691V121.333Z" fill="#DC6C41"/>
<path d="M96.987 108.387L98.2808 108.183L101.253 107.71C101.253 107.71 110.181 105.823 112.023 105.669C113.14 105.531 114.229 105.24 115.255 104.805C115.738 104.61 116.044 104.462 116.044 104.462L112.828 98.958L107.839 95.4915C107.839 95.4915 104.684 94.8615 103.349 93.1401C103.051 92.7697 102.857 92.3351 102.785 91.8762C102.712 91.4173 102.764 90.9488 102.935 90.5136C103.749 88.1474 98.0726 92.7763 98.0726 92.7763C98.0726 92.7763 98.1262 93.8854 98.0726 95.2992C98.0726 95.5773 98.0442 95.8671 98.0221 96.1629C98.0221 96.3581 97.9937 96.5533 97.9716 96.7544C97.8327 98.1594 97.5487 99.6057 96.987 100.469C95.6144 102.581 96.987 108.387 96.987 108.387Z" fill="#FBBEBE"/>
<path opacity="0.1" d="M98.0728 95.4175H98.199C98.4262 95.4175 98.6092 94.9649 98.8301 94.9442C100.607 94.7845 102.229 94.4355 103.355 93.2553C103.058 92.8852 102.865 92.4511 102.792 91.9929C102.72 91.5346 102.772 91.0667 102.942 90.6318C103.756 88.2656 98.0791 92.8915 98.0791 92.8915C98.0791 92.8915 98.139 94.0037 98.0728 95.4175Z" fill="black"/>
<path d="M91.1621 88.7093C91.1617 89.5608 91.3403 90.4041 91.6878 91.1909C92.0353 91.9776 92.5447 92.6925 93.1871 93.2946C93.8295 93.8968 94.5922 94.3743 95.4316 94.7C96.271 95.0257 97.1707 95.1931 98.0792 95.1927C98.3064 95.1927 98.5304 95.1927 98.7545 95.1631C100.087 95.0406 101.353 94.558 102.399 93.774C103.445 92.99 104.226 91.9383 104.646 90.7466C105.067 89.5548 105.109 88.2743 104.768 87.0604C104.427 85.8464 103.718 84.7514 102.726 83.9081C101.734 83.0649 100.502 82.5097 99.1799 82.3099C97.8578 82.1102 96.5022 82.2744 95.2777 82.7828C94.0533 83.2912 93.0126 84.1218 92.282 85.1739C91.5514 86.2259 91.1624 87.4541 91.1621 88.7093Z" fill="#FBBEBE"/>
<path d="M89.0382 78.8688C88.811 79.419 88.8804 80.0342 88.7889 80.6169C88.4513 82.7198 86.1698 83.9799 84.106 84.8613C82.0423 85.7427 79.7134 86.7868 79.0571 88.8188C78.3376 91.0164 79.9091 93.2199 81.0009 95.2815C83.1278 99.2981 83.4307 104.421 80.6854 108.094C78.2461 111.348 73.9955 112.892 69.9942 114.247C71.92 115.667 74.3134 116.413 76.763 116.358C75.8447 118.864 72.5786 119.695 69.7954 120.156C71.2564 121.475 73.3486 121.955 75.3524 122.244C76.8135 122.457 78.3124 122.596 79.7702 122.321C81.2281 122.046 82.6103 121.304 83.3613 120.103C83.9924 119.077 84.207 117.678 85.3462 117.16C85.8604 116.97 86.4144 116.894 86.965 116.938L91.6984 116.986C93.172 116.986 94.9171 116.879 95.6776 115.699C95.9581 115.195 96.1053 114.635 96.1067 114.066C96.3119 111.156 95.7155 108.08 96.9935 105.424C97.3784 104.622 94.9076 103.353 95.1664 102.504C96.0563 99.585 96.2803 97.2868 96.2708 94.2492C96.2708 91.8978 97.9023 89.8717 99.2497 87.8871C100.597 85.9024 101.724 83.3972 100.66 81.2676C99.4611 78.8925 90.4551 75.4408 89.0382 78.8688Z" fill="#3F3D56"/>
<path d="M95.3398 187.17L96.5453 187.919L96.7315 188.034L96.7662 188.055L98.1957 188.942L101.534 189.468L104.469 189.279C104.469 189.279 105.315 187.623 103.986 187.661C103.561 187.641 103.146 187.528 102.774 187.333L102.591 187.247C102.399 187.153 102.206 187.046 102.017 186.934C101.623 186.7 101.25 186.446 100.95 186.23C100.509 185.91 100.215 185.668 100.215 185.668L95.3398 187.17Z" fill="#FBBEBE"/>
<path opacity="0.1" d="M96.561 187.919L96.7472 188.034L96.7819 188.055L98.2114 188.942L101.55 189.469L104.485 189.279C104.485 189.279 105.33 187.623 104.002 187.661C103.576 187.641 103.162 187.529 102.79 187.333C103.024 187.505 103.219 187.691 103.238 187.848C103.292 188.271 101.067 189.031 101.067 189.031L97.9306 188.253C97.9306 188.253 97.3973 188.111 96.6683 187.933L96.5989 187.916L96.561 187.919Z" fill="black"/>
<path d="M91.1968 188.64C91.1968 188.64 93.7686 189.167 95.4979 189.016C97.2271 188.865 100.206 190.261 100.206 190.261C100.206 190.261 101.213 190.705 104.308 190.894C107.404 191.083 107.404 189.61 107.404 189.61C107.05 187.608 102.159 186.949 102.008 186.919C102.068 186.949 102.323 187.07 102.582 187.232C102.929 187.445 103.305 187.723 103.333 187.948C103.387 188.368 101.162 189.131 101.162 189.131L98.0255 188.356C98.0255 188.356 97.4922 188.211 96.7633 188.034H96.6938C95.613 187.758 94.5148 187.546 93.4057 187.398C92.0551 187.262 91.364 188.339 91.222 188.581C91.2117 188.6 91.2033 188.62 91.1968 188.64Z" fill="#3F3D56"/>
<path d="M50.6597 135.451L52.026 136.433C52.026 136.433 52.4236 136.415 53.0169 136.397H53.2062C54.0551 136.368 55.2258 136.338 56.2198 136.338C56.8624 136.311 57.5062 136.345 58.1416 136.439C58.8232 136.663 60.0349 132.783 60.0349 132.783L58.6654 132.487L58.211 132.387L57.8955 132.316L56.7815 132.07L53.405 132.431L51.032 133.862L50.6597 135.451Z" fill="#FBBEBE"/>
<path opacity="0.1" d="M50.6597 135.451L52.026 136.433C52.026 136.433 52.4236 136.415 53.0169 136.397C52.7447 136.299 52.5202 136.111 52.3858 135.868C51.5022 133.57 55.8853 132.588 55.8853 132.588L57.927 132.505L58.3246 132.487H58.6402L58.1858 132.387L57.8702 132.316L56.7563 132.07L53.3798 132.431L51.0068 133.862L50.6597 135.451Z" fill="black"/>
<path d="M47.9651 136.489C48.7919 137.205 54.2069 136.489 54.4341 136.471C54.0231 136.515 53.6072 136.487 53.2066 136.391C53.0082 136.358 52.8203 136.284 52.6565 136.174C52.4928 136.064 52.3572 135.921 52.2599 135.755C51.3763 133.454 55.7594 132.475 55.7594 132.475L57.8011 132.392L58.1956 132.375L63.1593 132.174L63.3991 130.893C63.3991 130.893 61.7866 131.035 59.2558 131.224C57.8327 131.334 56.1003 131.455 54.229 131.57C49.0002 131.895 47.7569 135.075 47.7569 135.075C47.7569 135.075 47.1226 135.755 47.9651 136.489Z" fill="#3F3D56"/>
<path d="M108.695 80.9718C108.728 81.042 108.768 81.1093 108.815 81.173L110.02 82.8293L113.157 83.1251L113.191 81.9597L113.718 64.4261C113.718 64.4261 115.889 52.666 111.787 53.3434C107.685 54.0207 110.26 64.4261 110.26 64.4261C110.26 64.4261 109.793 69.7028 109.465 71.2881C109.146 72.8202 107.716 79.0493 108.695 80.9718Z" fill="#FBBEBE"/>
<path d="M101.654 124.522L102.547 125.953L104.545 129.157C104.545 129.157 108.167 130.402 109.095 129.452C109.603 128.935 110.152 127.128 110.537 125.607C110.853 124.377 111.064 123.339 111.064 123.339L101.654 124.522Z" fill="#FBBEBE"/>
<path opacity="0.1" d="M101.654 124.522L102.547 125.953C102.603 125.908 102.654 125.858 102.699 125.803C103.709 124.596 108.155 125.545 110.537 125.622C110.853 124.392 111.064 123.354 111.064 123.354L101.654 124.522Z" fill="black"/>
<path opacity="0.1" d="M56.2202 136.332C56.8628 136.305 57.5066 136.339 58.142 136.433C58.8236 136.657 60.0353 132.777 60.0353 132.777L58.2114 132.375L63.1751 132.174L63.415 130.893C63.415 130.893 61.8025 131.035 59.2717 131.224C58.7487 131.506 58.2821 131.872 57.8927 132.304L57.8169 132.392C56.7598 133.608 56.3685 135.176 56.2202 136.332Z" fill="black"/>
<path opacity="0.1" d="M95.3398 187.17L96.7315 188.034C98.8079 187.682 100.704 187.129 100.928 186.259C100.929 186.245 100.929 186.232 100.928 186.218C100.487 185.898 100.193 185.656 100.193 185.656L95.3398 187.17Z" fill="black"/>
<path opacity="0.1" d="M91.2251 188.59C93.0587 188.505 94.8856 188.321 96.6969 188.04C95.6151 187.762 94.5159 187.547 93.4056 187.398C92.0582 187.262 91.3671 188.339 91.2251 188.59Z" fill="black"/>
<path d="M56.3716 137.826C56.3716 138.769 59.1454 139.373 59.1454 139.373L67.5929 146.421C67.5929 146.421 72.9006 148.645 76.2771 151.849C79.6536 155.052 82.6324 152.301 82.6324 152.301C86.2109 151.473 96.517 139.787 96.517 139.787C96.517 139.787 96.7569 153.132 97.2397 154.111C97.7225 155.09 97.0787 157.767 96.7979 158.9C96.6207 159.845 96.553 160.805 96.5959 161.763C96.5959 161.763 92.7366 175.596 93.0585 176.803C93.3804 178.01 90.9664 183.665 90.9664 183.665V188.377C90.9664 188.377 100.417 188.037 100.938 186.04C101.459 184.044 98.5682 183.174 98.5682 183.174V182.683C100.462 181.778 100.818 175.561 100.818 175.561C100.818 175.561 103.636 167.871 104.037 166.59C104.438 165.309 104.037 163.384 104.037 163.384L104.318 161.728C104.318 161.728 104.92 160.595 104.92 160.37C104.999 159.796 105.235 159.251 105.605 158.787C106.047 158.296 105.122 157.128 105.122 157.128L105.927 155.167V153.02L107.82 145.217C107.82 145.217 109.793 136.131 109.108 133.153C108.423 130.174 109.913 128.669 109.913 128.669C106.684 130.254 105.056 126.725 104.523 125.208C104.387 124.818 104.321 124.557 104.321 124.557C104.321 124.557 99.8872 123.025 95.7597 123.392C94.9214 123.456 94.0953 123.62 93.3015 123.88C88.7164 125.427 87.9938 131.833 87.9938 131.833L83.9325 137.639C81.8404 142.804 78.7037 143.33 78.7037 143.33C78.7037 143.33 71.3449 138.695 71.1303 138.468C70.9157 138.24 68.1136 137.11 68.1136 137.11C67.7822 136.563 67.2754 136.129 66.6651 135.868C65.6995 135.489 65.6206 134.093 65.6206 134.093C65.5007 130.813 63.4496 130.544 63.4496 130.544C56.3306 129.988 56.3716 136.885 56.3716 137.826Z" fill="#3F3D56"/>
<path d="M97.3122 119.396H101.654V106.769H97.3122V119.396Z" fill="#F86D70"/>
<path opacity="0.6" d="M97.3122 119.396H101.654V106.769H97.3122V119.396Z" fill="#DC6C41"/>
<path opacity="0.1" d="M108.691 80.9451C108.691 80.9539 108.691 80.9628 108.691 80.9717C108.725 81.0419 108.765 81.1092 108.811 81.1728L110.017 82.8292L113.153 83.1249L113.188 81.9596C112.21 81.8886 109.982 81.6372 108.691 80.9451Z" fill="black"/>
<path d="M108.814 81.1729C108.814 81.1729 108.975 87.8042 107.205 88.7092C105.435 89.6143 104.747 94.329 104.747 94.329C104.747 94.329 110.111 97.6358 111.307 99.091C112.503 100.546 115.248 104.013 114.684 104.841C114.119 105.669 116.053 109.44 116.053 109.44C116.053 109.44 112.513 116.225 113.317 118.79C114.122 121.354 114.201 128.136 114.201 128.136H115.731C115.731 128.136 115.248 122.558 115.248 120.295C115.248 118.033 116.855 109.967 116.855 109.967C116.855 109.967 117.58 102.052 116.855 101.827C116.129 101.602 111.869 98.4344 111.547 96.9999C111.225 95.5653 113.8 82.211 113.8 82.211C113.8 82.211 110.502 82.0779 108.814 81.1729Z" fill="#DC6C41"/>
<path opacity="0.1" d="M97.23 105.598C97.3768 106.521 97.7353 107.403 98.2808 108.183L101.253 107.71C101.253 107.71 110.181 105.823 112.023 105.669C113.14 105.531 114.229 105.24 115.255 104.805C114.547 102.456 113.167 100.334 111.263 98.668L110.13 97.6831C108.461 96.2304 106.526 95.0712 104.418 94.261C104.551 94.3645 113.917 101.859 111.866 103.329C109.814 104.799 104.292 101.221 104.292 101.221L98.0126 96.1628L97.7854 95.9794L97.4225 96.5089C97.6071 96.5801 97.7873 96.6611 97.9621 96.7514C100.102 97.8525 101.691 99.7027 102.38 101.898C103.671 105.965 97.23 105.598 97.23 105.598Z" fill="black"/>
<path d="M95.2988 124.445C95.2988 124.445 101.25 127.536 102.696 125.802C103.011 125.421 103.677 125.255 104.507 125.211C104.371 124.82 104.305 124.56 104.305 124.56C104.305 124.56 99.8713 123.028 95.7438 123.395C95.4724 124.034 95.2988 124.445 95.2988 124.445Z" fill="#444053"/>
<path d="M98.0379 95.9853L104.545 101.232C104.545 101.232 110.045 104.823 112.118 103.341C114.191 101.859 104.668 94.2698 104.668 94.2698C106.771 95.0824 108.704 96.2381 110.376 97.683L111.509 98.668C114.488 101.256 115.16 101.256 115.261 105.06C115.286 105.997 114.946 107.343 114.684 107.586C113.718 108.473 113.043 114.918 113.191 115.672C113.339 116.426 111.392 122.936 112.023 124.747C112.655 126.557 104.134 123.842 102.692 125.578C101.25 127.314 95.2988 124.22 95.2988 124.22C95.2988 124.22 98.5964 116.302 99.4011 115.776C100.206 115.249 101.171 111.176 99.4011 109.292C97.6308 107.408 97.473 105.598 97.473 105.598C97.473 105.598 103.91 105.971 102.62 101.904C102.257 100.725 101.627 99.6334 100.773 98.7034C99.9191 97.7734 98.8613 97.0269 97.6718 96.5147L98.0379 95.9853Z" fill="#E8E8F0"/>
<path opacity="0.1" d="M106.722 109.331C106.722 109.331 104.226 113.741 100.998 114.886C100.894 114.921 100.793 114.954 100.682 114.983C97.312 115.944 106.974 110.697 106.722 109.331Z" fill="black"/>
<path d="M71.8149 70.3149C71.8149 70.3149 73.0203 73.181 73.986 74.16C74.9516 75.139 82.1085 84.941 82.1085 84.941L82.7143 86.1241L83.235 87.1327L87.8201 86.6802L88.1356 84.947L87.9589 84.7458C87.4982 84.2282 86.2423 82.8381 85.3997 82.2317C84.3552 81.4805 82.2631 78.993 82.2631 78.993C82.2631 78.993 75.7499 72.6574 75.2671 70.9242C74.7843 69.1909 68.268 58.7973 66.8228 60.5957C65.3775 62.394 71.8149 70.3149 71.8149 70.3149Z" fill="#FBBEBE"/>
<g opacity="0.1">
<path opacity="0.1" d="M85.1189 116.938C84.5685 116.894 84.0146 116.969 83.5001 117.157C82.3641 117.675 82.1495 119.074 81.5184 120.1C80.78 121.301 79.3726 122.043 77.9242 122.318C77.6363 122.371 77.3455 122.408 77.0532 122.431C77.9757 122.515 78.9063 122.477 79.8175 122.318C81.2659 122.043 82.6733 121.301 83.4117 120.1C84.0429 119.074 84.2574 117.675 85.3935 117.157C85.6917 117.031 86.0133 116.961 86.3401 116.95L85.1189 116.938Z" fill="black"/>
<path opacity="0.1" d="M96.3276 94.2492C96.3276 91.8978 97.959 89.8717 99.3033 87.8871C100.648 85.9024 101.777 83.3972 100.714 81.2676C99.805 79.4486 94.3269 77.0084 91.165 77.4905C94.2607 77.8662 98.0758 79.7769 98.8205 81.2676C99.8839 83.3972 98.7542 85.9024 97.4099 87.8871C96.0657 89.8717 94.4279 91.8978 94.4342 94.2492C94.4342 97.2839 94.2165 99.5732 93.3266 102.504C93.071 103.347 95.5355 104.622 95.1568 105.421C93.8757 108.083 94.4752 111.153 94.2701 114.063C94.2659 114.632 94.1177 115.191 93.8378 115.696C93.2067 116.669 91.9129 116.92 90.6538 116.974H91.7551C93.2256 116.974 94.9707 116.867 95.7312 115.687C96.0111 115.183 96.1592 114.623 96.1635 114.054C96.3686 111.144 95.769 108.071 97.0502 105.412C97.4352 104.613 94.9644 103.341 95.22 102.495C96.1098 99.585 96.3339 97.2839 96.3276 94.2492Z" fill="black"/>
</g>
<path opacity="0.1" d="M82.7144 86.1183L83.235 87.1269L87.8201 86.6744L88.1357 84.9411L87.959 84.74C87.4698 84.9648 83.8062 86.6182 82.7144 86.1183Z" fill="black"/>
<path opacity="0.1" d="M99.6444 97.4555C99.6444 97.4555 98.5179 95.7991 97.8741 96.2487C97.2304 96.6983 96.9811 94.8911 96.6119 95.1928C96.2427 95.4945 95.1666 96.3345 94.7185 95.1602C94.3683 94.2256 90.5563 88.313 89.0101 85.935C88.6125 85.3198 88.3632 84.9412 88.3632 84.9412C88.3632 84.9412 84.0211 86.9761 82.9766 86.2988V87.7303L83.8601 87.8072L88.5935 96.089C88.5935 96.089 90.083 98.3103 89.982 99.0852C89.881 99.8601 91.8911 103.253 92.213 103.477C92.5349 103.702 95.9997 107.473 95.9997 107.473C95.9997 107.473 97.77 115.616 96.2395 117.879C94.7091 120.142 92.0584 121.798 92.0584 121.798C92.0584 121.798 91.26 123.984 91.3768 124.211C91.4935 124.439 90.449 125.418 90.9318 125.72C91.4146 126.022 92.0584 128.13 92.0584 128.13C92.0584 128.13 94.3115 124.738 95.5295 124.211C96.7476 123.685 98.3064 116.746 98.3064 116.746C98.3064 116.746 98.7514 112.658 98.7861 110.02C98.8208 107.382 98.6788 97.4555 99.6444 97.4555Z" fill="black"/>
<path d="M99.4013 97.4555C99.4013 97.4555 98.2779 95.7991 97.6341 96.2487C96.9904 96.6983 96.7379 94.8911 96.3719 95.1928C96.0058 95.4945 94.9298 96.3345 94.4785 95.1602C94.1251 94.2256 90.3131 88.313 88.7701 85.935L88.1232 84.9412C88.1232 84.9412 83.7811 86.9761 82.7334 86.2988V87.7303L83.6201 87.8072L88.3535 96.089C88.3535 96.089 89.8461 98.3102 89.742 99.0852C89.6379 99.8601 91.6353 103.253 91.973 103.477C92.3106 103.702 95.7597 107.473 95.7597 107.473C95.7597 107.473 97.53 115.616 96.0027 117.879C95.1959 119.015 94.2144 120.034 93.0901 120.902C92.1456 121.632 91.4809 122.631 91.1967 123.747C91.1419 123.899 91.1226 124.061 91.1399 124.22C91.2567 124.445 90.2122 125.427 90.695 125.729C91.1778 126.03 91.8278 128.148 91.8278 128.148C91.8278 128.148 94.0809 124.756 95.299 124.229C96.5171 123.703 98.0791 116.764 98.0791 116.764C98.0791 116.764 98.5209 112.676 98.5587 110.038C98.5966 107.399 98.4546 97.4555 99.4013 97.4555Z" fill="#DC6C41"/>
<path opacity="0.1" d="M88.3816 131.76C88.3816 131.76 91.7613 132.351 93.115 133.265C94.4688 134.179 87.9683 131.833 87.9683 131.833L88.3816 131.76Z" fill="black"/>
<path opacity="0.1" d="M96.5073 139.787C96.5073 139.787 100.032 142.541 99.401 145.028C98.7699 147.516 97.1416 153.774 97.1416 153.774L96.5073 139.787Z" fill="black"/>
<path opacity="0.1" d="M65.6805 134.492C65.6805 134.492 60.7136 135.001 61.0355 135.605C61.3574 136.208 65.6805 135.048 65.6805 135.048V134.492Z" fill="black"/>
<path opacity="0.1" d="M103.819 157.392C103.819 157.392 104.135 157.767 102.292 157.392C100.449 157.016 101.809 155.856 101.809 155.856L103.819 157.392Z" fill="black"/>
<path opacity="0.1" d="M103.188 162.594C103.188 162.594 100.663 162.97 99.3097 162.594C97.9559 162.219 103.188 162.594 103.188 162.594Z" fill="black"/>
<path opacity="0.1" d="M97.9939 182.95C97.9939 182.95 97.5522 182.497 95.3401 183.325C93.128 184.153 92.2444 184.192 91.6007 183.917C90.957 183.642 97.9939 182.95 97.9939 182.95Z" fill="black"/>
<path opacity="0.1" d="M100.449 133.851L97.312 137.941C97.312 137.941 99.0003 134.359 100.449 133.851Z" fill="black"/>
<path opacity="0.1" d="M94.3523 96.2485C94.3523 96.2485 94.2166 97.6061 92.1938 98.1356C90.1711 98.665 89.7861 99.0939 89.7861 99.0939" fill="black"/>
<path opacity="0.1" d="M89.0952 86.408C89.0952 86.408 86.4255 88.1826 83.6392 87.807L89.0952 86.408Z" fill="black"/>
<path opacity="0.1" d="M91.1274 124.407C91.1274 124.407 91.9069 124.865 93.7781 122.86L91.1274 124.407Z" fill="black"/>
<path opacity="0.1" d="M110.562 103.143C110.638 102.776 110.367 102.436 110.111 102.149L109.587 101.558C109.485 101.437 109.37 101.326 109.243 101.226C108.928 100.999 108.524 100.931 108.196 100.727" fill="black"/>
<path opacity="0.1" d="M279.993 0.0326709C279.993 0.0326709 253.426 -1.46987 256.55 15.9809C256.55 15.9809 255.919 19.0659 258.91 20.4649C258.91 20.4649 258.958 19.1724 261.637 19.6131C262.59 19.7613 263.559 19.8049 264.524 19.7432C265.827 19.6589 267.066 19.1792 268.052 18.3767C268.052 18.3767 275.521 15.484 278.424 4.0434C278.424 4.0434 280.573 1.54705 280.488 0.905213L276.004 2.70057C276.004 2.70057 277.538 5.73228 276.32 8.2523C276.32 8.2523 276.175 2.81001 275.313 2.92832C275.139 2.95494 272.984 3.97833 272.984 3.97833C272.984 3.97833 275.619 9.25794 273.631 13.0971C273.631 13.0971 274.385 6.59003 272.161 4.35988L269.005 6.08722C269.005 6.08722 272.085 11.5413 269.996 15.9928C269.996 15.9928 270.532 9.16625 268.339 6.50722L265.48 8.59835C265.48 8.59835 268.374 13.9756 266.61 17.6669C266.61 17.6669 266.38 9.71935 264.862 9.11892C264.862 9.11892 262.359 11.1894 261.977 12.0353C261.977 12.0353 263.959 15.9395 262.729 17.9981C262.729 17.9981 261.974 12.7037 261.356 12.6742C261.356 12.6742 258.863 16.1821 258.604 18.5897C258.604 18.5897 258.711 15.0137 260.753 12.3429C260.753 12.3429 258.342 12.7304 256.935 14.1944C256.935 14.1944 257.323 11.7158 261.368 11.4999C261.368 11.4999 263.429 8.83794 263.978 8.67526C263.978 8.67526 259.958 8.36173 257.519 9.37329C257.519 9.37329 259.664 7.0337 264.717 8.09849L267.541 5.93637C267.541 5.93637 262.246 5.25904 259.999 6.00735C259.999 6.00735 262.583 3.93692 268.301 5.44538L271.375 3.72396C271.375 3.72396 266.859 2.81297 264.171 3.13241C264.171 3.13241 267.011 1.69789 272.277 3.25368L274.486 2.3279C274.486 2.3279 271.179 1.7186 270.21 1.62099C269.242 1.52338 269.191 1.27493 269.191 1.27493C271.286 0.947465 273.437 1.17171 275.405 1.92268C275.405 1.92268 280.075 0.307743 279.993 0.0326709Z" fill="#F9A826"/>
<path opacity="0.1" d="M247.225 4.47201C247.225 4.47201 235.234 3.79172 236.638 11.6771C236.638 11.6771 236.357 13.0732 237.701 13.7061C237.701 13.7061 237.723 13.1146 238.935 13.3187C239.365 13.3866 239.803 13.4064 240.238 13.3778C240.827 13.3403 241.387 13.1232 241.832 12.7597C241.832 12.7597 245.208 11.4553 246.521 6.28512C246.521 6.28512 247.49 5.15525 247.452 4.86539L245.426 5.67581C245.426 5.67581 246.12 7.04822 245.574 8.18696C245.574 8.18696 245.508 5.7261 245.12 5.78525C245.041 5.78525 244.066 6.25849 244.066 6.25849C244.066 6.25849 245.259 8.64541 244.36 10.3816C244.36 10.3816 244.7 7.4416 243.694 6.43301L242.267 7.21385C242.267 7.21385 243.662 9.67767 242.715 11.6889C242.715 11.6889 242.958 8.604 241.968 7.40315L240.677 8.35851C240.677 8.35851 241.983 10.7898 241.188 12.455C241.188 12.455 241.084 8.86429 240.396 8.59513C240.396 8.59513 239.266 9.52978 239.093 9.91429C239.093 9.91429 239.989 11.689 239.434 12.6059C239.434 12.6059 239.093 10.213 238.803 10.2042C238.803 10.2042 237.679 11.7895 237.559 12.8661C237.615 11.8614 237.951 10.8877 238.531 10.0415C237.881 10.1569 237.281 10.4478 236.805 10.8785C236.805 10.8785 236.982 9.76049 238.809 9.65992C238.809 9.65992 239.756 8.45907 239.989 8.38513C239.989 8.38513 238.171 8.24316 237.07 8.70161C237.07 8.70161 238.039 7.64273 240.324 8.11006L241.586 7.13399C241.586 7.13399 239.194 6.83822 238.178 7.16653C238.178 7.16653 239.345 6.23188 241.93 6.91216L243.318 6.13427C243.318 6.13427 241.28 5.72018 240.062 5.87103C240.062 5.87103 241.346 5.22032 243.725 5.92427L244.719 5.50722C244.719 5.50722 243.224 5.22919 242.785 5.18778C242.346 5.14638 242.324 5.03102 242.324 5.03102C243.271 4.88332 244.244 4.98573 245.133 5.3268C245.133 5.3268 247.263 4.59623 247.225 4.47201Z" fill="#F9A826"/>
<path d="M289.112 192.479C296.12 192.479 301.801 191.579 301.801 190.468C301.801 189.357 296.12 188.457 289.112 188.457C282.105 188.457 276.424 189.357 276.424 190.468C276.424 191.579 282.105 192.479 289.112 192.479Z" fill="#63DB41"/>
<path d="M294.36 187.179C294.939 186.737 295.361 186.139 295.569 185.467C295.726 184.789 295.417 183.988 294.723 183.724C293.947 183.446 293.117 183.952 292.489 184.461C291.861 184.97 291.138 185.552 290.318 185.443C290.741 185.083 291.057 184.627 291.236 184.118C291.415 183.61 291.451 183.067 291.34 182.541C291.304 182.324 291.206 182.119 291.056 181.95C290.624 181.518 289.844 181.701 289.327 182.041C287.686 183.124 287.228 185.215 287.219 187.093C287.055 186.416 287.194 185.709 287.191 185.023C287.187 184.337 286.982 183.544 286.354 183.18C285.967 182.985 285.532 182.889 285.092 182.902C284.357 182.876 283.533 182.947 283.032 183.452C282.4 184.079 282.568 185.132 283.11 185.819C283.653 186.505 284.483 186.945 285.247 187.422C285.858 187.763 286.379 188.229 286.771 188.785C286.818 188.863 286.856 188.945 286.884 189.031H291.511C292.545 188.537 293.504 187.914 294.36 187.179Z" fill="#63DB41"/>
</g>
<defs>
<linearGradient id="paint0_linear" x1="255.133" y1="149.346" x2="255.133" y2="30.3554" gradientUnits="userSpaceOnUse">
<stop stop-color="#808080" stop-opacity="0.25"/>
<stop offset="0.54" stop-color="#808080" stop-opacity="0.12"/>
<stop offset="1" stop-color="#808080" stop-opacity="0.1"/>
</linearGradient>
<linearGradient id="paint1_linear" x1="12575.5" y1="74117.1" x2="28161.5" y2="74117.1" gradientUnits="userSpaceOnUse">
<stop stop-color="#808080" stop-opacity="0.25"/>
<stop offset="0.54" stop-color="#808080" stop-opacity="0.12"/>
<stop offset="1" stop-color="#808080" stop-opacity="0.1"/>
</linearGradient>
<clipPath id="clip0">
<rect width="361" height="193" fill="white"/>
</clipPath>
</defs>
</svg>
